G75*
%MOIN*%
%OFA0B0*%
%FSLAX25Y25*%
%IPPOS*%
%LPD*%
%AMOC8*
5,1,8,0,0,1.08239X$1,22.5*
%
%ADD10C,0.00000*%
%ADD11C,0.00600*%
%ADD12R,0.00450X0.00025*%
%ADD13R,0.00675X0.00025*%
%ADD14R,0.00900X0.00025*%
%ADD15R,0.01075X0.00025*%
%ADD16R,0.01200X0.00025*%
%ADD17R,0.01350X0.00025*%
%ADD18R,0.01450X0.00025*%
%ADD19R,0.01575X0.00025*%
%ADD20R,0.01675X0.00025*%
%ADD21R,0.01800X0.00025*%
%ADD22R,0.01875X0.00025*%
%ADD23R,0.01950X0.00025*%
%ADD24R,0.02050X0.00025*%
%ADD25R,0.02100X0.00025*%
%ADD26R,0.02200X0.00025*%
%ADD27R,0.02250X0.00025*%
%ADD28R,0.02350X0.00025*%
%ADD29R,0.02400X0.00025*%
%ADD30R,0.02500X0.00025*%
%ADD31R,0.02550X0.00025*%
%ADD32R,0.02600X0.00025*%
%ADD33R,0.02675X0.00025*%
%ADD34R,0.02725X0.00025*%
%ADD35R,0.02775X0.00025*%
%ADD36R,0.02850X0.00025*%
%ADD37R,0.02900X0.00025*%
%ADD38R,0.02925X0.00025*%
%ADD39R,0.02975X0.00025*%
%ADD40R,0.03025X0.00025*%
%ADD41R,0.03075X0.00025*%
%ADD42R,0.03150X0.00025*%
%ADD43R,0.03200X0.00025*%
%ADD44R,0.03225X0.00025*%
%ADD45R,0.03275X0.00025*%
%ADD46R,0.03300X0.00025*%
%ADD47R,0.03350X0.00025*%
%ADD48R,0.03400X0.00025*%
%ADD49R,0.03450X0.00025*%
%ADD50R,0.03475X0.00025*%
%ADD51R,0.02000X0.00025*%
%ADD52R,0.03525X0.00025*%
%ADD53R,0.02700X0.00025*%
%ADD54R,0.03550X0.00025*%
%ADD55R,0.03250X0.00025*%
%ADD56R,0.03600X0.00025*%
%ADD57R,0.03725X0.00025*%
%ADD58R,0.03625X0.00025*%
%ADD59R,0.04125X0.00025*%
%ADD60R,0.03650X0.00025*%
%ADD61R,0.04500X0.00025*%
%ADD62R,0.03700X0.00025*%
%ADD63R,0.04875X0.00025*%
%ADD64R,0.05225X0.00025*%
%ADD65R,0.03775X0.00025*%
%ADD66R,0.05500X0.00025*%
%ADD67R,0.03800X0.00025*%
%ADD68R,0.05775X0.00025*%
%ADD69R,0.03825X0.00025*%
%ADD70R,0.06050X0.00025*%
%ADD71R,0.03875X0.00025*%
%ADD72R,0.06325X0.00025*%
%ADD73R,0.03900X0.00025*%
%ADD74R,0.06550X0.00025*%
%ADD75R,0.03925X0.00025*%
%ADD76R,0.06775X0.00025*%
%ADD77R,0.03950X0.00025*%
%ADD78R,0.07075X0.00025*%
%ADD79R,0.04000X0.00025*%
%ADD80R,0.07275X0.00025*%
%ADD81R,0.01300X0.00025*%
%ADD82R,0.07475X0.00025*%
%ADD83R,0.01275X0.00025*%
%ADD84R,0.02650X0.00025*%
%ADD85R,0.07725X0.00025*%
%ADD86R,0.02625X0.00025*%
%ADD87R,0.07925X0.00025*%
%ADD88R,0.08125X0.00025*%
%ADD89R,0.02525X0.00025*%
%ADD90R,0.08325X0.00025*%
%ADD91R,0.02475X0.00025*%
%ADD92R,0.08500X0.00025*%
%ADD93R,0.02425X0.00025*%
%ADD94R,0.08675X0.00025*%
%ADD95R,0.08875X0.00025*%
%ADD96R,0.02325X0.00025*%
%ADD97R,0.09050X0.00025*%
%ADD98R,0.09200X0.00025*%
%ADD99R,0.02300X0.00025*%
%ADD100R,0.09375X0.00025*%
%ADD101R,0.09550X0.00025*%
%ADD102R,0.02225X0.00025*%
%ADD103R,0.09725X0.00025*%
%ADD104R,0.09875X0.00025*%
%ADD105R,0.02175X0.00025*%
%ADD106R,0.10025X0.00025*%
%ADD107R,0.02150X0.00025*%
%ADD108R,0.10175X0.00025*%
%ADD109R,0.02125X0.00025*%
%ADD110R,0.10325X0.00025*%
%ADD111R,0.10500X0.00025*%
%ADD112R,0.10650X0.00025*%
%ADD113R,0.10800X0.00025*%
%ADD114R,0.02075X0.00025*%
%ADD115R,0.10950X0.00025*%
%ADD116R,0.11100X0.00025*%
%ADD117R,0.11200X0.00025*%
%ADD118R,0.02025X0.00025*%
%ADD119R,0.11350X0.00025*%
%ADD120R,0.11500X0.00025*%
%ADD121R,0.11600X0.00025*%
%ADD122R,0.01975X0.00025*%
%ADD123R,0.11750X0.00025*%
%ADD124R,0.11875X0.00025*%
%ADD125R,0.12000X0.00025*%
%ADD126R,0.12150X0.00025*%
%ADD127R,0.01325X0.00025*%
%ADD128R,0.12275X0.00025*%
%ADD129R,0.01900X0.00025*%
%ADD130R,0.12400X0.00025*%
%ADD131R,0.01925X0.00025*%
%ADD132R,0.12525X0.00025*%
%ADD133R,0.12650X0.00025*%
%ADD134R,0.12750X0.00025*%
%ADD135R,0.12875X0.00025*%
%ADD136R,0.01850X0.00025*%
%ADD137R,0.13000X0.00025*%
%ADD138R,0.13100X0.00025*%
%ADD139R,0.01825X0.00025*%
%ADD140R,0.13250X0.00025*%
%ADD141R,0.13350X0.00025*%
%ADD142R,0.13450X0.00025*%
%ADD143R,0.13575X0.00025*%
%ADD144R,0.13700X0.00025*%
%ADD145R,0.13800X0.00025*%
%ADD146R,0.01775X0.00025*%
%ADD147R,0.13925X0.00025*%
%ADD148R,0.14000X0.00025*%
%ADD149R,0.14125X0.00025*%
%ADD150R,0.01750X0.00025*%
%ADD151R,0.14225X0.00025*%
%ADD152R,0.14350X0.00025*%
%ADD153R,0.14450X0.00025*%
%ADD154R,0.01725X0.00025*%
%ADD155R,0.14550X0.00025*%
%ADD156R,0.14650X0.00025*%
%ADD157R,0.14750X0.00025*%
%ADD158R,0.14850X0.00025*%
%ADD159R,0.14950X0.00025*%
%ADD160R,0.01700X0.00025*%
%ADD161R,0.15050X0.00025*%
%ADD162R,0.15150X0.00025*%
%ADD163R,0.15250X0.00025*%
%ADD164R,0.15350X0.00025*%
%ADD165R,0.15425X0.00025*%
%ADD166R,0.01650X0.00025*%
%ADD167R,0.15525X0.00025*%
%ADD168R,0.15625X0.00025*%
%ADD169R,0.15700X0.00025*%
%ADD170R,0.15800X0.00025*%
%ADD171R,0.01625X0.00025*%
%ADD172R,0.15925X0.00025*%
%ADD173R,0.16000X0.00025*%
%ADD174R,0.16100X0.00025*%
%ADD175R,0.16200X0.00025*%
%ADD176R,0.16300X0.00025*%
%ADD177R,0.16350X0.00025*%
%ADD178R,0.16450X0.00025*%
%ADD179R,0.16550X0.00025*%
%ADD180R,0.01600X0.00025*%
%ADD181R,0.16625X0.00025*%
%ADD182R,0.16700X0.00025*%
%ADD183R,0.16800X0.00025*%
%ADD184R,0.16900X0.00025*%
%ADD185R,0.16975X0.00025*%
%ADD186R,0.17050X0.00025*%
%ADD187R,0.17150X0.00025*%
%ADD188R,0.17250X0.00025*%
%ADD189R,0.17300X0.00025*%
%ADD190R,0.17400X0.00025*%
%ADD191R,0.17475X0.00025*%
%ADD192R,0.17550X0.00025*%
%ADD193R,0.17650X0.00025*%
%ADD194R,0.01550X0.00025*%
%ADD195R,0.17725X0.00025*%
%ADD196R,0.17825X0.00025*%
%ADD197R,0.17875X0.00025*%
%ADD198R,0.17950X0.00025*%
%ADD199R,0.18050X0.00025*%
%ADD200R,0.18125X0.00025*%
%ADD201R,0.01525X0.00025*%
%ADD202R,0.18175X0.00025*%
%ADD203R,0.18275X0.00025*%
%ADD204R,0.18375X0.00025*%
%ADD205R,0.18425X0.00025*%
%ADD206R,0.18500X0.00025*%
%ADD207R,0.18575X0.00025*%
%ADD208R,0.18675X0.00025*%
%ADD209R,0.18725X0.00025*%
%ADD210R,0.01500X0.00025*%
%ADD211R,0.18800X0.00025*%
%ADD212R,0.18875X0.00025*%
%ADD213R,0.18950X0.00025*%
%ADD214R,0.19025X0.00025*%
%ADD215R,0.19075X0.00025*%
%ADD216R,0.19175X0.00025*%
%ADD217R,0.19250X0.00025*%
%ADD218R,0.19300X0.00025*%
%ADD219R,0.19375X0.00025*%
%ADD220R,0.01475X0.00025*%
%ADD221R,0.19450X0.00025*%
%ADD222R,0.19525X0.00025*%
%ADD223R,0.19600X0.00025*%
%ADD224R,0.19650X0.00025*%
%ADD225R,0.19725X0.00025*%
%ADD226R,0.19825X0.00025*%
%ADD227R,0.19875X0.00025*%
%ADD228R,0.19925X0.00025*%
%ADD229R,0.20000X0.00025*%
%ADD230R,0.20075X0.00025*%
%ADD231R,0.20150X0.00025*%
%ADD232R,0.20225X0.00025*%
%ADD233R,0.20275X0.00025*%
%ADD234R,0.20350X0.00025*%
%ADD235R,0.20400X0.00025*%
%ADD236R,0.20475X0.00025*%
%ADD237R,0.20525X0.00025*%
%ADD238R,0.20600X0.00025*%
%ADD239R,0.01425X0.00025*%
%ADD240R,0.20675X0.00025*%
%ADD241R,0.20725X0.00025*%
%ADD242R,0.20775X0.00025*%
%ADD243R,0.20850X0.00025*%
%ADD244R,0.20925X0.00025*%
%ADD245R,0.20975X0.00025*%
%ADD246R,0.21025X0.00025*%
%ADD247R,0.21100X0.00025*%
%ADD248R,0.21175X0.00025*%
%ADD249R,0.21225X0.00025*%
%ADD250R,0.21300X0.00025*%
%ADD251R,0.21350X0.00025*%
%ADD252R,0.21425X0.00025*%
%ADD253R,0.21475X0.00025*%
%ADD254R,0.01400X0.00025*%
%ADD255R,0.21525X0.00025*%
%ADD256R,0.21600X0.00025*%
%ADD257R,0.21675X0.00025*%
%ADD258R,0.21725X0.00025*%
%ADD259R,0.21775X0.00025*%
%ADD260R,0.21850X0.00025*%
%ADD261R,0.21925X0.00025*%
%ADD262R,0.21975X0.00025*%
%ADD263R,0.22025X0.00025*%
%ADD264R,0.22075X0.00025*%
%ADD265R,0.22150X0.00025*%
%ADD266R,0.22175X0.00025*%
%ADD267R,0.22250X0.00025*%
%ADD268R,0.22325X0.00025*%
%ADD269R,0.22375X0.00025*%
%ADD270R,0.22425X0.00025*%
%ADD271R,0.01375X0.00025*%
%ADD272R,0.22475X0.00025*%
%ADD273R,0.22525X0.00025*%
%ADD274R,0.22575X0.00025*%
%ADD275R,0.22625X0.00025*%
%ADD276R,0.22725X0.00025*%
%ADD277R,0.22775X0.00025*%
%ADD278R,0.22825X0.00025*%
%ADD279R,0.22875X0.00025*%
%ADD280R,0.22925X0.00025*%
%ADD281R,0.22975X0.00025*%
%ADD282R,0.23025X0.00025*%
%ADD283R,0.23075X0.00025*%
%ADD284R,0.23125X0.00025*%
%ADD285R,0.23175X0.00025*%
%ADD286R,0.23225X0.00025*%
%ADD287R,0.23325X0.00025*%
%ADD288R,0.23375X0.00025*%
%ADD289R,0.23425X0.00025*%
%ADD290R,0.23475X0.00025*%
%ADD291R,0.23525X0.00025*%
%ADD292R,0.23575X0.00025*%
%ADD293R,0.23625X0.00025*%
%ADD294R,0.23675X0.00025*%
%ADD295R,0.23725X0.00025*%
%ADD296R,0.23775X0.00025*%
%ADD297R,0.07550X0.00025*%
%ADD298R,0.14825X0.00025*%
%ADD299R,0.07100X0.00025*%
%ADD300R,0.14400X0.00025*%
%ADD301R,0.14100X0.00025*%
%ADD302R,0.06525X0.00025*%
%ADD303R,0.13850X0.00025*%
%ADD304R,0.06300X0.00025*%
%ADD305R,0.13625X0.00025*%
%ADD306R,0.06125X0.00025*%
%ADD307R,0.13425X0.00025*%
%ADD308R,0.05950X0.00025*%
%ADD309R,0.05800X0.00025*%
%ADD310R,0.05650X0.00025*%
%ADD311R,0.12925X0.00025*%
%ADD312R,0.05525X0.00025*%
%ADD313R,0.12800X0.00025*%
%ADD314R,0.05400X0.00025*%
%ADD315R,0.12675X0.00025*%
%ADD316R,0.05250X0.00025*%
%ADD317R,0.05125X0.00025*%
%ADD318R,0.12425X0.00025*%
%ADD319R,0.05025X0.00025*%
%ADD320R,0.12325X0.00025*%
%ADD321R,0.04950X0.00025*%
%ADD322R,0.12225X0.00025*%
%ADD323R,0.04850X0.00025*%
%ADD324R,0.12125X0.00025*%
%ADD325R,0.04750X0.00025*%
%ADD326R,0.12025X0.00025*%
%ADD327R,0.04650X0.00025*%
%ADD328R,0.11900X0.00025*%
%ADD329R,0.04575X0.00025*%
%ADD330R,0.11825X0.00025*%
%ADD331R,0.04425X0.00025*%
%ADD332R,0.11675X0.00025*%
%ADD333R,0.04300X0.00025*%
%ADD334R,0.11575X0.00025*%
%ADD335R,0.04225X0.00025*%
%ADD336R,0.11525X0.00025*%
%ADD337R,0.04150X0.00025*%
%ADD338R,0.11450X0.00025*%
%ADD339R,0.04075X0.00025*%
%ADD340R,0.11250X0.00025*%
%ADD341R,0.11125X0.00025*%
%ADD342R,0.11075X0.00025*%
%ADD343R,0.03750X0.00025*%
%ADD344R,0.11000X0.00025*%
%ADD345R,0.03675X0.00025*%
%ADD346R,0.10900X0.00025*%
%ADD347R,0.03575X0.00025*%
%ADD348R,0.10750X0.00025*%
%ADD349R,0.10700X0.00025*%
%ADD350R,0.03500X0.00025*%
%ADD351R,0.10575X0.00025*%
%ADD352R,0.03425X0.00025*%
%ADD353R,0.10550X0.00025*%
%ADD354R,0.10450X0.00025*%
%ADD355R,0.03375X0.00025*%
%ADD356R,0.10425X0.00025*%
%ADD357R,0.10350X0.00025*%
%ADD358R,0.03325X0.00025*%
%ADD359R,0.10275X0.00025*%
%ADD360R,0.10200X0.00025*%
%ADD361R,0.10150X0.00025*%
%ADD362R,0.10125X0.00025*%
%ADD363R,0.03175X0.00025*%
%ADD364R,0.10075X0.00025*%
%ADD365R,0.10050X0.00025*%
%ADD366R,0.03125X0.00025*%
%ADD367R,0.10000X0.00025*%
%ADD368R,0.09950X0.00025*%
%ADD369R,0.03050X0.00025*%
%ADD370R,0.09900X0.00025*%
%ADD371R,0.03000X0.00025*%
%ADD372R,0.09825X0.00025*%
%ADD373R,0.09800X0.00025*%
%ADD374R,0.02950X0.00025*%
%ADD375R,0.09750X0.00025*%
%ADD376R,0.09700X0.00025*%
%ADD377R,0.09625X0.00025*%
%ADD378R,0.09600X0.00025*%
%ADD379R,0.03100X0.00025*%
%ADD380R,0.09575X0.00025*%
%ADD381R,0.09525X0.00025*%
%ADD382R,0.09500X0.00025*%
%ADD383R,0.09475X0.00025*%
%ADD384R,0.09450X0.00025*%
%ADD385R,0.09425X0.00025*%
%ADD386R,0.09350X0.00025*%
%ADD387R,0.09325X0.00025*%
%ADD388R,0.09300X0.00025*%
%ADD389R,0.09275X0.00025*%
%ADD390R,0.09250X0.00025*%
%ADD391R,0.09225X0.00025*%
%ADD392R,0.09175X0.00025*%
%ADD393R,0.09150X0.00025*%
%ADD394R,0.09125X0.00025*%
%ADD395R,0.09100X0.00025*%
%ADD396R,0.09075X0.00025*%
%ADD397R,0.09025X0.00025*%
%ADD398R,0.03975X0.00025*%
%ADD399R,0.09000X0.00025*%
%ADD400R,0.04025X0.00025*%
%ADD401R,0.08975X0.00025*%
%ADD402R,0.04050X0.00025*%
%ADD403R,0.08925X0.00025*%
%ADD404R,0.04100X0.00025*%
%ADD405R,0.08900X0.00025*%
%ADD406R,0.00125X0.00025*%
%ADD407R,0.04200X0.00025*%
%ADD408R,0.04275X0.00025*%
%ADD409R,0.08850X0.00025*%
%ADD410R,0.04325X0.00025*%
%ADD411R,0.04375X0.00025*%
%ADD412R,0.04250X0.00025*%
%ADD413R,0.08800X0.00025*%
%ADD414R,0.04400X0.00025*%
%ADD415R,0.04700X0.00025*%
%ADD416R,0.08775X0.00025*%
%ADD417R,0.04450X0.00025*%
%ADD418R,0.05075X0.00025*%
%ADD419R,0.05425X0.00025*%
%ADD420R,0.04525X0.00025*%
%ADD421R,0.08750X0.00025*%
%ADD422R,0.04550X0.00025*%
%ADD423R,0.08725X0.00025*%
%ADD424R,0.04600X0.00025*%
%ADD425R,0.06350X0.00025*%
%ADD426R,0.06650X0.00025*%
%ADD427R,0.08700X0.00025*%
%ADD428R,0.04675X0.00025*%
%ADD429R,0.06900X0.00025*%
%ADD430R,0.04725X0.00025*%
%ADD431R,0.07175X0.00025*%
%ADD432R,0.08650X0.00025*%
%ADD433R,0.04775X0.00025*%
%ADD434R,0.07450X0.00025*%
%ADD435R,0.04825X0.00025*%
%ADD436R,0.07700X0.00025*%
%ADD437R,0.08625X0.00025*%
%ADD438R,0.08175X0.00025*%
%ADD439R,0.08600X0.00025*%
%ADD440R,0.04925X0.00025*%
%ADD441R,0.08375X0.00025*%
%ADD442R,0.08575X0.00025*%
%ADD443R,0.04975X0.00025*%
%ADD444R,0.08550X0.00025*%
%ADD445R,0.05000X0.00025*%
%ADD446R,0.13975X0.00025*%
%ADD447R,0.08525X0.00025*%
%ADD448R,0.14175X0.00025*%
%ADD449R,0.01250X0.00025*%
%ADD450R,0.14300X0.00025*%
%ADD451R,0.14500X0.00025*%
%ADD452R,0.14600X0.00025*%
%ADD453R,0.08475X0.00025*%
%ADD454R,0.14700X0.00025*%
%ADD455R,0.14775X0.00025*%
%ADD456R,0.14875X0.00025*%
%ADD457R,0.08450X0.00025*%
%ADD458R,0.14975X0.00025*%
%ADD459R,0.15325X0.00025*%
%ADD460R,0.08425X0.00025*%
%ADD461R,0.15400X0.00025*%
%ADD462R,0.15500X0.00025*%
%ADD463R,0.15575X0.00025*%
%ADD464R,0.15650X0.00025*%
%ADD465R,0.08400X0.00025*%
%ADD466R,0.15750X0.00025*%
%ADD467R,0.15900X0.00025*%
%ADD468R,0.15975X0.00025*%
%ADD469R,0.16025X0.00025*%
%ADD470R,0.16125X0.00025*%
%ADD471R,0.16275X0.00025*%
%ADD472R,0.16425X0.00025*%
%ADD473R,0.05925X0.00025*%
%ADD474R,0.08300X0.00025*%
%ADD475R,0.08025X0.00025*%
%ADD476R,0.07775X0.00025*%
%ADD477R,0.07325X0.00025*%
%ADD478R,0.07125X0.00025*%
%ADD479R,0.04175X0.00025*%
%ADD480R,0.06950X0.00025*%
%ADD481R,0.06750X0.00025*%
%ADD482R,0.06375X0.00025*%
%ADD483R,0.06200X0.00025*%
%ADD484R,0.05750X0.00025*%
%ADD485R,0.05625X0.00025*%
%ADD486R,0.05475X0.00025*%
%ADD487R,0.05350X0.00025*%
%ADD488R,0.04475X0.00025*%
%ADD489R,0.02875X0.00025*%
%ADD490R,0.00275X0.00025*%
%ADD491R,0.02825X0.00025*%
%ADD492R,0.00800X0.00025*%
%ADD493R,0.02800X0.00025*%
%ADD494R,0.01100X0.00025*%
%ADD495R,0.08825X0.00025*%
%ADD496R,0.09400X0.00025*%
%ADD497R,0.09675X0.00025*%
%ADD498R,0.01175X0.00025*%
%ADD499R,0.09775X0.00025*%
%ADD500R,0.01000X0.00025*%
%ADD501R,0.00925X0.00025*%
%ADD502R,0.09975X0.00025*%
%ADD503R,0.00825X0.00025*%
%ADD504R,0.00750X0.00025*%
%ADD505R,0.11425X0.00025*%
%ADD506R,0.00600X0.00025*%
%ADD507R,0.11400X0.00025*%
%ADD508R,0.00500X0.00025*%
%ADD509R,0.11375X0.00025*%
%ADD510R,0.00425X0.00025*%
%ADD511R,0.00350X0.00025*%
%ADD512R,0.11325X0.00025*%
%ADD513R,0.00200X0.00025*%
%ADD514R,0.04350X0.00025*%
%ADD515R,0.11300X0.00025*%
%ADD516R,0.00050X0.00025*%
%ADD517R,0.11275X0.00025*%
%ADD518R,0.11225X0.00025*%
%ADD519R,0.11175X0.00025*%
%ADD520R,0.11150X0.00025*%
%ADD521R,0.11050X0.00025*%
%ADD522R,0.11025X0.00025*%
%ADD523R,0.10975X0.00025*%
%ADD524R,0.10925X0.00025*%
%ADD525R,0.10875X0.00025*%
%ADD526R,0.10850X0.00025*%
%ADD527R,0.10825X0.00025*%
%ADD528R,0.10775X0.00025*%
%ADD529R,0.10725X0.00025*%
%ADD530R,0.10675X0.00025*%
%ADD531R,0.10625X0.00025*%
%ADD532R,0.10600X0.00025*%
%ADD533R,0.10525X0.00025*%
%ADD534R,0.10475X0.00025*%
%ADD535R,0.03850X0.00025*%
%ADD536R,0.10400X0.00025*%
%ADD537R,0.10375X0.00025*%
%ADD538R,0.10300X0.00025*%
%ADD539R,0.10250X0.00025*%
%ADD540R,0.10225X0.00025*%
%ADD541R,0.10100X0.00025*%
%ADD542R,0.09925X0.00025*%
%ADD543R,0.09850X0.00025*%
%ADD544R,0.09650X0.00025*%
%ADD545R,0.02275X0.00025*%
%ADD546R,0.02375X0.00025*%
%ADD547R,0.02450X0.00025*%
%ADD548R,0.11800X0.00025*%
%ADD549R,0.11775X0.00025*%
%ADD550R,0.11700X0.00025*%
%ADD551R,0.11625X0.00025*%
%ADD552R,0.02750X0.00025*%
%ADD553R,0.02575X0.00025*%
%ADD554R,0.08200X0.00025*%
%ADD555R,0.08100X0.00025*%
%ADD556R,0.08000X0.00025*%
%ADD557R,0.07900X0.00025*%
%ADD558R,0.07575X0.00025*%
%ADD559R,0.07375X0.00025*%
%ADD560R,0.07025X0.00025*%
%ADD561R,0.06400X0.00025*%
%ADD562R,0.06250X0.00025*%
%ADD563R,0.06100X0.00025*%
%ADD564R,0.05975X0.00025*%
%ADD565R,0.05825X0.00025*%
%ADD566R,0.05700X0.00025*%
%ADD567R,0.05550X0.00025*%
%ADD568R,0.05375X0.00025*%
%ADD569R,0.05200X0.00025*%
%ADD570R,0.05050X0.00025*%
%ADD571R,0.00075X0.00025*%
%ADD572R,0.01025X0.00025*%
%ADD573R,0.01150X0.00025*%
%ADD574R,0.04625X0.00025*%
%ADD575R,0.04800X0.00025*%
%ADD576R,0.04900X0.00025*%
%ADD577R,0.05100X0.00025*%
%ADD578R,0.05150X0.00025*%
%ADD579R,0.05175X0.00025*%
%ADD580R,0.05275X0.00025*%
%ADD581R,0.05300X0.00025*%
%ADD582R,0.05325X0.00025*%
%ADD583R,0.05450X0.00025*%
%ADD584R,0.05575X0.00025*%
%ADD585R,0.05600X0.00025*%
%ADD586R,0.05725X0.00025*%
%ADD587R,0.05875X0.00025*%
%ADD588R,0.05900X0.00025*%
%ADD589R,0.07950X0.00025*%
%ADD590R,0.07875X0.00025*%
%ADD591R,0.07825X0.00025*%
%ADD592R,0.07650X0.00025*%
%ADD593R,0.07525X0.00025*%
%ADD594R,0.07400X0.00025*%
%ADD595R,0.07350X0.00025*%
%ADD596R,0.07225X0.00025*%
%ADD597R,0.07200X0.00025*%
%ADD598R,0.06850X0.00025*%
%ADD599R,0.06725X0.00025*%
%ADD600R,0.06675X0.00025*%
%ADD601R,0.06625X0.00025*%
%ADD602R,0.06500X0.00025*%
%ADD603R,0.06425X0.00025*%
%ADD604R,0.06450X0.00025*%
%ADD605R,0.06475X0.00025*%
%ADD606R,0.06575X0.00025*%
%ADD607R,0.08350X0.00025*%
%ADD608R,0.08275X0.00025*%
%ADD609R,0.08050X0.00025*%
%ADD610R,0.07625X0.00025*%
%ADD611R,0.07300X0.00025*%
%ADD612R,0.07000X0.00025*%
%ADD613R,0.06825X0.00025*%
%ADD614R,0.06700X0.00025*%
%ADD615R,0.06600X0.00025*%
%ADD616R,0.06275X0.00025*%
%ADD617R,0.06175X0.00025*%
%ADD618C,0.00800*%
%ADD619C,0.00500*%
%ADD620C,0.00300*%
D10*
X0022011Y0041875D02*
X0022022Y0041875D01*
X0022011Y0041875D02*
X0022006Y0041876D01*
X0022001Y0041881D01*
X0022000Y0041886D01*
X0022000Y0041914D01*
X0022001Y0041919D01*
X0022005Y0041924D01*
X0022011Y0041925D01*
X0022022Y0041925D01*
X0022038Y0041904D02*
X0022041Y0041904D01*
X0022041Y0041901D01*
X0022038Y0041901D01*
X0022038Y0041904D01*
X0022038Y0041882D02*
X0022041Y0041882D01*
X0022041Y0041879D01*
X0022038Y0041879D01*
X0022038Y0041882D01*
X0022057Y0041869D02*
X0022079Y0041931D01*
X0022096Y0041925D02*
X0022096Y0041889D01*
X0022097Y0041883D01*
X0022101Y0041878D01*
X0022107Y0041875D01*
X0022113Y0041875D01*
X0022119Y0041878D01*
X0022123Y0041883D01*
X0022124Y0041889D01*
X0022124Y0041925D01*
X0022142Y0041878D02*
X0022149Y0041876D01*
X0022157Y0041875D01*
X0022158Y0041875D02*
X0022162Y0041877D01*
X0022165Y0041881D01*
X0022164Y0041885D01*
X0022161Y0041889D01*
X0022160Y0041889D02*
X0022146Y0041894D01*
X0022143Y0041898D01*
X0022142Y0041902D01*
X0022145Y0041906D01*
X0022149Y0041908D01*
X0022149Y0041909D02*
X0022156Y0041908D01*
X0022162Y0041906D01*
X0022181Y0041897D02*
X0022181Y0041883D01*
X0022182Y0041883D02*
X0022183Y0041879D01*
X0022186Y0041876D01*
X0022190Y0041875D01*
X0022203Y0041875D01*
X0022203Y0041892D02*
X0022181Y0041892D01*
X0022181Y0041897D02*
X0022182Y0041903D01*
X0022187Y0041907D01*
X0022192Y0041908D01*
X0022198Y0041907D01*
X0022202Y0041903D01*
X0022203Y0041897D01*
X0022203Y0041892D01*
X0022222Y0041908D02*
X0022239Y0041908D01*
X0022239Y0041903D01*
X0022222Y0041908D02*
X0022222Y0041875D01*
X0022258Y0041909D02*
X0022265Y0041908D01*
X0022271Y0041906D01*
X0022259Y0041908D02*
X0022255Y0041906D01*
X0022252Y0041902D01*
X0022253Y0041898D01*
X0022256Y0041894D01*
X0022270Y0041889D01*
X0022273Y0041885D01*
X0022274Y0041881D01*
X0022271Y0041877D01*
X0022267Y0041875D01*
X0022289Y0041869D02*
X0022311Y0041931D01*
X0022328Y0041925D02*
X0022351Y0041925D01*
X0022351Y0041903D02*
X0022328Y0041903D01*
X0022328Y0041925D02*
X0022328Y0041875D01*
X0022367Y0041875D02*
X0022367Y0041908D01*
X0022384Y0041908D01*
X0022384Y0041903D01*
X0022396Y0041908D02*
X0022407Y0041875D01*
X0022401Y0041858D02*
X0022418Y0041908D01*
X0022432Y0041869D02*
X0022454Y0041931D01*
X0022471Y0041925D02*
X0022485Y0041925D01*
X0022490Y0041924D01*
X0022495Y0041921D01*
X0022498Y0041916D01*
X0022499Y0041911D01*
X0022499Y0041889D01*
X0022498Y0041884D01*
X0022495Y0041879D01*
X0022490Y0041876D01*
X0022485Y0041875D01*
X0022471Y0041875D01*
X0022471Y0041925D01*
X0022517Y0041897D02*
X0022517Y0041883D01*
X0022518Y0041879D01*
X0022521Y0041876D01*
X0022525Y0041875D01*
X0022539Y0041875D01*
X0022539Y0041892D02*
X0022517Y0041892D01*
X0022517Y0041897D02*
X0022518Y0041903D01*
X0022523Y0041907D01*
X0022528Y0041908D01*
X0022534Y0041907D01*
X0022538Y0041903D01*
X0022539Y0041897D01*
X0022539Y0041892D01*
X0022560Y0041894D02*
X0022574Y0041889D01*
X0022577Y0041885D01*
X0022578Y0041881D01*
X0022575Y0041877D01*
X0022571Y0041875D01*
X0022576Y0041906D02*
X0022570Y0041908D01*
X0022563Y0041909D01*
X0022563Y0041908D02*
X0022559Y0041906D01*
X0022556Y0041902D01*
X0022557Y0041898D01*
X0022560Y0041894D01*
X0022556Y0041878D02*
X0022563Y0041876D01*
X0022571Y0041875D01*
X0022597Y0041875D02*
X0022597Y0041925D01*
X0022619Y0041908D02*
X0022597Y0041892D01*
X0022607Y0041899D02*
X0022619Y0041875D01*
X0022636Y0041883D02*
X0022636Y0041925D01*
X0022631Y0041908D02*
X0022647Y0041908D01*
X0022663Y0041897D02*
X0022663Y0041886D01*
X0022664Y0041881D01*
X0022669Y0041876D01*
X0022674Y0041875D01*
X0022680Y0041876D01*
X0022684Y0041881D01*
X0022685Y0041886D01*
X0022685Y0041897D01*
X0022684Y0041903D01*
X0022680Y0041907D01*
X0022674Y0041908D01*
X0022669Y0041907D01*
X0022664Y0041903D01*
X0022663Y0041897D01*
X0022645Y0041875D02*
X0022641Y0041876D01*
X0022638Y0041879D01*
X0022637Y0041883D01*
X0022645Y0041875D02*
X0022647Y0041875D01*
X0022703Y0041875D02*
X0022717Y0041875D01*
X0022721Y0041876D01*
X0022724Y0041879D01*
X0022725Y0041883D01*
X0022725Y0041900D01*
X0022724Y0041904D01*
X0022721Y0041907D01*
X0022717Y0041908D01*
X0022703Y0041908D01*
X0022703Y0041858D01*
X0022741Y0041869D02*
X0022763Y0041931D01*
X0022780Y0041925D02*
X0022794Y0041925D01*
X0022800Y0041924D01*
X0022804Y0041920D01*
X0022805Y0041914D01*
X0022804Y0041909D01*
X0022800Y0041904D01*
X0022794Y0041903D01*
X0022780Y0041903D01*
X0022794Y0041903D02*
X0022800Y0041902D01*
X0022805Y0041898D01*
X0022808Y0041892D01*
X0022808Y0041886D01*
X0022805Y0041880D01*
X0022800Y0041876D01*
X0022794Y0041875D01*
X0022780Y0041875D01*
X0022780Y0041925D01*
X0022837Y0041925D02*
X0022854Y0041875D01*
X0022850Y0041888D02*
X0022825Y0041888D01*
X0022820Y0041875D02*
X0022837Y0041925D01*
X0022870Y0041925D02*
X0022897Y0041875D01*
X0022897Y0041925D01*
X0022870Y0041925D02*
X0022870Y0041875D01*
X0022913Y0041875D02*
X0022930Y0041925D01*
X0022947Y0041875D01*
X0022943Y0041888D02*
X0022918Y0041888D01*
X0022963Y0041875D02*
X0022963Y0041925D01*
X0022990Y0041875D01*
X0022990Y0041925D01*
X0023023Y0041925D02*
X0023040Y0041875D01*
X0023053Y0041875D02*
X0023056Y0041875D01*
X0023056Y0041878D01*
X0023053Y0041878D01*
X0023053Y0041875D01*
X0023074Y0041875D02*
X0023087Y0041875D01*
X0023091Y0041876D01*
X0023094Y0041879D01*
X0023095Y0041883D01*
X0023096Y0041883D02*
X0023096Y0041900D01*
X0023095Y0041900D02*
X0023094Y0041904D01*
X0023091Y0041907D01*
X0023087Y0041908D01*
X0023074Y0041908D01*
X0023074Y0041925D02*
X0023074Y0041875D01*
X0023114Y0041875D02*
X0023114Y0041908D01*
X0023139Y0041908D01*
X0023131Y0041908D02*
X0023131Y0041875D01*
X0023148Y0041875D02*
X0023148Y0041900D01*
X0023147Y0041900D02*
X0023146Y0041904D01*
X0023143Y0041907D01*
X0023139Y0041908D01*
X0023168Y0041908D02*
X0023182Y0041908D01*
X0023186Y0041907D01*
X0023189Y0041904D01*
X0023190Y0041900D01*
X0023190Y0041883D01*
X0023189Y0041879D01*
X0023186Y0041876D01*
X0023182Y0041875D01*
X0023168Y0041875D01*
X0023168Y0041858D02*
X0023168Y0041908D01*
X0023036Y0041888D02*
X0023011Y0041888D01*
X0023006Y0041875D02*
X0023023Y0041925D01*
X0022401Y0041858D02*
X0022396Y0041858D01*
X0022267Y0041875D02*
X0022259Y0041876D01*
X0022252Y0041878D01*
X0022000Y0042000D02*
X0022000Y0238850D01*
X0297591Y0238850D01*
X0297591Y0042000D01*
X0022000Y0042000D01*
X0129717Y0054480D02*
X0129719Y0054536D01*
X0129725Y0054591D01*
X0129735Y0054645D01*
X0129748Y0054699D01*
X0129766Y0054752D01*
X0129787Y0054803D01*
X0129811Y0054853D01*
X0129839Y0054901D01*
X0129871Y0054947D01*
X0129905Y0054991D01*
X0129943Y0055032D01*
X0129983Y0055070D01*
X0130026Y0055105D01*
X0130071Y0055137D01*
X0130119Y0055166D01*
X0130168Y0055192D01*
X0130219Y0055214D01*
X0130271Y0055232D01*
X0130325Y0055246D01*
X0130380Y0055257D01*
X0130435Y0055264D01*
X0130490Y0055267D01*
X0130546Y0055266D01*
X0130601Y0055261D01*
X0130656Y0055252D01*
X0130710Y0055240D01*
X0130763Y0055223D01*
X0130815Y0055203D01*
X0130865Y0055179D01*
X0130913Y0055152D01*
X0130960Y0055122D01*
X0131004Y0055088D01*
X0131046Y0055051D01*
X0131084Y0055011D01*
X0131121Y0054969D01*
X0131154Y0054924D01*
X0131183Y0054878D01*
X0131210Y0054829D01*
X0131232Y0054778D01*
X0131252Y0054726D01*
X0131267Y0054672D01*
X0131279Y0054618D01*
X0131287Y0054563D01*
X0131291Y0054508D01*
X0131291Y0054452D01*
X0131287Y0054397D01*
X0131279Y0054342D01*
X0131267Y0054288D01*
X0131252Y0054234D01*
X0131232Y0054182D01*
X0131210Y0054131D01*
X0131183Y0054082D01*
X0131154Y0054036D01*
X0131121Y0053991D01*
X0131084Y0053949D01*
X0131046Y0053909D01*
X0131004Y0053872D01*
X0130960Y0053838D01*
X0130913Y0053808D01*
X0130865Y0053781D01*
X0130815Y0053757D01*
X0130763Y0053737D01*
X0130710Y0053720D01*
X0130656Y0053708D01*
X0130601Y0053699D01*
X0130546Y0053694D01*
X0130490Y0053693D01*
X0130435Y0053696D01*
X0130380Y0053703D01*
X0130325Y0053714D01*
X0130271Y0053728D01*
X0130219Y0053746D01*
X0130168Y0053768D01*
X0130119Y0053794D01*
X0130071Y0053823D01*
X0130026Y0053855D01*
X0129983Y0053890D01*
X0129943Y0053928D01*
X0129905Y0053969D01*
X0129871Y0054013D01*
X0129839Y0054059D01*
X0129811Y0054107D01*
X0129787Y0054157D01*
X0129766Y0054208D01*
X0129748Y0054261D01*
X0129735Y0054315D01*
X0129725Y0054369D01*
X0129719Y0054424D01*
X0129717Y0054480D01*
X0192709Y0054480D02*
X0192711Y0054536D01*
X0192717Y0054591D01*
X0192727Y0054645D01*
X0192740Y0054699D01*
X0192758Y0054752D01*
X0192779Y0054803D01*
X0192803Y0054853D01*
X0192831Y0054901D01*
X0192863Y0054947D01*
X0192897Y0054991D01*
X0192935Y0055032D01*
X0192975Y0055070D01*
X0193018Y0055105D01*
X0193063Y0055137D01*
X0193111Y0055166D01*
X0193160Y0055192D01*
X0193211Y0055214D01*
X0193263Y0055232D01*
X0193317Y0055246D01*
X0193372Y0055257D01*
X0193427Y0055264D01*
X0193482Y0055267D01*
X0193538Y0055266D01*
X0193593Y0055261D01*
X0193648Y0055252D01*
X0193702Y0055240D01*
X0193755Y0055223D01*
X0193807Y0055203D01*
X0193857Y0055179D01*
X0193905Y0055152D01*
X0193952Y0055122D01*
X0193996Y0055088D01*
X0194038Y0055051D01*
X0194076Y0055011D01*
X0194113Y0054969D01*
X0194146Y0054924D01*
X0194175Y0054878D01*
X0194202Y0054829D01*
X0194224Y0054778D01*
X0194244Y0054726D01*
X0194259Y0054672D01*
X0194271Y0054618D01*
X0194279Y0054563D01*
X0194283Y0054508D01*
X0194283Y0054452D01*
X0194279Y0054397D01*
X0194271Y0054342D01*
X0194259Y0054288D01*
X0194244Y0054234D01*
X0194224Y0054182D01*
X0194202Y0054131D01*
X0194175Y0054082D01*
X0194146Y0054036D01*
X0194113Y0053991D01*
X0194076Y0053949D01*
X0194038Y0053909D01*
X0193996Y0053872D01*
X0193952Y0053838D01*
X0193905Y0053808D01*
X0193857Y0053781D01*
X0193807Y0053757D01*
X0193755Y0053737D01*
X0193702Y0053720D01*
X0193648Y0053708D01*
X0193593Y0053699D01*
X0193538Y0053694D01*
X0193482Y0053693D01*
X0193427Y0053696D01*
X0193372Y0053703D01*
X0193317Y0053714D01*
X0193263Y0053728D01*
X0193211Y0053746D01*
X0193160Y0053768D01*
X0193111Y0053794D01*
X0193063Y0053823D01*
X0193018Y0053855D01*
X0192975Y0053890D01*
X0192935Y0053928D01*
X0192897Y0053969D01*
X0192863Y0054013D01*
X0192831Y0054059D01*
X0192803Y0054107D01*
X0192779Y0054157D01*
X0192758Y0054208D01*
X0192740Y0054261D01*
X0192727Y0054315D01*
X0192717Y0054369D01*
X0192711Y0054424D01*
X0192709Y0054480D01*
X0277138Y0210000D02*
X0277140Y0210097D01*
X0277146Y0210194D01*
X0277156Y0210290D01*
X0277170Y0210386D01*
X0277188Y0210482D01*
X0277209Y0210576D01*
X0277235Y0210670D01*
X0277264Y0210762D01*
X0277298Y0210853D01*
X0277334Y0210943D01*
X0277375Y0211031D01*
X0277419Y0211117D01*
X0277467Y0211202D01*
X0277518Y0211284D01*
X0277572Y0211365D01*
X0277630Y0211443D01*
X0277691Y0211518D01*
X0277754Y0211591D01*
X0277821Y0211662D01*
X0277891Y0211729D01*
X0277963Y0211794D01*
X0278038Y0211855D01*
X0278116Y0211914D01*
X0278195Y0211969D01*
X0278277Y0212021D01*
X0278361Y0212069D01*
X0278447Y0212114D01*
X0278535Y0212156D01*
X0278624Y0212194D01*
X0278715Y0212228D01*
X0278807Y0212258D01*
X0278900Y0212285D01*
X0278995Y0212307D01*
X0279090Y0212326D01*
X0279186Y0212341D01*
X0279282Y0212352D01*
X0279379Y0212359D01*
X0279476Y0212362D01*
X0279573Y0212361D01*
X0279670Y0212356D01*
X0279766Y0212347D01*
X0279862Y0212334D01*
X0279958Y0212317D01*
X0280053Y0212296D01*
X0280146Y0212272D01*
X0280239Y0212243D01*
X0280331Y0212211D01*
X0280421Y0212175D01*
X0280509Y0212136D01*
X0280596Y0212092D01*
X0280681Y0212046D01*
X0280764Y0211995D01*
X0280845Y0211942D01*
X0280923Y0211885D01*
X0281000Y0211825D01*
X0281073Y0211762D01*
X0281144Y0211696D01*
X0281212Y0211627D01*
X0281278Y0211555D01*
X0281340Y0211481D01*
X0281399Y0211404D01*
X0281455Y0211325D01*
X0281508Y0211243D01*
X0281558Y0211160D01*
X0281603Y0211074D01*
X0281646Y0210987D01*
X0281685Y0210898D01*
X0281720Y0210808D01*
X0281751Y0210716D01*
X0281778Y0210623D01*
X0281802Y0210529D01*
X0281822Y0210434D01*
X0281838Y0210338D01*
X0281850Y0210242D01*
X0281858Y0210145D01*
X0281862Y0210048D01*
X0281862Y0209952D01*
X0281858Y0209855D01*
X0281850Y0209758D01*
X0281838Y0209662D01*
X0281822Y0209566D01*
X0281802Y0209471D01*
X0281778Y0209377D01*
X0281751Y0209284D01*
X0281720Y0209192D01*
X0281685Y0209102D01*
X0281646Y0209013D01*
X0281603Y0208926D01*
X0281558Y0208840D01*
X0281508Y0208757D01*
X0281455Y0208675D01*
X0281399Y0208596D01*
X0281340Y0208519D01*
X0281278Y0208445D01*
X0281212Y0208373D01*
X0281144Y0208304D01*
X0281073Y0208238D01*
X0281000Y0208175D01*
X0280923Y0208115D01*
X0280845Y0208058D01*
X0280764Y0208005D01*
X0280681Y0207954D01*
X0280596Y0207908D01*
X0280509Y0207864D01*
X0280421Y0207825D01*
X0280331Y0207789D01*
X0280239Y0207757D01*
X0280146Y0207728D01*
X0280053Y0207704D01*
X0279958Y0207683D01*
X0279862Y0207666D01*
X0279766Y0207653D01*
X0279670Y0207644D01*
X0279573Y0207639D01*
X0279476Y0207638D01*
X0279379Y0207641D01*
X0279282Y0207648D01*
X0279186Y0207659D01*
X0279090Y0207674D01*
X0278995Y0207693D01*
X0278900Y0207715D01*
X0278807Y0207742D01*
X0278715Y0207772D01*
X0278624Y0207806D01*
X0278535Y0207844D01*
X0278447Y0207886D01*
X0278361Y0207931D01*
X0278277Y0207979D01*
X0278195Y0208031D01*
X0278116Y0208086D01*
X0278038Y0208145D01*
X0277963Y0208206D01*
X0277891Y0208271D01*
X0277821Y0208338D01*
X0277754Y0208409D01*
X0277691Y0208482D01*
X0277630Y0208557D01*
X0277572Y0208635D01*
X0277518Y0208716D01*
X0277467Y0208798D01*
X0277419Y0208883D01*
X0277375Y0208969D01*
X0277334Y0209057D01*
X0277298Y0209147D01*
X0277264Y0209238D01*
X0277235Y0209330D01*
X0277209Y0209424D01*
X0277188Y0209518D01*
X0277170Y0209614D01*
X0277156Y0209710D01*
X0277146Y0209806D01*
X0277140Y0209903D01*
X0277138Y0210000D01*
X0189472Y0225000D02*
X0189474Y0225134D01*
X0189480Y0225268D01*
X0189490Y0225402D01*
X0189504Y0225536D01*
X0189522Y0225669D01*
X0189543Y0225801D01*
X0189569Y0225933D01*
X0189599Y0226064D01*
X0189632Y0226194D01*
X0189669Y0226322D01*
X0189711Y0226450D01*
X0189755Y0226577D01*
X0189804Y0226702D01*
X0189856Y0226825D01*
X0189912Y0226947D01*
X0189972Y0227068D01*
X0190035Y0227186D01*
X0190101Y0227303D01*
X0190171Y0227417D01*
X0190244Y0227530D01*
X0190321Y0227640D01*
X0190401Y0227748D01*
X0190484Y0227853D01*
X0190570Y0227956D01*
X0190659Y0228056D01*
X0190751Y0228154D01*
X0190846Y0228249D01*
X0190944Y0228341D01*
X0191044Y0228430D01*
X0191147Y0228516D01*
X0191252Y0228599D01*
X0191360Y0228679D01*
X0191470Y0228756D01*
X0191583Y0228829D01*
X0191697Y0228899D01*
X0191814Y0228965D01*
X0191932Y0229028D01*
X0192053Y0229088D01*
X0192175Y0229144D01*
X0192298Y0229196D01*
X0192423Y0229245D01*
X0192550Y0229289D01*
X0192678Y0229331D01*
X0192806Y0229368D01*
X0192936Y0229401D01*
X0193067Y0229431D01*
X0193199Y0229457D01*
X0193331Y0229478D01*
X0193464Y0229496D01*
X0193598Y0229510D01*
X0193732Y0229520D01*
X0193866Y0229526D01*
X0194000Y0229528D01*
X0194134Y0229526D01*
X0194268Y0229520D01*
X0194402Y0229510D01*
X0194536Y0229496D01*
X0194669Y0229478D01*
X0194801Y0229457D01*
X0194933Y0229431D01*
X0195064Y0229401D01*
X0195194Y0229368D01*
X0195322Y0229331D01*
X0195450Y0229289D01*
X0195577Y0229245D01*
X0195702Y0229196D01*
X0195825Y0229144D01*
X0195947Y0229088D01*
X0196068Y0229028D01*
X0196186Y0228965D01*
X0196303Y0228899D01*
X0196417Y0228829D01*
X0196530Y0228756D01*
X0196640Y0228679D01*
X0196748Y0228599D01*
X0196853Y0228516D01*
X0196956Y0228430D01*
X0197056Y0228341D01*
X0197154Y0228249D01*
X0197249Y0228154D01*
X0197341Y0228056D01*
X0197430Y0227956D01*
X0197516Y0227853D01*
X0197599Y0227748D01*
X0197679Y0227640D01*
X0197756Y0227530D01*
X0197829Y0227417D01*
X0197899Y0227303D01*
X0197965Y0227186D01*
X0198028Y0227068D01*
X0198088Y0226947D01*
X0198144Y0226825D01*
X0198196Y0226702D01*
X0198245Y0226577D01*
X0198289Y0226450D01*
X0198331Y0226322D01*
X0198368Y0226194D01*
X0198401Y0226064D01*
X0198431Y0225933D01*
X0198457Y0225801D01*
X0198478Y0225669D01*
X0198496Y0225536D01*
X0198510Y0225402D01*
X0198520Y0225268D01*
X0198526Y0225134D01*
X0198528Y0225000D01*
X0198526Y0224866D01*
X0198520Y0224732D01*
X0198510Y0224598D01*
X0198496Y0224464D01*
X0198478Y0224331D01*
X0198457Y0224199D01*
X0198431Y0224067D01*
X0198401Y0223936D01*
X0198368Y0223806D01*
X0198331Y0223678D01*
X0198289Y0223550D01*
X0198245Y0223423D01*
X0198196Y0223298D01*
X0198144Y0223175D01*
X0198088Y0223053D01*
X0198028Y0222932D01*
X0197965Y0222814D01*
X0197899Y0222697D01*
X0197829Y0222583D01*
X0197756Y0222470D01*
X0197679Y0222360D01*
X0197599Y0222252D01*
X0197516Y0222147D01*
X0197430Y0222044D01*
X0197341Y0221944D01*
X0197249Y0221846D01*
X0197154Y0221751D01*
X0197056Y0221659D01*
X0196956Y0221570D01*
X0196853Y0221484D01*
X0196748Y0221401D01*
X0196640Y0221321D01*
X0196530Y0221244D01*
X0196417Y0221171D01*
X0196303Y0221101D01*
X0196186Y0221035D01*
X0196068Y0220972D01*
X0195947Y0220912D01*
X0195825Y0220856D01*
X0195702Y0220804D01*
X0195577Y0220755D01*
X0195450Y0220711D01*
X0195322Y0220669D01*
X0195194Y0220632D01*
X0195064Y0220599D01*
X0194933Y0220569D01*
X0194801Y0220543D01*
X0194669Y0220522D01*
X0194536Y0220504D01*
X0194402Y0220490D01*
X0194268Y0220480D01*
X0194134Y0220474D01*
X0194000Y0220472D01*
X0193866Y0220474D01*
X0193732Y0220480D01*
X0193598Y0220490D01*
X0193464Y0220504D01*
X0193331Y0220522D01*
X0193199Y0220543D01*
X0193067Y0220569D01*
X0192936Y0220599D01*
X0192806Y0220632D01*
X0192678Y0220669D01*
X0192550Y0220711D01*
X0192423Y0220755D01*
X0192298Y0220804D01*
X0192175Y0220856D01*
X0192053Y0220912D01*
X0191932Y0220972D01*
X0191814Y0221035D01*
X0191697Y0221101D01*
X0191583Y0221171D01*
X0191470Y0221244D01*
X0191360Y0221321D01*
X0191252Y0221401D01*
X0191147Y0221484D01*
X0191044Y0221570D01*
X0190944Y0221659D01*
X0190846Y0221751D01*
X0190751Y0221846D01*
X0190659Y0221944D01*
X0190570Y0222044D01*
X0190484Y0222147D01*
X0190401Y0222252D01*
X0190321Y0222360D01*
X0190244Y0222470D01*
X0190171Y0222583D01*
X0190101Y0222697D01*
X0190035Y0222814D01*
X0189972Y0222932D01*
X0189912Y0223053D01*
X0189856Y0223175D01*
X0189804Y0223298D01*
X0189755Y0223423D01*
X0189711Y0223550D01*
X0189669Y0223678D01*
X0189632Y0223806D01*
X0189599Y0223936D01*
X0189569Y0224067D01*
X0189543Y0224199D01*
X0189522Y0224331D01*
X0189504Y0224464D01*
X0189490Y0224598D01*
X0189480Y0224732D01*
X0189474Y0224866D01*
X0189472Y0225000D01*
D11*
X0113834Y0222300D02*
X0110278Y0222300D01*
X0112056Y0222300D02*
X0112056Y0228700D01*
X0110278Y0227278D01*
X0101663Y0225500D02*
X0101665Y0225359D01*
X0101671Y0225219D01*
X0101680Y0225078D01*
X0101693Y0224938D01*
X0101710Y0224798D01*
X0101730Y0224659D01*
X0101755Y0224521D01*
X0101783Y0224383D01*
X0101814Y0224246D01*
X0101850Y0224109D01*
X0101889Y0223974D01*
X0101931Y0223840D01*
X0101977Y0223707D01*
X0102027Y0223575D01*
X0102080Y0223445D01*
X0102136Y0223316D01*
X0102196Y0223189D01*
X0102018Y0223722D02*
X0104863Y0227278D01*
X0104685Y0227811D02*
X0104660Y0227877D01*
X0104632Y0227942D01*
X0104600Y0228006D01*
X0104565Y0228067D01*
X0104526Y0228127D01*
X0104485Y0228185D01*
X0104440Y0228240D01*
X0104392Y0228292D01*
X0104342Y0228342D01*
X0104289Y0228390D01*
X0104234Y0228434D01*
X0104176Y0228475D01*
X0104116Y0228513D01*
X0104054Y0228548D01*
X0103990Y0228579D01*
X0103925Y0228607D01*
X0103858Y0228632D01*
X0103791Y0228652D01*
X0103722Y0228669D01*
X0103652Y0228683D01*
X0103582Y0228692D01*
X0103511Y0228698D01*
X0103440Y0228700D01*
X0103369Y0228698D01*
X0103298Y0228692D01*
X0103228Y0228683D01*
X0103158Y0228669D01*
X0103089Y0228652D01*
X0103022Y0228632D01*
X0102955Y0228607D01*
X0102890Y0228579D01*
X0102826Y0228548D01*
X0102764Y0228513D01*
X0102704Y0228475D01*
X0102646Y0228434D01*
X0102591Y0228390D01*
X0102538Y0228342D01*
X0102488Y0228292D01*
X0102440Y0228240D01*
X0102395Y0228185D01*
X0102354Y0228127D01*
X0102315Y0228067D01*
X0102280Y0228006D01*
X0102248Y0227942D01*
X0102220Y0227877D01*
X0102195Y0227811D01*
X0099324Y0226567D02*
X0097902Y0222300D01*
X0096480Y0226567D01*
X0105218Y0225500D02*
X0105216Y0225359D01*
X0105210Y0225219D01*
X0105201Y0225078D01*
X0105188Y0224938D01*
X0105171Y0224798D01*
X0105151Y0224659D01*
X0105126Y0224521D01*
X0105098Y0224383D01*
X0105067Y0224246D01*
X0105031Y0224109D01*
X0104992Y0223974D01*
X0104950Y0223840D01*
X0104904Y0223707D01*
X0104854Y0223575D01*
X0104801Y0223445D01*
X0104745Y0223316D01*
X0104685Y0223189D01*
X0104660Y0223123D01*
X0104632Y0223058D01*
X0104600Y0222994D01*
X0104565Y0222933D01*
X0104526Y0222873D01*
X0104485Y0222815D01*
X0104440Y0222760D01*
X0104392Y0222708D01*
X0104342Y0222658D01*
X0104289Y0222610D01*
X0104233Y0222566D01*
X0104176Y0222525D01*
X0104116Y0222487D01*
X0104054Y0222452D01*
X0103990Y0222421D01*
X0103925Y0222393D01*
X0103858Y0222368D01*
X0103791Y0222348D01*
X0103722Y0222331D01*
X0103652Y0222317D01*
X0103582Y0222308D01*
X0103511Y0222302D01*
X0103440Y0222300D01*
X0103369Y0222302D01*
X0103298Y0222308D01*
X0103228Y0222317D01*
X0103158Y0222331D01*
X0103089Y0222348D01*
X0103022Y0222368D01*
X0102955Y0222393D01*
X0102890Y0222421D01*
X0102826Y0222452D01*
X0102764Y0222487D01*
X0102704Y0222525D01*
X0102646Y0222566D01*
X0102591Y0222610D01*
X0102538Y0222658D01*
X0102488Y0222708D01*
X0102440Y0222760D01*
X0102395Y0222815D01*
X0102354Y0222873D01*
X0102315Y0222933D01*
X0102280Y0222994D01*
X0102248Y0223058D01*
X0102220Y0223123D01*
X0102195Y0223189D01*
X0105218Y0225500D02*
X0105216Y0225641D01*
X0105210Y0225781D01*
X0105201Y0225922D01*
X0105188Y0226062D01*
X0105171Y0226202D01*
X0105151Y0226341D01*
X0105126Y0226479D01*
X0105098Y0226617D01*
X0105067Y0226754D01*
X0105031Y0226891D01*
X0104992Y0227026D01*
X0104950Y0227160D01*
X0104904Y0227293D01*
X0104854Y0227425D01*
X0104801Y0227555D01*
X0104745Y0227684D01*
X0104685Y0227811D01*
X0102196Y0227811D02*
X0102136Y0227684D01*
X0102080Y0227555D01*
X0102027Y0227425D01*
X0101977Y0227293D01*
X0101931Y0227160D01*
X0101889Y0227026D01*
X0101850Y0226891D01*
X0101814Y0226754D01*
X0101783Y0226617D01*
X0101755Y0226479D01*
X0101730Y0226341D01*
X0101710Y0226202D01*
X0101693Y0226062D01*
X0101680Y0225922D01*
X0101671Y0225781D01*
X0101665Y0225641D01*
X0101663Y0225500D01*
X0107570Y0222656D02*
X0107926Y0222656D01*
X0107926Y0222300D01*
X0107570Y0222300D01*
X0107570Y0222656D01*
X0090914Y0222300D02*
X0089136Y0222300D01*
X0089072Y0222302D01*
X0089007Y0222308D01*
X0088944Y0222317D01*
X0088881Y0222331D01*
X0088819Y0222348D01*
X0088758Y0222369D01*
X0088698Y0222394D01*
X0088640Y0222422D01*
X0088584Y0222454D01*
X0088530Y0222489D01*
X0088478Y0222527D01*
X0088428Y0222568D01*
X0088382Y0222613D01*
X0088337Y0222659D01*
X0088296Y0222709D01*
X0088258Y0222761D01*
X0088223Y0222815D01*
X0088191Y0222871D01*
X0088163Y0222929D01*
X0088138Y0222989D01*
X0088117Y0223050D01*
X0088100Y0223112D01*
X0088086Y0223175D01*
X0088077Y0223238D01*
X0088071Y0223303D01*
X0088069Y0223367D01*
X0088069Y0225144D01*
X0088069Y0224433D02*
X0090914Y0224433D01*
X0090914Y0225144D01*
X0090913Y0225144D02*
X0090911Y0225218D01*
X0090905Y0225293D01*
X0090895Y0225366D01*
X0090882Y0225440D01*
X0090865Y0225512D01*
X0090843Y0225583D01*
X0090819Y0225654D01*
X0090790Y0225722D01*
X0090758Y0225790D01*
X0090722Y0225855D01*
X0090684Y0225918D01*
X0090641Y0225980D01*
X0090596Y0226039D01*
X0090548Y0226096D01*
X0090497Y0226150D01*
X0090443Y0226201D01*
X0090386Y0226249D01*
X0090327Y0226294D01*
X0090265Y0226337D01*
X0090202Y0226375D01*
X0090137Y0226411D01*
X0090069Y0226443D01*
X0090001Y0226472D01*
X0089930Y0226496D01*
X0089859Y0226518D01*
X0089787Y0226535D01*
X0089713Y0226548D01*
X0089640Y0226558D01*
X0089565Y0226564D01*
X0089491Y0226566D01*
X0089417Y0226564D01*
X0089342Y0226558D01*
X0089269Y0226548D01*
X0089195Y0226535D01*
X0089123Y0226518D01*
X0089052Y0226496D01*
X0088981Y0226472D01*
X0088913Y0226443D01*
X0088845Y0226411D01*
X0088780Y0226375D01*
X0088717Y0226337D01*
X0088655Y0226294D01*
X0088596Y0226249D01*
X0088539Y0226201D01*
X0088485Y0226150D01*
X0088434Y0226096D01*
X0088386Y0226039D01*
X0088341Y0225980D01*
X0088298Y0225918D01*
X0088260Y0225855D01*
X0088224Y0225790D01*
X0088192Y0225722D01*
X0088163Y0225654D01*
X0088139Y0225583D01*
X0088117Y0225512D01*
X0088100Y0225440D01*
X0088087Y0225366D01*
X0088077Y0225293D01*
X0088071Y0225218D01*
X0088069Y0225144D01*
X0085594Y0226567D02*
X0085594Y0222300D01*
X0083324Y0222300D02*
X0080479Y0226567D01*
X0078209Y0226567D02*
X0078209Y0222300D01*
X0080479Y0222300D02*
X0083324Y0226567D01*
X0085416Y0228344D02*
X0085772Y0228344D01*
X0085772Y0228700D01*
X0085416Y0228700D01*
X0085416Y0228344D01*
X0078387Y0228344D02*
X0078031Y0228344D01*
X0078031Y0228700D01*
X0078387Y0228700D01*
X0078387Y0228344D01*
X0075762Y0225500D02*
X0075762Y0223367D01*
X0075763Y0223367D02*
X0075761Y0223303D01*
X0075755Y0223238D01*
X0075746Y0223175D01*
X0075732Y0223112D01*
X0075715Y0223050D01*
X0075694Y0222989D01*
X0075669Y0222929D01*
X0075641Y0222871D01*
X0075609Y0222815D01*
X0075574Y0222761D01*
X0075536Y0222709D01*
X0075495Y0222659D01*
X0075450Y0222613D01*
X0075404Y0222568D01*
X0075354Y0222527D01*
X0075302Y0222489D01*
X0075248Y0222454D01*
X0075192Y0222422D01*
X0075134Y0222394D01*
X0075074Y0222369D01*
X0075013Y0222348D01*
X0074951Y0222331D01*
X0074888Y0222317D01*
X0074825Y0222308D01*
X0074760Y0222302D01*
X0074696Y0222300D01*
X0072918Y0222300D01*
X0072918Y0220167D02*
X0072918Y0226567D01*
X0074696Y0226567D01*
X0074760Y0226565D01*
X0074825Y0226559D01*
X0074888Y0226550D01*
X0074951Y0226536D01*
X0075013Y0226519D01*
X0075074Y0226498D01*
X0075134Y0226473D01*
X0075192Y0226445D01*
X0075248Y0226413D01*
X0075302Y0226378D01*
X0075354Y0226340D01*
X0075404Y0226299D01*
X0075450Y0226254D01*
X0075495Y0226208D01*
X0075536Y0226158D01*
X0075574Y0226106D01*
X0075609Y0226052D01*
X0075641Y0225996D01*
X0075669Y0225938D01*
X0075694Y0225878D01*
X0075715Y0225817D01*
X0075732Y0225755D01*
X0075746Y0225692D01*
X0075755Y0225629D01*
X0075761Y0225564D01*
X0075763Y0225500D01*
X0070086Y0224789D02*
X0065819Y0224789D01*
X0063220Y0225144D02*
X0063220Y0224433D01*
X0060376Y0224433D01*
X0060376Y0225144D02*
X0060376Y0223367D01*
X0060378Y0223303D01*
X0060384Y0223238D01*
X0060393Y0223175D01*
X0060407Y0223112D01*
X0060424Y0223050D01*
X0060445Y0222989D01*
X0060470Y0222929D01*
X0060498Y0222871D01*
X0060530Y0222815D01*
X0060565Y0222761D01*
X0060603Y0222709D01*
X0060644Y0222659D01*
X0060689Y0222613D01*
X0060735Y0222568D01*
X0060785Y0222527D01*
X0060837Y0222489D01*
X0060891Y0222454D01*
X0060947Y0222422D01*
X0061005Y0222394D01*
X0061065Y0222369D01*
X0061126Y0222348D01*
X0061188Y0222331D01*
X0061251Y0222317D01*
X0061314Y0222308D01*
X0061379Y0222302D01*
X0061443Y0222300D01*
X0063220Y0222300D01*
X0063220Y0225144D02*
X0063218Y0225218D01*
X0063212Y0225293D01*
X0063202Y0225366D01*
X0063189Y0225440D01*
X0063172Y0225512D01*
X0063150Y0225583D01*
X0063126Y0225654D01*
X0063097Y0225722D01*
X0063065Y0225790D01*
X0063029Y0225855D01*
X0062991Y0225918D01*
X0062948Y0225980D01*
X0062903Y0226039D01*
X0062855Y0226096D01*
X0062804Y0226150D01*
X0062750Y0226201D01*
X0062693Y0226249D01*
X0062634Y0226294D01*
X0062572Y0226337D01*
X0062509Y0226375D01*
X0062444Y0226411D01*
X0062376Y0226443D01*
X0062308Y0226472D01*
X0062237Y0226496D01*
X0062166Y0226518D01*
X0062094Y0226535D01*
X0062020Y0226548D01*
X0061947Y0226558D01*
X0061872Y0226564D01*
X0061798Y0226566D01*
X0061724Y0226564D01*
X0061649Y0226558D01*
X0061576Y0226548D01*
X0061502Y0226535D01*
X0061430Y0226518D01*
X0061359Y0226496D01*
X0061288Y0226472D01*
X0061220Y0226443D01*
X0061152Y0226411D01*
X0061087Y0226375D01*
X0061024Y0226337D01*
X0060962Y0226294D01*
X0060903Y0226249D01*
X0060846Y0226201D01*
X0060792Y0226150D01*
X0060741Y0226096D01*
X0060693Y0226039D01*
X0060648Y0225980D01*
X0060605Y0225918D01*
X0060567Y0225855D01*
X0060531Y0225790D01*
X0060499Y0225722D01*
X0060470Y0225654D01*
X0060446Y0225583D01*
X0060424Y0225512D01*
X0060407Y0225440D01*
X0060394Y0225366D01*
X0060384Y0225293D01*
X0060378Y0225218D01*
X0060376Y0225144D01*
X0057901Y0226567D02*
X0057901Y0222300D01*
X0054537Y0222300D02*
X0054596Y0222301D01*
X0054656Y0222306D01*
X0054714Y0222315D01*
X0054773Y0222327D01*
X0054830Y0222344D01*
X0054886Y0222363D01*
X0054941Y0222387D01*
X0054994Y0222414D01*
X0055045Y0222444D01*
X0055094Y0222478D01*
X0055141Y0222514D01*
X0055185Y0222554D01*
X0055227Y0222596D01*
X0055266Y0222641D01*
X0055302Y0222689D01*
X0055335Y0222738D01*
X0055364Y0222790D01*
X0055391Y0222843D01*
X0055413Y0222898D01*
X0055432Y0222955D01*
X0055448Y0223012D01*
X0055459Y0223070D01*
X0055467Y0223129D01*
X0055471Y0223189D01*
X0055472Y0223248D01*
X0055468Y0223308D01*
X0055461Y0223367D01*
X0055449Y0223425D01*
X0055434Y0223483D01*
X0055416Y0223539D01*
X0055393Y0223594D01*
X0055368Y0223648D01*
X0055338Y0223700D01*
X0055306Y0223750D01*
X0055270Y0223797D01*
X0055232Y0223843D01*
X0055190Y0223885D01*
X0055146Y0223925D01*
X0055100Y0223962D01*
X0055051Y0223996D01*
X0055000Y0224027D01*
X0054947Y0224054D01*
X0054892Y0224078D01*
X0053114Y0224789D01*
X0053115Y0224789D02*
X0053060Y0224813D01*
X0053007Y0224840D01*
X0052956Y0224871D01*
X0052907Y0224905D01*
X0052861Y0224942D01*
X0052817Y0224982D01*
X0052775Y0225024D01*
X0052737Y0225070D01*
X0052701Y0225117D01*
X0052669Y0225167D01*
X0052639Y0225219D01*
X0052614Y0225273D01*
X0052591Y0225328D01*
X0052573Y0225384D01*
X0052558Y0225442D01*
X0052546Y0225500D01*
X0052539Y0225559D01*
X0052535Y0225619D01*
X0052536Y0225678D01*
X0052540Y0225738D01*
X0052548Y0225797D01*
X0052559Y0225855D01*
X0052575Y0225912D01*
X0052594Y0225969D01*
X0052616Y0226024D01*
X0052643Y0226077D01*
X0052672Y0226129D01*
X0052705Y0226178D01*
X0052741Y0226226D01*
X0052780Y0226271D01*
X0052822Y0226313D01*
X0052866Y0226353D01*
X0052913Y0226389D01*
X0052962Y0226423D01*
X0053013Y0226453D01*
X0053066Y0226480D01*
X0053121Y0226504D01*
X0053177Y0226523D01*
X0053234Y0226540D01*
X0053293Y0226552D01*
X0053351Y0226561D01*
X0053411Y0226566D01*
X0053470Y0226567D01*
X0052581Y0222655D02*
X0052726Y0222605D01*
X0052873Y0222559D01*
X0053020Y0222516D01*
X0053169Y0222477D01*
X0053319Y0222442D01*
X0053469Y0222410D01*
X0053620Y0222383D01*
X0053772Y0222359D01*
X0053924Y0222340D01*
X0054077Y0222324D01*
X0054230Y0222312D01*
X0054383Y0222304D01*
X0054537Y0222300D01*
X0055070Y0226211D02*
X0054962Y0226258D01*
X0054852Y0226301D01*
X0054741Y0226342D01*
X0054629Y0226379D01*
X0054517Y0226413D01*
X0054403Y0226444D01*
X0054288Y0226471D01*
X0054172Y0226495D01*
X0054056Y0226515D01*
X0053940Y0226532D01*
X0053823Y0226546D01*
X0053705Y0226556D01*
X0053588Y0226563D01*
X0053470Y0226567D01*
X0050121Y0225500D02*
X0050121Y0223367D01*
X0050119Y0223303D01*
X0050113Y0223238D01*
X0050104Y0223175D01*
X0050090Y0223112D01*
X0050073Y0223050D01*
X0050052Y0222989D01*
X0050027Y0222929D01*
X0049999Y0222871D01*
X0049967Y0222815D01*
X0049932Y0222761D01*
X0049894Y0222709D01*
X0049853Y0222659D01*
X0049808Y0222613D01*
X0049762Y0222568D01*
X0049712Y0222527D01*
X0049660Y0222489D01*
X0049606Y0222454D01*
X0049550Y0222422D01*
X0049492Y0222394D01*
X0049432Y0222369D01*
X0049371Y0222348D01*
X0049309Y0222331D01*
X0049246Y0222317D01*
X0049183Y0222308D01*
X0049118Y0222302D01*
X0049054Y0222300D01*
X0047276Y0222300D01*
X0047276Y0220167D02*
X0047276Y0226567D01*
X0049054Y0226567D01*
X0049118Y0226565D01*
X0049183Y0226559D01*
X0049246Y0226550D01*
X0049309Y0226536D01*
X0049371Y0226519D01*
X0049432Y0226498D01*
X0049492Y0226473D01*
X0049550Y0226445D01*
X0049606Y0226413D01*
X0049660Y0226378D01*
X0049712Y0226340D01*
X0049762Y0226299D01*
X0049808Y0226254D01*
X0049853Y0226208D01*
X0049894Y0226158D01*
X0049932Y0226106D01*
X0049967Y0226052D01*
X0049999Y0225996D01*
X0050027Y0225938D01*
X0050052Y0225878D01*
X0050073Y0225817D01*
X0050090Y0225755D01*
X0050104Y0225692D01*
X0050113Y0225629D01*
X0050119Y0225564D01*
X0050121Y0225500D01*
X0044553Y0225144D02*
X0044553Y0224433D01*
X0041709Y0224433D01*
X0041709Y0225144D02*
X0041709Y0223367D01*
X0041708Y0223367D02*
X0041710Y0223303D01*
X0041716Y0223238D01*
X0041725Y0223175D01*
X0041739Y0223112D01*
X0041756Y0223050D01*
X0041777Y0222989D01*
X0041802Y0222929D01*
X0041830Y0222871D01*
X0041862Y0222815D01*
X0041897Y0222761D01*
X0041935Y0222709D01*
X0041976Y0222659D01*
X0042021Y0222613D01*
X0042067Y0222568D01*
X0042117Y0222527D01*
X0042169Y0222489D01*
X0042223Y0222454D01*
X0042279Y0222422D01*
X0042337Y0222394D01*
X0042397Y0222369D01*
X0042458Y0222348D01*
X0042520Y0222331D01*
X0042583Y0222317D01*
X0042646Y0222308D01*
X0042711Y0222302D01*
X0042775Y0222300D01*
X0044553Y0222300D01*
X0044553Y0225144D02*
X0044551Y0225218D01*
X0044545Y0225293D01*
X0044535Y0225366D01*
X0044522Y0225440D01*
X0044505Y0225512D01*
X0044483Y0225583D01*
X0044459Y0225654D01*
X0044430Y0225722D01*
X0044398Y0225790D01*
X0044362Y0225855D01*
X0044324Y0225918D01*
X0044281Y0225980D01*
X0044236Y0226039D01*
X0044188Y0226096D01*
X0044137Y0226150D01*
X0044083Y0226201D01*
X0044026Y0226249D01*
X0043967Y0226294D01*
X0043905Y0226337D01*
X0043842Y0226375D01*
X0043777Y0226411D01*
X0043709Y0226443D01*
X0043641Y0226472D01*
X0043570Y0226496D01*
X0043499Y0226518D01*
X0043427Y0226535D01*
X0043353Y0226548D01*
X0043280Y0226558D01*
X0043205Y0226564D01*
X0043131Y0226566D01*
X0043057Y0226564D01*
X0042982Y0226558D01*
X0042909Y0226548D01*
X0042835Y0226535D01*
X0042763Y0226518D01*
X0042692Y0226496D01*
X0042621Y0226472D01*
X0042553Y0226443D01*
X0042485Y0226411D01*
X0042420Y0226375D01*
X0042357Y0226337D01*
X0042295Y0226294D01*
X0042236Y0226249D01*
X0042179Y0226201D01*
X0042125Y0226150D01*
X0042074Y0226096D01*
X0042026Y0226039D01*
X0041981Y0225980D01*
X0041938Y0225918D01*
X0041900Y0225855D01*
X0041864Y0225790D01*
X0041832Y0225722D01*
X0041803Y0225654D01*
X0041779Y0225583D01*
X0041757Y0225512D01*
X0041740Y0225440D01*
X0041727Y0225366D01*
X0041717Y0225293D01*
X0041711Y0225218D01*
X0041709Y0225144D01*
X0039434Y0226567D02*
X0037301Y0226567D01*
X0038012Y0228700D02*
X0038012Y0223367D01*
X0038011Y0223367D02*
X0038013Y0223303D01*
X0038019Y0223238D01*
X0038028Y0223175D01*
X0038042Y0223112D01*
X0038059Y0223050D01*
X0038080Y0222989D01*
X0038105Y0222929D01*
X0038133Y0222871D01*
X0038165Y0222815D01*
X0038200Y0222761D01*
X0038238Y0222709D01*
X0038279Y0222659D01*
X0038324Y0222613D01*
X0038370Y0222568D01*
X0038420Y0222527D01*
X0038472Y0222489D01*
X0038526Y0222454D01*
X0038582Y0222422D01*
X0038640Y0222394D01*
X0038700Y0222369D01*
X0038761Y0222348D01*
X0038823Y0222331D01*
X0038886Y0222317D01*
X0038949Y0222308D01*
X0039014Y0222302D01*
X0039078Y0222300D01*
X0039434Y0222300D01*
X0034789Y0224078D02*
X0033011Y0224789D01*
X0032956Y0224813D01*
X0032903Y0224840D01*
X0032852Y0224871D01*
X0032803Y0224905D01*
X0032757Y0224942D01*
X0032713Y0224982D01*
X0032671Y0225024D01*
X0032633Y0225070D01*
X0032597Y0225117D01*
X0032565Y0225167D01*
X0032535Y0225219D01*
X0032510Y0225273D01*
X0032487Y0225328D01*
X0032469Y0225384D01*
X0032454Y0225442D01*
X0032442Y0225500D01*
X0032435Y0225559D01*
X0032431Y0225619D01*
X0032432Y0225678D01*
X0032436Y0225738D01*
X0032444Y0225797D01*
X0032455Y0225855D01*
X0032471Y0225912D01*
X0032490Y0225969D01*
X0032512Y0226024D01*
X0032539Y0226077D01*
X0032568Y0226129D01*
X0032601Y0226178D01*
X0032637Y0226226D01*
X0032676Y0226271D01*
X0032718Y0226313D01*
X0032762Y0226353D01*
X0032809Y0226389D01*
X0032858Y0226423D01*
X0032909Y0226453D01*
X0032962Y0226480D01*
X0033017Y0226504D01*
X0033073Y0226523D01*
X0033130Y0226540D01*
X0033189Y0226552D01*
X0033247Y0226561D01*
X0033307Y0226566D01*
X0033366Y0226567D01*
X0032477Y0222655D02*
X0032622Y0222605D01*
X0032769Y0222559D01*
X0032916Y0222516D01*
X0033065Y0222477D01*
X0033215Y0222442D01*
X0033365Y0222410D01*
X0033516Y0222383D01*
X0033668Y0222359D01*
X0033820Y0222340D01*
X0033973Y0222324D01*
X0034126Y0222312D01*
X0034279Y0222304D01*
X0034433Y0222300D01*
X0034492Y0222301D01*
X0034552Y0222306D01*
X0034610Y0222315D01*
X0034669Y0222327D01*
X0034726Y0222344D01*
X0034782Y0222363D01*
X0034837Y0222387D01*
X0034890Y0222414D01*
X0034941Y0222444D01*
X0034990Y0222478D01*
X0035037Y0222514D01*
X0035081Y0222554D01*
X0035123Y0222596D01*
X0035162Y0222641D01*
X0035198Y0222689D01*
X0035231Y0222738D01*
X0035260Y0222790D01*
X0035287Y0222843D01*
X0035309Y0222898D01*
X0035328Y0222955D01*
X0035344Y0223012D01*
X0035355Y0223070D01*
X0035363Y0223129D01*
X0035367Y0223189D01*
X0035368Y0223248D01*
X0035364Y0223308D01*
X0035357Y0223367D01*
X0035345Y0223425D01*
X0035330Y0223483D01*
X0035312Y0223539D01*
X0035289Y0223594D01*
X0035264Y0223648D01*
X0035234Y0223700D01*
X0035202Y0223750D01*
X0035166Y0223797D01*
X0035128Y0223843D01*
X0035086Y0223885D01*
X0035042Y0223925D01*
X0034996Y0223962D01*
X0034947Y0223996D01*
X0034896Y0224027D01*
X0034843Y0224054D01*
X0034788Y0224078D01*
X0034967Y0226211D02*
X0034859Y0226258D01*
X0034749Y0226301D01*
X0034638Y0226342D01*
X0034526Y0226379D01*
X0034414Y0226413D01*
X0034300Y0226444D01*
X0034185Y0226471D01*
X0034069Y0226495D01*
X0033953Y0226515D01*
X0033837Y0226532D01*
X0033720Y0226546D01*
X0033602Y0226556D01*
X0033485Y0226563D01*
X0033367Y0226567D01*
X0057723Y0228344D02*
X0058078Y0228344D01*
X0058078Y0228700D01*
X0057723Y0228700D01*
X0057723Y0228344D01*
D12*
X0137713Y0158350D03*
D13*
X0137725Y0158375D03*
X0108225Y0169250D03*
X0138600Y0193200D03*
D14*
X0137763Y0158400D03*
X0120562Y0159300D03*
D15*
X0108275Y0169125D03*
X0137800Y0158425D03*
D16*
X0137838Y0158450D03*
D17*
X0137863Y0158475D03*
X0137938Y0161425D03*
X0137988Y0161600D03*
X0138038Y0161775D03*
X0138063Y0161850D03*
X0138138Y0162100D03*
X0138163Y0162175D03*
X0138213Y0162350D03*
X0138238Y0162425D03*
X0138263Y0162500D03*
X0138288Y0162575D03*
X0138313Y0162650D03*
X0138313Y0162675D03*
X0138338Y0162750D03*
X0138363Y0162800D03*
X0138363Y0162825D03*
X0138388Y0162900D03*
X0138413Y0162975D03*
X0138438Y0163050D03*
X0138438Y0163075D03*
X0138463Y0163125D03*
X0138488Y0163225D03*
X0138513Y0163300D03*
X0138538Y0163375D03*
X0138563Y0163450D03*
X0138588Y0163525D03*
X0138638Y0163700D03*
X0138663Y0163775D03*
X0138688Y0163850D03*
X0138738Y0164025D03*
X0138763Y0164100D03*
X0138863Y0164425D03*
X0138888Y0164500D03*
X0143213Y0163900D03*
X0143288Y0164075D03*
X0143313Y0164125D03*
X0143313Y0164150D03*
X0143338Y0164200D03*
X0143338Y0164225D03*
X0143363Y0164250D03*
X0143363Y0164275D03*
X0143388Y0164325D03*
X0143388Y0164350D03*
X0143413Y0164375D03*
X0143413Y0164400D03*
X0143413Y0164425D03*
X0143438Y0164450D03*
X0143438Y0164475D03*
X0143463Y0164525D03*
X0143463Y0164550D03*
X0143488Y0164600D03*
X0143488Y0164625D03*
X0143513Y0164675D03*
X0143538Y0164750D03*
X0143563Y0164825D03*
X0143588Y0164900D03*
X0143813Y0169225D03*
X0143788Y0169300D03*
X0143763Y0169375D03*
X0143763Y0169400D03*
X0143738Y0169425D03*
X0143738Y0169450D03*
X0143713Y0169500D03*
X0143713Y0169525D03*
X0143688Y0169575D03*
X0140063Y0176225D03*
X0140138Y0176400D03*
X0140188Y0176525D03*
X0140213Y0176575D03*
X0140263Y0176700D03*
X0140288Y0176750D03*
X0140313Y0176825D03*
X0140338Y0176875D03*
X0140363Y0176925D03*
X0140363Y0176950D03*
X0140388Y0176975D03*
X0140388Y0177000D03*
X0140413Y0177050D03*
X0140438Y0177100D03*
X0140438Y0177125D03*
X0140463Y0177175D03*
X0140463Y0177200D03*
X0140488Y0177225D03*
X0140488Y0177250D03*
X0140488Y0177275D03*
X0140513Y0177300D03*
X0140513Y0177325D03*
X0140538Y0177350D03*
X0140538Y0177375D03*
X0140538Y0177400D03*
X0140563Y0177425D03*
X0140563Y0177450D03*
X0140588Y0177475D03*
X0140588Y0177500D03*
X0140588Y0177525D03*
X0140613Y0177550D03*
X0140613Y0177575D03*
X0140638Y0177625D03*
X0140638Y0177650D03*
X0140663Y0177675D03*
X0140663Y0177700D03*
X0140663Y0177725D03*
X0140688Y0177750D03*
X0140688Y0177775D03*
X0140713Y0177800D03*
X0140713Y0177825D03*
X0140713Y0177850D03*
X0140738Y0177875D03*
X0140738Y0177900D03*
X0140763Y0177950D03*
X0140763Y0177975D03*
X0140788Y0178025D03*
X0140788Y0178050D03*
X0140813Y0178100D03*
X0140838Y0178150D03*
X0140838Y0178175D03*
X0140863Y0178225D03*
X0140863Y0178250D03*
X0140888Y0178300D03*
X0140913Y0178375D03*
X0140938Y0178450D03*
X0140963Y0178525D03*
X0140988Y0178600D03*
X0141013Y0178675D03*
X0133463Y0183300D03*
X0133513Y0183425D03*
X0133563Y0183550D03*
X0133588Y0183600D03*
X0133613Y0183675D03*
X0133638Y0183725D03*
X0133663Y0183800D03*
X0133688Y0183850D03*
X0133713Y0183925D03*
X0133738Y0183975D03*
X0133738Y0184000D03*
X0133763Y0184050D03*
X0133788Y0184100D03*
X0133788Y0184125D03*
X0133813Y0184175D03*
X0133838Y0184225D03*
X0133838Y0184250D03*
X0133863Y0184300D03*
X0133863Y0184325D03*
X0133888Y0184350D03*
X0133888Y0184375D03*
X0133913Y0184425D03*
X0133913Y0184450D03*
X0133938Y0184475D03*
X0133938Y0184500D03*
X0133938Y0184525D03*
X0133963Y0184550D03*
X0133963Y0184575D03*
X0133988Y0184625D03*
X0133988Y0184650D03*
X0134013Y0184700D03*
X0134013Y0184725D03*
X0134038Y0184750D03*
X0134038Y0184775D03*
X0134063Y0184825D03*
X0134063Y0184850D03*
X0134088Y0184875D03*
X0134088Y0184900D03*
X0134088Y0184925D03*
X0134113Y0184950D03*
X0134113Y0184975D03*
X0134113Y0185000D03*
X0134138Y0185025D03*
X0134138Y0185050D03*
X0134163Y0185100D03*
X0134163Y0185125D03*
X0134188Y0185150D03*
X0134188Y0185175D03*
X0134188Y0185200D03*
X0134213Y0185225D03*
X0134213Y0185250D03*
X0134238Y0185300D03*
X0134238Y0185325D03*
X0134263Y0185375D03*
X0134263Y0185400D03*
X0134288Y0185425D03*
X0134288Y0185450D03*
X0134288Y0185475D03*
X0134313Y0185500D03*
X0134313Y0185525D03*
X0134338Y0185575D03*
X0134338Y0185600D03*
X0134363Y0185650D03*
X0134363Y0185675D03*
X0134388Y0185725D03*
X0134388Y0185750D03*
X0134413Y0185800D03*
X0134438Y0185850D03*
X0134438Y0185875D03*
X0134463Y0185925D03*
X0134463Y0185950D03*
X0134488Y0186000D03*
X0134488Y0186025D03*
X0134513Y0186075D03*
X0134513Y0186100D03*
X0134538Y0186150D03*
X0134563Y0186225D03*
X0134588Y0186300D03*
X0134613Y0186375D03*
X0134638Y0186450D03*
X0134663Y0186525D03*
X0134688Y0186600D03*
X0134713Y0186675D03*
X0134738Y0186725D03*
X0134788Y0186875D03*
X0134813Y0186950D03*
X0134838Y0187025D03*
X0134863Y0187100D03*
X0134888Y0187175D03*
X0134913Y0187250D03*
X0134938Y0187325D03*
X0134988Y0187475D03*
X0135013Y0187525D03*
X0135013Y0187550D03*
X0135038Y0187625D03*
X0135063Y0187675D03*
X0135063Y0187700D03*
X0135088Y0187750D03*
X0135088Y0187775D03*
X0135113Y0187825D03*
X0135113Y0187850D03*
X0135138Y0187900D03*
X0135138Y0187925D03*
X0135163Y0187975D03*
X0135163Y0188000D03*
X0135188Y0188050D03*
X0135188Y0188075D03*
X0135213Y0188125D03*
X0135238Y0188175D03*
X0135238Y0188200D03*
X0135263Y0188250D03*
X0135263Y0188275D03*
X0135288Y0188325D03*
X0135288Y0188350D03*
X0135313Y0188400D03*
X0135313Y0188425D03*
X0135338Y0188475D03*
X0135338Y0188500D03*
X0135363Y0188525D03*
X0135363Y0188550D03*
X0135388Y0188600D03*
X0135388Y0188625D03*
X0135413Y0188675D03*
X0135413Y0188700D03*
X0135438Y0188750D03*
X0135438Y0188775D03*
X0135463Y0188825D03*
X0135463Y0188850D03*
X0135488Y0188875D03*
X0135488Y0188900D03*
X0135488Y0188925D03*
X0135513Y0188950D03*
X0135513Y0188975D03*
X0135538Y0189025D03*
X0135538Y0189050D03*
X0135563Y0189075D03*
X0135563Y0189100D03*
X0135563Y0189125D03*
X0135588Y0189150D03*
X0135588Y0189175D03*
X0135613Y0189225D03*
X0135613Y0189250D03*
X0135638Y0189275D03*
X0135638Y0189300D03*
X0135638Y0189325D03*
X0135663Y0189350D03*
X0135663Y0189375D03*
X0135688Y0189400D03*
X0135688Y0189425D03*
X0135688Y0189450D03*
X0135713Y0189475D03*
X0135713Y0189500D03*
X0135738Y0189550D03*
X0135763Y0189600D03*
X0135763Y0189625D03*
X0135788Y0189675D03*
X0135813Y0189750D03*
X0135838Y0189800D03*
X0135888Y0189925D03*
X0135963Y0190100D03*
X0141538Y0190075D03*
X0141563Y0190025D03*
X0141588Y0189950D03*
X0141613Y0189900D03*
X0141638Y0189850D03*
X0141638Y0189825D03*
X0141638Y0189800D03*
X0141663Y0189775D03*
X0141663Y0189750D03*
X0141688Y0189700D03*
X0141688Y0189675D03*
X0141713Y0189625D03*
X0141738Y0189575D03*
X0141738Y0189550D03*
X0141763Y0189475D03*
X0141788Y0189400D03*
X0141813Y0189325D03*
X0132063Y0175950D03*
X0132088Y0175850D03*
X0132088Y0175825D03*
X0132088Y0175800D03*
X0132088Y0175775D03*
X0132113Y0175725D03*
X0132113Y0175700D03*
X0132113Y0175675D03*
X0132113Y0175650D03*
X0132113Y0175625D03*
X0132138Y0175500D03*
X0132138Y0175475D03*
X0131813Y0172725D03*
X0131788Y0172650D03*
X0131763Y0172575D03*
X0131738Y0172525D03*
X0131738Y0172500D03*
X0131713Y0172450D03*
X0131713Y0172425D03*
X0127862Y0174125D03*
X0127862Y0174150D03*
X0127887Y0174200D03*
X0127887Y0174225D03*
X0127912Y0174250D03*
X0127912Y0174275D03*
X0127912Y0174300D03*
X0127937Y0174325D03*
X0127937Y0174350D03*
X0127962Y0174400D03*
X0127987Y0174450D03*
X0127987Y0174475D03*
X0128012Y0174525D03*
X0128012Y0174550D03*
X0128037Y0174600D03*
X0128037Y0174625D03*
X0128062Y0174675D03*
X0128062Y0174700D03*
X0127837Y0174075D03*
X0127812Y0174025D03*
X0127787Y0173975D03*
X0127787Y0173950D03*
X0127762Y0173900D03*
X0127712Y0173775D03*
X0127687Y0173725D03*
X0128137Y0177250D03*
X0128112Y0177300D03*
X0128112Y0177325D03*
X0128087Y0177375D03*
X0128087Y0177400D03*
X0128062Y0177450D03*
X0128062Y0177475D03*
X0128037Y0177525D03*
X0128012Y0177575D03*
X0119112Y0175675D03*
D18*
X0127487Y0173250D03*
X0131838Y0176825D03*
X0131813Y0176900D03*
X0131788Y0176950D03*
X0131788Y0176975D03*
X0131763Y0177025D03*
X0131763Y0177050D03*
X0131738Y0177100D03*
X0131713Y0177150D03*
X0131713Y0177175D03*
X0131688Y0177225D03*
X0131638Y0177350D03*
X0131738Y0179725D03*
X0131763Y0179750D03*
X0131763Y0179775D03*
X0131788Y0179800D03*
X0131813Y0179850D03*
X0131838Y0179900D03*
X0131863Y0179925D03*
X0131863Y0179950D03*
X0131888Y0179975D03*
X0131888Y0180000D03*
X0131913Y0180025D03*
X0131938Y0180075D03*
X0131963Y0180100D03*
X0131963Y0180125D03*
X0131988Y0180175D03*
X0132013Y0180200D03*
X0132013Y0180225D03*
X0132038Y0180250D03*
X0132038Y0180275D03*
X0132063Y0180300D03*
X0132088Y0180350D03*
X0132113Y0180400D03*
X0132138Y0180450D03*
X0132163Y0180500D03*
X0132188Y0180550D03*
X0132213Y0180600D03*
X0132238Y0180650D03*
X0127712Y0178225D03*
X0127712Y0178200D03*
X0127737Y0178175D03*
X0127762Y0178125D03*
X0127687Y0178250D03*
X0127662Y0178300D03*
X0136313Y0190825D03*
X0136338Y0190875D03*
X0136363Y0190925D03*
X0136388Y0190950D03*
X0136388Y0190975D03*
X0136413Y0191000D03*
X0136413Y0191025D03*
X0136438Y0191050D03*
X0136488Y0191125D03*
X0138588Y0193125D03*
X0141188Y0190775D03*
X0141213Y0190725D03*
X0141238Y0190700D03*
X0141238Y0190675D03*
X0141263Y0190650D03*
X0141263Y0190625D03*
X0141288Y0190600D03*
X0141313Y0190550D03*
X0143413Y0170150D03*
X0143438Y0170100D03*
X0143463Y0170075D03*
X0143463Y0170050D03*
X0143488Y0170000D03*
X0142763Y0162975D03*
X0142738Y0162925D03*
X0142713Y0162875D03*
X0142688Y0162825D03*
X0142663Y0162800D03*
X0142663Y0162775D03*
X0142638Y0162750D03*
X0142613Y0162700D03*
X0142588Y0162650D03*
X0142563Y0162625D03*
X0142538Y0162575D03*
X0137888Y0158500D03*
D19*
X0137925Y0158525D03*
X0141850Y0161575D03*
X0141925Y0161675D03*
X0141950Y0161700D03*
X0141975Y0161725D03*
X0141975Y0161750D03*
X0142000Y0161775D03*
X0142025Y0161800D03*
X0142075Y0161875D03*
X0143175Y0170525D03*
X0143150Y0170550D03*
X0143125Y0170575D03*
X0143125Y0170600D03*
X0143100Y0170625D03*
X0131000Y0178550D03*
X0127325Y0178825D03*
X0127300Y0178850D03*
X0127275Y0178900D03*
X0127250Y0178925D03*
X0127225Y0178950D03*
X0127175Y0179025D03*
X0127525Y0173200D03*
X0119125Y0175725D03*
X0108350Y0168975D03*
X0136725Y0191475D03*
X0136750Y0191500D03*
X0140875Y0191225D03*
X0140900Y0191200D03*
X0140925Y0191175D03*
D20*
X0140675Y0191475D03*
X0136925Y0191700D03*
X0136900Y0191675D03*
X0131000Y0178625D03*
X0126950Y0179300D03*
X0126925Y0179325D03*
X0126900Y0179350D03*
X0126875Y0179375D03*
X0124175Y0183125D03*
X0127550Y0173150D03*
X0141575Y0161250D03*
X0141475Y0161125D03*
X0141450Y0161100D03*
X0137950Y0158550D03*
X0142900Y0170875D03*
X0142875Y0170900D03*
X0142850Y0170925D03*
X0108375Y0168950D03*
D21*
X0126487Y0179800D03*
X0129612Y0180275D03*
X0129637Y0180250D03*
X0129662Y0180225D03*
X0129687Y0180200D03*
X0129712Y0180175D03*
X0140513Y0191625D03*
X0140488Y0191650D03*
X0138588Y0193075D03*
X0142638Y0171150D03*
X0141138Y0160775D03*
X0141113Y0160750D03*
X0137988Y0158575D03*
D22*
X0138025Y0158600D03*
X0140875Y0160550D03*
X0140900Y0160575D03*
X0142500Y0171275D03*
X0142475Y0171300D03*
X0131000Y0178775D03*
X0129475Y0180400D03*
X0129450Y0180425D03*
X0129425Y0180450D03*
X0129400Y0180475D03*
X0129375Y0180500D03*
X0126250Y0180000D03*
X0126225Y0180025D03*
X0126200Y0180050D03*
X0127600Y0173050D03*
X0116025Y0166350D03*
D23*
X0108412Y0168875D03*
X0127612Y0173000D03*
X0130987Y0178825D03*
X0129112Y0180725D03*
X0129087Y0180750D03*
X0126112Y0180125D03*
X0126087Y0180150D03*
X0126062Y0180175D03*
X0140313Y0191775D03*
X0142313Y0171425D03*
X0140763Y0160450D03*
X0140738Y0160425D03*
X0140713Y0160400D03*
X0138038Y0158625D03*
D24*
X0138063Y0158650D03*
X0140513Y0160250D03*
X0142163Y0171550D03*
X0130987Y0178900D03*
X0128812Y0180975D03*
X0125837Y0180350D03*
X0125812Y0180375D03*
X0127612Y0172950D03*
X0108437Y0168850D03*
D25*
X0124187Y0183100D03*
X0128687Y0181075D03*
X0128712Y0181050D03*
X0130987Y0178950D03*
X0142063Y0171625D03*
X0140413Y0160175D03*
X0140338Y0160125D03*
X0138088Y0158675D03*
D26*
X0138113Y0158700D03*
X0140188Y0160025D03*
X0136988Y0173800D03*
X0127637Y0172825D03*
X0128462Y0181225D03*
X0128437Y0181250D03*
X0140088Y0191900D03*
X0138613Y0193000D03*
D27*
X0128387Y0181275D03*
X0130962Y0179050D03*
X0127637Y0172800D03*
X0119187Y0175950D03*
X0141788Y0171800D03*
X0140113Y0159975D03*
X0138138Y0158725D03*
D28*
X0138163Y0158750D03*
X0141663Y0171875D03*
X0130962Y0179125D03*
X0127637Y0172725D03*
X0127637Y0172700D03*
D29*
X0127637Y0172675D03*
X0130962Y0179150D03*
X0141588Y0171925D03*
X0139938Y0159875D03*
X0138188Y0158775D03*
X0108512Y0168750D03*
D30*
X0127637Y0172575D03*
X0138213Y0158800D03*
D31*
X0138238Y0158825D03*
X0139738Y0159775D03*
X0119212Y0176075D03*
X0130937Y0179275D03*
X0138613Y0192925D03*
D32*
X0130937Y0179300D03*
X0127612Y0172475D03*
X0138263Y0158850D03*
X0108537Y0168700D03*
D33*
X0108550Y0168675D03*
X0119225Y0176150D03*
X0127600Y0172400D03*
X0130925Y0179350D03*
X0127825Y0181550D03*
X0138275Y0158875D03*
D34*
X0138300Y0158900D03*
X0127600Y0172350D03*
X0127600Y0172375D03*
X0122725Y0168525D03*
X0130925Y0179400D03*
X0138625Y0192875D03*
D35*
X0130925Y0179425D03*
X0127575Y0172300D03*
X0122675Y0168500D03*
X0119250Y0176225D03*
X0108575Y0168650D03*
X0138325Y0158925D03*
D36*
X0138338Y0158950D03*
X0127562Y0172225D03*
X0122512Y0168425D03*
X0119262Y0176250D03*
X0108587Y0168625D03*
X0130912Y0179475D03*
D37*
X0130912Y0179500D03*
X0130912Y0179525D03*
X0127537Y0172150D03*
X0122412Y0168375D03*
X0138363Y0158975D03*
D38*
X0138375Y0159000D03*
X0122350Y0168350D03*
X0119275Y0176300D03*
X0138625Y0192825D03*
D39*
X0130900Y0179575D03*
X0127525Y0172075D03*
X0122300Y0168325D03*
X0119275Y0176325D03*
X0108800Y0165650D03*
X0108875Y0165575D03*
X0138400Y0159025D03*
D40*
X0138425Y0159050D03*
X0127500Y0172000D03*
X0130900Y0179600D03*
X0124175Y0183025D03*
X0119300Y0176375D03*
X0108950Y0165525D03*
D41*
X0109025Y0165475D03*
X0108625Y0168575D03*
X0119300Y0176400D03*
X0122175Y0168275D03*
X0127475Y0171925D03*
X0127475Y0171950D03*
X0138450Y0159075D03*
X0138625Y0192775D03*
D42*
X0138638Y0192750D03*
X0119312Y0176450D03*
X0121987Y0168200D03*
X0127437Y0171825D03*
X0127437Y0171850D03*
X0138463Y0159100D03*
X0109087Y0165425D03*
X0108812Y0165750D03*
D43*
X0108812Y0165775D03*
X0109162Y0165375D03*
X0119337Y0176500D03*
X0127412Y0171775D03*
X0127387Y0171725D03*
X0138488Y0159125D03*
D44*
X0138500Y0159150D03*
X0127375Y0171700D03*
X0127400Y0171750D03*
X0121850Y0168150D03*
X0109200Y0165350D03*
X0108825Y0165800D03*
X0138625Y0192725D03*
D45*
X0124200Y0183000D03*
X0119350Y0176550D03*
X0121800Y0168125D03*
X0127350Y0171650D03*
X0138525Y0159175D03*
X0108825Y0165825D03*
X0108675Y0168525D03*
D46*
X0109262Y0165300D03*
X0119362Y0176575D03*
X0127337Y0171625D03*
X0127337Y0171600D03*
X0138538Y0159200D03*
X0138638Y0192700D03*
D47*
X0119362Y0176600D03*
X0127287Y0171525D03*
X0138563Y0159225D03*
X0109337Y0165250D03*
D48*
X0109412Y0165200D03*
X0119387Y0176650D03*
X0127237Y0171450D03*
X0127237Y0171425D03*
X0127262Y0171475D03*
X0138588Y0159250D03*
D49*
X0138613Y0159275D03*
X0127187Y0171350D03*
X0127212Y0171375D03*
X0121587Y0168050D03*
X0119387Y0176675D03*
X0119387Y0176700D03*
X0108837Y0165925D03*
X0109487Y0165150D03*
X0138638Y0192650D03*
D50*
X0124200Y0182975D03*
X0119400Y0176725D03*
X0127175Y0171325D03*
X0138625Y0159300D03*
X0108725Y0168475D03*
D51*
X0119162Y0175850D03*
X0125937Y0180275D03*
X0125962Y0180250D03*
X0128912Y0180900D03*
X0128937Y0180875D03*
X0128962Y0180850D03*
X0130987Y0178875D03*
X0127612Y0172975D03*
X0120537Y0159325D03*
X0140588Y0160300D03*
X0140613Y0160325D03*
X0140238Y0191825D03*
D52*
X0127150Y0171275D03*
X0119425Y0176775D03*
X0109575Y0165100D03*
X0138650Y0159325D03*
D53*
X0139563Y0159700D03*
X0120537Y0159350D03*
X0116037Y0166375D03*
X0119237Y0176175D03*
X0124187Y0183050D03*
X0130937Y0179375D03*
D54*
X0127112Y0171225D03*
X0127112Y0171200D03*
X0127087Y0171175D03*
X0121437Y0168000D03*
X0108837Y0165975D03*
X0138663Y0159350D03*
D55*
X0127362Y0171675D03*
X0119337Y0176525D03*
X0109237Y0165325D03*
X0120512Y0159375D03*
D56*
X0127037Y0171100D03*
X0119437Y0176825D03*
X0138688Y0159375D03*
D57*
X0138750Y0159475D03*
X0126875Y0170875D03*
X0126850Y0170850D03*
X0121200Y0167925D03*
X0120525Y0159400D03*
X0108850Y0166075D03*
D58*
X0109675Y0165025D03*
X0121350Y0167975D03*
X0127000Y0171050D03*
X0127025Y0171075D03*
X0119450Y0176850D03*
X0138650Y0192575D03*
X0138700Y0159400D03*
D59*
X0126075Y0170000D03*
X0126050Y0169975D03*
X0126025Y0169950D03*
X0119675Y0177400D03*
X0119675Y0177425D03*
X0108875Y0168325D03*
X0120525Y0159425D03*
X0137500Y0173725D03*
D60*
X0126987Y0171025D03*
X0126962Y0171000D03*
X0119462Y0176875D03*
X0119462Y0176900D03*
X0108837Y0166050D03*
X0108837Y0166025D03*
X0138713Y0159425D03*
D61*
X0124762Y0169050D03*
X0124712Y0169025D03*
X0124662Y0169000D03*
X0124587Y0168950D03*
X0124487Y0168900D03*
X0124087Y0168725D03*
X0124037Y0168700D03*
X0123912Y0168650D03*
X0119887Y0177875D03*
X0108887Y0166525D03*
X0110387Y0164725D03*
X0120512Y0159450D03*
X0138688Y0192175D03*
D62*
X0138663Y0192550D03*
X0124212Y0182950D03*
X0119487Y0176950D03*
X0126887Y0170900D03*
X0126912Y0170925D03*
X0138738Y0159450D03*
X0108762Y0168425D03*
D63*
X0108900Y0166775D03*
X0120525Y0159475D03*
X0137075Y0173525D03*
X0120225Y0178500D03*
X0120200Y0178450D03*
X0138700Y0191950D03*
D64*
X0120600Y0179075D03*
X0120575Y0179050D03*
X0109150Y0168100D03*
X0120525Y0159500D03*
D65*
X0126775Y0170750D03*
X0126800Y0170775D03*
X0119500Y0177000D03*
X0138650Y0192525D03*
X0138775Y0159500D03*
D66*
X0120512Y0159525D03*
X0120937Y0179550D03*
X0120962Y0179575D03*
D67*
X0119512Y0177025D03*
X0121112Y0167900D03*
X0126737Y0170700D03*
X0126762Y0170725D03*
X0138788Y0159525D03*
X0108837Y0166125D03*
D68*
X0115975Y0166550D03*
X0120525Y0159550D03*
X0121350Y0180050D03*
D69*
X0119525Y0177050D03*
X0126700Y0170650D03*
X0126725Y0170675D03*
X0116025Y0166425D03*
X0109850Y0164950D03*
X0108850Y0166150D03*
X0108800Y0168400D03*
X0138800Y0159550D03*
X0138650Y0192500D03*
D70*
X0124362Y0182575D03*
X0109387Y0167950D03*
X0115962Y0166575D03*
X0120512Y0159575D03*
D71*
X0121025Y0167875D03*
X0126625Y0170550D03*
X0126650Y0170575D03*
X0119550Y0177125D03*
X0108850Y0166175D03*
X0109900Y0164925D03*
X0138825Y0159575D03*
X0138650Y0192475D03*
D72*
X0120525Y0159600D03*
D73*
X0126587Y0170525D03*
X0119562Y0177150D03*
X0124212Y0182925D03*
X0138838Y0159600D03*
D74*
X0120512Y0159625D03*
X0122612Y0181150D03*
X0122987Y0181525D03*
D75*
X0119575Y0177175D03*
X0126525Y0170450D03*
X0126550Y0170475D03*
X0126575Y0170500D03*
X0138850Y0159625D03*
X0108850Y0166200D03*
X0108825Y0168375D03*
D76*
X0111950Y0164300D03*
X0120525Y0159650D03*
X0137150Y0173200D03*
X0122625Y0181050D03*
D77*
X0119587Y0177200D03*
X0120937Y0167850D03*
X0126437Y0170350D03*
X0126462Y0170375D03*
X0126487Y0170400D03*
X0126512Y0170425D03*
X0138863Y0159650D03*
X0109962Y0164900D03*
X0138663Y0192450D03*
D78*
X0124375Y0182325D03*
X0122650Y0180925D03*
X0120525Y0159675D03*
D79*
X0110012Y0164875D03*
X0119612Y0177275D03*
X0126412Y0170325D03*
X0126387Y0170300D03*
X0126362Y0170275D03*
X0137588Y0173750D03*
X0138888Y0159675D03*
X0138663Y0192425D03*
D80*
X0122675Y0180825D03*
X0137175Y0173100D03*
X0120525Y0159700D03*
D81*
X0137538Y0159700D03*
X0137563Y0159875D03*
X0137563Y0159900D03*
X0137588Y0160000D03*
X0137588Y0160025D03*
X0137588Y0160050D03*
X0137613Y0160125D03*
X0137613Y0160150D03*
X0137613Y0160175D03*
X0137613Y0160200D03*
X0137638Y0160225D03*
X0137638Y0160250D03*
X0137638Y0160275D03*
X0137638Y0160300D03*
X0137638Y0160325D03*
X0137663Y0160350D03*
X0137663Y0160375D03*
X0137663Y0160400D03*
X0137663Y0160425D03*
X0137688Y0160475D03*
X0137688Y0160500D03*
X0137713Y0160575D03*
X0137713Y0160600D03*
X0137713Y0160625D03*
X0137738Y0160700D03*
X0137763Y0160800D03*
X0137788Y0160875D03*
X0137788Y0160900D03*
X0137813Y0160975D03*
X0137838Y0161075D03*
X0138938Y0164675D03*
X0139013Y0164925D03*
X0139063Y0165100D03*
X0139088Y0165200D03*
X0139113Y0165275D03*
X0139138Y0165350D03*
X0139138Y0165375D03*
X0139163Y0165450D03*
X0139163Y0165475D03*
X0139188Y0165550D03*
X0139213Y0165650D03*
X0139238Y0165725D03*
X0139238Y0165750D03*
X0139263Y0165825D03*
X0139288Y0165900D03*
X0139288Y0165925D03*
X0139313Y0166000D03*
X0139313Y0166025D03*
X0139313Y0166050D03*
X0139338Y0166100D03*
X0139338Y0166125D03*
X0139338Y0166150D03*
X0139363Y0166175D03*
X0139363Y0166200D03*
X0139363Y0166225D03*
X0139388Y0166275D03*
X0139388Y0166300D03*
X0139388Y0166325D03*
X0139388Y0166350D03*
X0139413Y0166375D03*
X0139413Y0166400D03*
X0139413Y0166425D03*
X0139413Y0166450D03*
X0139438Y0166475D03*
X0139438Y0166500D03*
X0139438Y0166525D03*
X0139438Y0166550D03*
X0139463Y0166575D03*
X0139463Y0166600D03*
X0139463Y0166625D03*
X0139463Y0166650D03*
X0139463Y0166675D03*
X0139488Y0166700D03*
X0139488Y0166725D03*
X0139488Y0166750D03*
X0139488Y0166775D03*
X0139513Y0166800D03*
X0139513Y0166825D03*
X0139513Y0166850D03*
X0139513Y0166875D03*
X0139538Y0166925D03*
X0139538Y0166950D03*
X0139538Y0166975D03*
X0139538Y0167000D03*
X0139563Y0167050D03*
X0139563Y0167075D03*
X0139563Y0167100D03*
X0139588Y0167175D03*
X0139588Y0167200D03*
X0139613Y0167275D03*
X0139613Y0167300D03*
X0139613Y0167325D03*
X0139638Y0167425D03*
X0139638Y0167450D03*
X0139663Y0167550D03*
X0139663Y0167575D03*
X0139663Y0167600D03*
X0139688Y0167675D03*
X0139688Y0167700D03*
X0139688Y0167725D03*
X0139713Y0167825D03*
X0139713Y0167850D03*
X0139738Y0167975D03*
X0139738Y0168000D03*
X0143888Y0168900D03*
X0143888Y0168925D03*
X0143888Y0168950D03*
X0143888Y0168975D03*
X0143863Y0169025D03*
X0143863Y0169050D03*
X0143838Y0169125D03*
X0143913Y0168875D03*
X0143913Y0168850D03*
X0143913Y0168825D03*
X0143913Y0168800D03*
X0143938Y0168750D03*
X0143938Y0168725D03*
X0143938Y0168700D03*
X0143938Y0168675D03*
X0143963Y0168600D03*
X0143963Y0168575D03*
X0143963Y0168550D03*
X0143988Y0168425D03*
X0143988Y0168400D03*
X0144013Y0168200D03*
X0143988Y0166700D03*
X0143963Y0166525D03*
X0143963Y0166500D03*
X0143938Y0166375D03*
X0143938Y0166350D03*
X0143938Y0166325D03*
X0143913Y0166225D03*
X0143913Y0166200D03*
X0143888Y0166100D03*
X0143888Y0166075D03*
X0143888Y0166050D03*
X0143863Y0165975D03*
X0143863Y0165950D03*
X0143863Y0165925D03*
X0143838Y0165875D03*
X0143838Y0165850D03*
X0143838Y0165825D03*
X0143838Y0165800D03*
X0143813Y0165775D03*
X0143813Y0165750D03*
X0143813Y0165725D03*
X0143813Y0165700D03*
X0143813Y0165675D03*
X0143788Y0165650D03*
X0143788Y0165625D03*
X0143788Y0165600D03*
X0143788Y0165575D03*
X0143763Y0165550D03*
X0143763Y0165525D03*
X0143763Y0165500D03*
X0143738Y0165450D03*
X0143738Y0165425D03*
X0143738Y0165400D03*
X0143713Y0165350D03*
X0143713Y0165325D03*
X0143713Y0165300D03*
X0143688Y0165250D03*
X0143688Y0165225D03*
X0143663Y0165150D03*
X0131863Y0172875D03*
X0131888Y0172950D03*
X0131913Y0173025D03*
X0131938Y0173100D03*
X0131938Y0173125D03*
X0131963Y0173175D03*
X0131963Y0173200D03*
X0131963Y0173225D03*
X0131988Y0173275D03*
X0131988Y0173300D03*
X0131988Y0173325D03*
X0132013Y0173375D03*
X0132013Y0173400D03*
X0132013Y0173425D03*
X0132038Y0173475D03*
X0132038Y0173500D03*
X0132038Y0173525D03*
X0132063Y0173600D03*
X0132063Y0173625D03*
X0132063Y0173650D03*
X0132088Y0173750D03*
X0132088Y0173775D03*
X0132113Y0173900D03*
X0132113Y0173925D03*
X0132113Y0173950D03*
X0132138Y0174100D03*
X0132138Y0174125D03*
X0132163Y0174325D03*
X0132163Y0174350D03*
X0132163Y0174375D03*
X0132163Y0174400D03*
X0132163Y0174425D03*
X0132163Y0174450D03*
X0132163Y0174475D03*
X0132188Y0174800D03*
X0132188Y0174825D03*
X0132163Y0175050D03*
X0132163Y0175075D03*
X0132163Y0175100D03*
X0132163Y0175125D03*
X0132163Y0175150D03*
X0132163Y0175175D03*
X0132163Y0175200D03*
X0132163Y0175225D03*
X0132163Y0175250D03*
X0128312Y0175600D03*
X0128312Y0175625D03*
X0128287Y0175500D03*
X0128287Y0175475D03*
X0128287Y0175450D03*
X0128262Y0175400D03*
X0128262Y0175375D03*
X0128262Y0175350D03*
X0128262Y0175325D03*
X0128237Y0175275D03*
X0128237Y0175250D03*
X0128212Y0175175D03*
X0128187Y0175075D03*
X0128312Y0176450D03*
X0128312Y0176475D03*
X0128287Y0176600D03*
X0128287Y0176625D03*
X0128287Y0176650D03*
X0128262Y0176725D03*
X0128262Y0176750D03*
X0128262Y0176775D03*
X0128262Y0176800D03*
X0128237Y0176850D03*
X0128237Y0176875D03*
X0128237Y0176900D03*
X0128237Y0176925D03*
X0128212Y0176950D03*
X0128212Y0176975D03*
X0128212Y0177000D03*
X0128187Y0177075D03*
X0141163Y0179125D03*
X0141188Y0179200D03*
X0141213Y0179275D03*
X0141263Y0179450D03*
X0141288Y0179525D03*
X0141313Y0179600D03*
X0141338Y0179700D03*
X0141363Y0179775D03*
X0141363Y0179800D03*
X0141388Y0179850D03*
X0141388Y0179875D03*
X0141413Y0179950D03*
X0141438Y0180025D03*
X0141438Y0180050D03*
X0141463Y0180125D03*
X0141463Y0180150D03*
X0141488Y0180200D03*
X0141488Y0180225D03*
X0141488Y0180250D03*
X0141513Y0180275D03*
X0141513Y0180300D03*
X0141513Y0180325D03*
X0141538Y0180375D03*
X0141538Y0180400D03*
X0141538Y0180425D03*
X0141563Y0180475D03*
X0141563Y0180500D03*
X0141563Y0180525D03*
X0141588Y0180575D03*
X0141588Y0180600D03*
X0141588Y0180625D03*
X0141613Y0180675D03*
X0141613Y0180700D03*
X0141613Y0180725D03*
X0141638Y0180750D03*
X0141638Y0180775D03*
X0141638Y0180800D03*
X0141638Y0180825D03*
X0141663Y0180850D03*
X0141663Y0180875D03*
X0141663Y0180900D03*
X0141663Y0180925D03*
X0141688Y0180950D03*
X0141688Y0180975D03*
X0141688Y0181000D03*
X0141688Y0181025D03*
X0141713Y0181075D03*
X0141713Y0181100D03*
X0141713Y0181125D03*
X0141738Y0181175D03*
X0141738Y0181200D03*
X0141738Y0181225D03*
X0141763Y0181275D03*
X0141763Y0181300D03*
X0141763Y0181325D03*
X0141763Y0181350D03*
X0141788Y0181400D03*
X0141788Y0181425D03*
X0141788Y0181450D03*
X0141813Y0181500D03*
X0141813Y0181525D03*
X0141813Y0181550D03*
X0141838Y0181625D03*
X0141838Y0181650D03*
X0141838Y0181675D03*
X0141863Y0181750D03*
X0141863Y0181775D03*
X0141863Y0181800D03*
X0141888Y0181875D03*
X0141888Y0181900D03*
X0141888Y0181925D03*
X0141913Y0182000D03*
X0141913Y0182025D03*
X0141913Y0182050D03*
X0141938Y0182150D03*
X0141938Y0182175D03*
X0141963Y0182275D03*
X0141963Y0182300D03*
X0141988Y0182425D03*
X0141988Y0182450D03*
X0142013Y0182575D03*
X0142013Y0182600D03*
X0142038Y0182725D03*
X0142063Y0182875D03*
X0142088Y0183050D03*
X0142113Y0183225D03*
X0142213Y0187275D03*
X0142188Y0187475D03*
X0142188Y0187500D03*
X0142188Y0187525D03*
X0142163Y0187675D03*
X0142163Y0187700D03*
X0142138Y0187850D03*
X0142138Y0187875D03*
X0142113Y0188000D03*
X0142113Y0188025D03*
X0142113Y0188050D03*
X0142088Y0188150D03*
X0142088Y0188175D03*
X0142088Y0188200D03*
X0142063Y0188275D03*
X0142063Y0188300D03*
X0142063Y0188325D03*
X0142063Y0188350D03*
X0142038Y0188400D03*
X0142038Y0188425D03*
X0142038Y0188450D03*
X0142038Y0188475D03*
X0142013Y0188500D03*
X0142013Y0188525D03*
X0142013Y0188550D03*
X0142013Y0188575D03*
X0141988Y0188625D03*
X0141988Y0188650D03*
X0141988Y0188675D03*
X0141988Y0188700D03*
X0141963Y0188725D03*
X0141963Y0188750D03*
X0141963Y0188775D03*
X0141963Y0188800D03*
X0141938Y0188850D03*
X0141938Y0188875D03*
X0141913Y0188950D03*
X0141913Y0188975D03*
X0141888Y0189050D03*
X0141863Y0189150D03*
D82*
X0122700Y0180725D03*
X0137175Y0173050D03*
X0120525Y0159725D03*
D83*
X0137550Y0159725D03*
X0137550Y0159750D03*
X0137550Y0159775D03*
X0137550Y0159800D03*
X0137550Y0159825D03*
X0137550Y0159850D03*
X0137575Y0159925D03*
X0137575Y0159950D03*
X0137575Y0159975D03*
X0137600Y0160075D03*
X0137600Y0160100D03*
X0139525Y0166900D03*
X0139550Y0167025D03*
X0139575Y0167125D03*
X0139575Y0167150D03*
X0139600Y0167225D03*
X0139600Y0167250D03*
X0139625Y0167350D03*
X0139625Y0167375D03*
X0139625Y0167400D03*
X0139650Y0167475D03*
X0139650Y0167500D03*
X0139650Y0167525D03*
X0139675Y0167625D03*
X0139675Y0167650D03*
X0139700Y0167750D03*
X0139700Y0167775D03*
X0139700Y0167800D03*
X0139725Y0167875D03*
X0139725Y0167900D03*
X0139725Y0167925D03*
X0139725Y0167950D03*
X0139750Y0168025D03*
X0139750Y0168050D03*
X0139750Y0168075D03*
X0139750Y0168100D03*
X0139750Y0168125D03*
X0139750Y0168150D03*
X0139775Y0168175D03*
X0139775Y0168200D03*
X0139775Y0168225D03*
X0139775Y0168250D03*
X0139775Y0168275D03*
X0139775Y0168300D03*
X0139800Y0168325D03*
X0139800Y0168350D03*
X0139800Y0168375D03*
X0139800Y0168400D03*
X0139800Y0168425D03*
X0139800Y0168450D03*
X0139800Y0168475D03*
X0139800Y0168500D03*
X0139825Y0168525D03*
X0139825Y0168550D03*
X0139825Y0168575D03*
X0139825Y0168600D03*
X0139825Y0168625D03*
X0139825Y0168650D03*
X0139825Y0168675D03*
X0139850Y0168750D03*
X0139850Y0168775D03*
X0139850Y0168800D03*
X0139850Y0168825D03*
X0139850Y0168850D03*
X0139850Y0168875D03*
X0139850Y0168900D03*
X0139850Y0168925D03*
X0139875Y0169025D03*
X0139875Y0169050D03*
X0139875Y0169075D03*
X0139875Y0169100D03*
X0139875Y0169125D03*
X0139875Y0169150D03*
X0139875Y0169175D03*
X0139875Y0169200D03*
X0143925Y0168775D03*
X0143950Y0168650D03*
X0143950Y0168625D03*
X0143975Y0168525D03*
X0143975Y0168500D03*
X0143975Y0168475D03*
X0143975Y0168450D03*
X0144000Y0168375D03*
X0144000Y0168350D03*
X0144000Y0168325D03*
X0144000Y0168300D03*
X0144000Y0168275D03*
X0144000Y0168250D03*
X0144000Y0168225D03*
X0144025Y0168175D03*
X0144025Y0168150D03*
X0144025Y0168125D03*
X0144025Y0168100D03*
X0144025Y0168075D03*
X0144025Y0168050D03*
X0144025Y0168025D03*
X0144025Y0168000D03*
X0144025Y0167975D03*
X0144025Y0167950D03*
X0144050Y0167900D03*
X0144050Y0167875D03*
X0144050Y0167850D03*
X0144050Y0167825D03*
X0144050Y0167800D03*
X0144050Y0167775D03*
X0144050Y0167750D03*
X0144050Y0167725D03*
X0144050Y0167700D03*
X0144050Y0167675D03*
X0144050Y0167650D03*
X0144050Y0167625D03*
X0144050Y0167600D03*
X0144050Y0167575D03*
X0144050Y0167550D03*
X0144050Y0167525D03*
X0144050Y0167500D03*
X0144050Y0167475D03*
X0144050Y0167450D03*
X0144050Y0167425D03*
X0144050Y0167400D03*
X0144050Y0167375D03*
X0144050Y0167350D03*
X0144050Y0167325D03*
X0144025Y0167200D03*
X0144025Y0167175D03*
X0144025Y0167150D03*
X0144025Y0167125D03*
X0144025Y0167100D03*
X0144025Y0167075D03*
X0144025Y0167050D03*
X0144025Y0167025D03*
X0144025Y0167000D03*
X0144025Y0166975D03*
X0144025Y0166950D03*
X0144000Y0166900D03*
X0144000Y0166875D03*
X0144000Y0166850D03*
X0144000Y0166825D03*
X0144000Y0166800D03*
X0144000Y0166775D03*
X0144000Y0166750D03*
X0144000Y0166725D03*
X0143975Y0166675D03*
X0143975Y0166650D03*
X0143975Y0166625D03*
X0143975Y0166600D03*
X0143975Y0166575D03*
X0143975Y0166550D03*
X0143950Y0166475D03*
X0143950Y0166450D03*
X0143950Y0166425D03*
X0143950Y0166400D03*
X0143925Y0166300D03*
X0143925Y0166275D03*
X0143925Y0166250D03*
X0143900Y0166175D03*
X0143900Y0166150D03*
X0143900Y0166125D03*
X0143875Y0166025D03*
X0143875Y0166000D03*
X0143850Y0165900D03*
X0137000Y0173850D03*
X0132150Y0174150D03*
X0132150Y0174175D03*
X0132150Y0174200D03*
X0132150Y0174225D03*
X0132150Y0174250D03*
X0132150Y0174275D03*
X0132150Y0174300D03*
X0132175Y0174500D03*
X0132175Y0174525D03*
X0132175Y0174550D03*
X0132175Y0174575D03*
X0132175Y0174600D03*
X0132175Y0174625D03*
X0132175Y0174650D03*
X0132175Y0174675D03*
X0132175Y0174700D03*
X0132175Y0174725D03*
X0132175Y0174750D03*
X0132175Y0174775D03*
X0132125Y0174075D03*
X0132125Y0174050D03*
X0132125Y0174025D03*
X0132125Y0174000D03*
X0132125Y0173975D03*
X0132100Y0173875D03*
X0132100Y0173850D03*
X0132100Y0173825D03*
X0132100Y0173800D03*
X0132075Y0173725D03*
X0132075Y0173700D03*
X0132075Y0173675D03*
X0132050Y0173575D03*
X0132050Y0173550D03*
X0132025Y0173450D03*
X0132000Y0173350D03*
X0131975Y0173250D03*
X0128275Y0175425D03*
X0128300Y0175525D03*
X0128300Y0175550D03*
X0128300Y0175575D03*
X0128325Y0175650D03*
X0128325Y0175675D03*
X0128325Y0175700D03*
X0128325Y0175725D03*
X0128325Y0175750D03*
X0128325Y0175775D03*
X0128325Y0175800D03*
X0128325Y0175825D03*
X0128350Y0176000D03*
X0128350Y0176025D03*
X0128350Y0176050D03*
X0128325Y0176175D03*
X0128325Y0176200D03*
X0128325Y0176225D03*
X0128325Y0176250D03*
X0128325Y0176275D03*
X0128325Y0176300D03*
X0128325Y0176325D03*
X0128325Y0176350D03*
X0128325Y0176375D03*
X0128325Y0176400D03*
X0128325Y0176425D03*
X0128300Y0176500D03*
X0128300Y0176525D03*
X0128300Y0176550D03*
X0128300Y0176575D03*
X0128275Y0176675D03*
X0128275Y0176700D03*
X0128250Y0176825D03*
X0141700Y0181050D03*
X0141725Y0181150D03*
X0141750Y0181250D03*
X0141775Y0181375D03*
X0141800Y0181475D03*
X0141825Y0181575D03*
X0141825Y0181600D03*
X0141850Y0181700D03*
X0141850Y0181725D03*
X0141875Y0181825D03*
X0141875Y0181850D03*
X0141900Y0181950D03*
X0141900Y0181975D03*
X0141925Y0182075D03*
X0141925Y0182100D03*
X0141925Y0182125D03*
X0141950Y0182200D03*
X0141950Y0182225D03*
X0141950Y0182250D03*
X0141975Y0182325D03*
X0141975Y0182350D03*
X0141975Y0182375D03*
X0141975Y0182400D03*
X0142000Y0182475D03*
X0142000Y0182500D03*
X0142000Y0182525D03*
X0142000Y0182550D03*
X0142025Y0182625D03*
X0142025Y0182650D03*
X0142025Y0182675D03*
X0142025Y0182700D03*
X0142050Y0182750D03*
X0142050Y0182775D03*
X0142050Y0182800D03*
X0142050Y0182825D03*
X0142050Y0182850D03*
X0142075Y0182900D03*
X0142075Y0182925D03*
X0142075Y0182950D03*
X0142075Y0182975D03*
X0142075Y0183000D03*
X0142075Y0183025D03*
X0142100Y0183075D03*
X0142100Y0183100D03*
X0142100Y0183125D03*
X0142100Y0183150D03*
X0142100Y0183175D03*
X0142100Y0183200D03*
X0142125Y0183250D03*
X0142125Y0183275D03*
X0142125Y0183300D03*
X0142125Y0183325D03*
X0142125Y0183350D03*
X0142125Y0183375D03*
X0142125Y0183400D03*
X0142150Y0183425D03*
X0142150Y0183450D03*
X0142150Y0183475D03*
X0142150Y0183500D03*
X0142150Y0183525D03*
X0142150Y0183550D03*
X0142150Y0183575D03*
X0142150Y0183600D03*
X0142175Y0183650D03*
X0142175Y0183675D03*
X0142175Y0183700D03*
X0142175Y0183725D03*
X0142175Y0183750D03*
X0142175Y0183775D03*
X0142175Y0183800D03*
X0142175Y0183825D03*
X0142200Y0183875D03*
X0142200Y0183900D03*
X0142200Y0183925D03*
X0142200Y0183950D03*
X0142200Y0183975D03*
X0142200Y0184000D03*
X0142200Y0184025D03*
X0142200Y0184050D03*
X0142225Y0184100D03*
X0142225Y0184125D03*
X0142225Y0184150D03*
X0142225Y0184175D03*
X0142225Y0184200D03*
X0142225Y0184225D03*
X0142225Y0184250D03*
X0142225Y0184275D03*
X0142225Y0184300D03*
X0142225Y0184325D03*
X0142250Y0184400D03*
X0142250Y0184425D03*
X0142250Y0184450D03*
X0142250Y0184475D03*
X0142250Y0184500D03*
X0142250Y0184525D03*
X0142250Y0184550D03*
X0142250Y0184575D03*
X0142250Y0184600D03*
X0142250Y0184625D03*
X0142250Y0184650D03*
X0142250Y0184675D03*
X0142275Y0184800D03*
X0142275Y0184825D03*
X0142275Y0184850D03*
X0142275Y0184875D03*
X0142275Y0184900D03*
X0142275Y0184925D03*
X0142275Y0184950D03*
X0142275Y0184975D03*
X0142275Y0185000D03*
X0142275Y0185025D03*
X0142275Y0185050D03*
X0142275Y0185075D03*
X0142275Y0185100D03*
X0142275Y0185125D03*
X0142275Y0185150D03*
X0142275Y0185175D03*
X0142300Y0185500D03*
X0142300Y0185525D03*
X0142300Y0185550D03*
X0142300Y0185575D03*
X0142300Y0185600D03*
X0142300Y0185625D03*
X0142300Y0185650D03*
X0142300Y0185675D03*
X0142300Y0185700D03*
X0142300Y0185725D03*
X0142300Y0185750D03*
X0142300Y0185775D03*
X0142300Y0185800D03*
X0142300Y0185825D03*
X0142300Y0185850D03*
X0142300Y0185875D03*
X0142300Y0185900D03*
X0142300Y0185925D03*
X0142300Y0185950D03*
X0142300Y0185975D03*
X0142300Y0186000D03*
X0142300Y0186025D03*
X0142275Y0186225D03*
X0142275Y0186250D03*
X0142275Y0186275D03*
X0142275Y0186300D03*
X0142275Y0186325D03*
X0142275Y0186350D03*
X0142275Y0186375D03*
X0142275Y0186400D03*
X0142275Y0186425D03*
X0142275Y0186450D03*
X0142275Y0186475D03*
X0142275Y0186500D03*
X0142275Y0186525D03*
X0142275Y0186550D03*
X0142275Y0186575D03*
X0142275Y0186600D03*
X0142275Y0186625D03*
X0142250Y0186700D03*
X0142250Y0186725D03*
X0142250Y0186750D03*
X0142250Y0186775D03*
X0142250Y0186800D03*
X0142250Y0186825D03*
X0142250Y0186850D03*
X0142250Y0186875D03*
X0142250Y0186900D03*
X0142250Y0186925D03*
X0142250Y0186950D03*
X0142250Y0186975D03*
X0142250Y0187000D03*
X0142225Y0187025D03*
X0142225Y0187050D03*
X0142225Y0187075D03*
X0142225Y0187100D03*
X0142225Y0187125D03*
X0142225Y0187150D03*
X0142225Y0187175D03*
X0142225Y0187200D03*
X0142225Y0187225D03*
X0142225Y0187250D03*
X0142200Y0187300D03*
X0142200Y0187325D03*
X0142200Y0187350D03*
X0142200Y0187375D03*
X0142200Y0187400D03*
X0142200Y0187425D03*
X0142200Y0187450D03*
X0142175Y0187550D03*
X0142175Y0187575D03*
X0142175Y0187600D03*
X0142175Y0187625D03*
X0142175Y0187650D03*
X0142150Y0187725D03*
X0142150Y0187750D03*
X0142150Y0187775D03*
X0142150Y0187800D03*
X0142150Y0187825D03*
X0142125Y0187900D03*
X0142125Y0187925D03*
X0142125Y0187950D03*
X0142125Y0187975D03*
X0142100Y0188075D03*
X0142100Y0188100D03*
X0142100Y0188125D03*
X0142075Y0188225D03*
X0142075Y0188250D03*
X0142050Y0188375D03*
X0138600Y0193150D03*
D84*
X0130937Y0179325D03*
X0127612Y0172450D03*
X0127612Y0172425D03*
X0139613Y0159725D03*
D85*
X0120525Y0159750D03*
X0122725Y0180600D03*
X0124400Y0182150D03*
D86*
X0119225Y0176125D03*
X0138625Y0192900D03*
X0139675Y0159750D03*
D87*
X0120525Y0159775D03*
X0115900Y0166750D03*
D88*
X0120525Y0159800D03*
X0124425Y0182025D03*
D89*
X0127975Y0181500D03*
X0130950Y0179250D03*
X0127625Y0172550D03*
X0139775Y0159800D03*
D90*
X0120525Y0159825D03*
D91*
X0108525Y0168725D03*
X0119200Y0176050D03*
X0127625Y0172600D03*
X0130950Y0179225D03*
X0128025Y0181475D03*
X0139825Y0159825D03*
D92*
X0130787Y0167000D03*
X0130687Y0166925D03*
X0132088Y0168000D03*
X0132113Y0168025D03*
X0132163Y0168050D03*
X0120512Y0159850D03*
X0124412Y0181900D03*
D93*
X0124175Y0183075D03*
X0128075Y0181450D03*
X0130950Y0179175D03*
X0127625Y0172650D03*
X0119200Y0176025D03*
X0139875Y0159850D03*
D94*
X0130325Y0166650D03*
X0132575Y0168350D03*
X0137225Y0172750D03*
X0120525Y0159875D03*
D95*
X0120525Y0159900D03*
X0129950Y0166375D03*
X0132900Y0168575D03*
D96*
X0139975Y0159900D03*
X0140025Y0159925D03*
X0119175Y0175975D03*
X0128225Y0181375D03*
D97*
X0124437Y0181700D03*
X0133138Y0168725D03*
X0129662Y0166175D03*
X0120512Y0159925D03*
D98*
X0120512Y0159950D03*
X0129437Y0166025D03*
D99*
X0127637Y0172750D03*
X0130962Y0179100D03*
X0128262Y0181350D03*
X0141713Y0171850D03*
X0140063Y0159950D03*
X0108487Y0168775D03*
X0138613Y0192975D03*
D100*
X0120525Y0159975D03*
D101*
X0120537Y0160000D03*
X0135538Y0171800D03*
X0135538Y0171825D03*
X0137263Y0172475D03*
D102*
X0141825Y0171775D03*
X0141875Y0171750D03*
X0130975Y0179025D03*
X0108475Y0168800D03*
X0140150Y0160000D03*
D103*
X0128825Y0165625D03*
X0120525Y0160025D03*
X0110825Y0167600D03*
D104*
X0120525Y0160050D03*
X0128650Y0165525D03*
X0135475Y0171350D03*
X0135475Y0171375D03*
D105*
X0141900Y0171725D03*
X0141950Y0171700D03*
X0130975Y0179000D03*
X0128500Y0181200D03*
X0127625Y0172850D03*
X0119175Y0175925D03*
X0140225Y0160050D03*
D106*
X0135450Y0171175D03*
X0120525Y0160075D03*
D107*
X0127637Y0172875D03*
X0130987Y0178975D03*
X0128612Y0181125D03*
X0128537Y0181175D03*
X0140263Y0160075D03*
D108*
X0135400Y0170950D03*
X0135400Y0170975D03*
X0120525Y0160100D03*
D109*
X0108450Y0168825D03*
X0119175Y0175900D03*
X0127625Y0172900D03*
X0128650Y0181100D03*
X0128575Y0181150D03*
X0140150Y0191875D03*
X0141975Y0171675D03*
X0142025Y0171650D03*
X0140375Y0160150D03*
X0140300Y0160100D03*
D110*
X0135350Y0170750D03*
X0128225Y0165275D03*
X0120525Y0160125D03*
D111*
X0120512Y0160150D03*
X0135263Y0170475D03*
D112*
X0135213Y0170300D03*
X0135213Y0170275D03*
X0127937Y0165125D03*
X0120512Y0160175D03*
D113*
X0120512Y0160200D03*
X0127787Y0165050D03*
X0135138Y0170050D03*
X0135138Y0170075D03*
D114*
X0142100Y0171600D03*
X0142125Y0171575D03*
X0130975Y0178925D03*
X0128775Y0181000D03*
X0128750Y0181025D03*
X0125775Y0180400D03*
X0127625Y0172925D03*
X0119175Y0175875D03*
X0137275Y0191925D03*
X0138600Y0193025D03*
X0140200Y0191850D03*
X0140475Y0160225D03*
X0140450Y0160200D03*
D115*
X0135063Y0169850D03*
X0135063Y0169875D03*
X0127687Y0165000D03*
X0120512Y0160225D03*
D116*
X0120512Y0160250D03*
X0134988Y0169675D03*
D117*
X0134938Y0169550D03*
X0127462Y0164900D03*
X0120512Y0160275D03*
D118*
X0140550Y0160275D03*
X0142225Y0171500D03*
X0142200Y0171525D03*
X0128875Y0180925D03*
X0128850Y0180950D03*
X0125900Y0180300D03*
X0125875Y0180325D03*
D119*
X0134863Y0169375D03*
X0134838Y0169325D03*
X0127337Y0164850D03*
X0120512Y0160300D03*
D120*
X0120512Y0160325D03*
X0136688Y0172200D03*
D121*
X0136713Y0172150D03*
X0120512Y0160350D03*
D122*
X0140650Y0160350D03*
X0140675Y0160375D03*
X0142275Y0171450D03*
X0142250Y0171475D03*
X0131000Y0178850D03*
X0129050Y0180775D03*
X0129025Y0180800D03*
X0129000Y0180825D03*
X0126025Y0180200D03*
X0126000Y0180225D03*
X0137200Y0191900D03*
X0140275Y0191800D03*
D123*
X0127037Y0164725D03*
X0120512Y0160375D03*
D124*
X0120525Y0160400D03*
X0136775Y0171975D03*
D125*
X0120512Y0160425D03*
D126*
X0120512Y0160450D03*
D127*
X0124975Y0168500D03*
X0127950Y0174375D03*
X0127975Y0174425D03*
X0128000Y0174500D03*
X0128025Y0174575D03*
X0128050Y0174650D03*
X0128075Y0174725D03*
X0128075Y0174750D03*
X0128100Y0174775D03*
X0128100Y0174800D03*
X0128100Y0174825D03*
X0128125Y0174850D03*
X0128125Y0174875D03*
X0128125Y0174900D03*
X0128150Y0174925D03*
X0128150Y0174950D03*
X0128150Y0174975D03*
X0128175Y0175000D03*
X0128175Y0175025D03*
X0128175Y0175050D03*
X0128200Y0175100D03*
X0128200Y0175125D03*
X0128200Y0175150D03*
X0128225Y0175200D03*
X0128225Y0175225D03*
X0128250Y0175300D03*
X0128200Y0177025D03*
X0128200Y0177050D03*
X0128175Y0177100D03*
X0128175Y0177125D03*
X0128175Y0177150D03*
X0128150Y0177175D03*
X0128150Y0177200D03*
X0128150Y0177225D03*
X0128125Y0177275D03*
X0128100Y0177350D03*
X0128075Y0177425D03*
X0132100Y0175750D03*
X0132125Y0175600D03*
X0132125Y0175575D03*
X0132125Y0175550D03*
X0132125Y0175525D03*
X0132150Y0175450D03*
X0132150Y0175425D03*
X0132150Y0175400D03*
X0132150Y0175375D03*
X0132150Y0175350D03*
X0132150Y0175325D03*
X0132150Y0175300D03*
X0132150Y0175275D03*
X0132175Y0175025D03*
X0132175Y0175000D03*
X0132175Y0174975D03*
X0132175Y0174950D03*
X0132175Y0174925D03*
X0132175Y0174900D03*
X0132175Y0174875D03*
X0132175Y0174850D03*
X0131950Y0173150D03*
X0131925Y0173075D03*
X0131925Y0173050D03*
X0131900Y0173000D03*
X0131900Y0172975D03*
X0131875Y0172925D03*
X0131875Y0172900D03*
X0131850Y0172850D03*
X0131850Y0172825D03*
X0131850Y0172800D03*
X0131825Y0172775D03*
X0131825Y0172750D03*
X0131800Y0172700D03*
X0131800Y0172675D03*
X0131775Y0172625D03*
X0131775Y0172600D03*
X0131750Y0172550D03*
X0131725Y0172475D03*
X0139375Y0166250D03*
X0139325Y0166075D03*
X0139300Y0165975D03*
X0139300Y0165950D03*
X0139275Y0165875D03*
X0139275Y0165850D03*
X0139250Y0165800D03*
X0139250Y0165775D03*
X0139225Y0165700D03*
X0139225Y0165675D03*
X0139200Y0165625D03*
X0139200Y0165600D03*
X0139200Y0165575D03*
X0139175Y0165525D03*
X0139175Y0165500D03*
X0139150Y0165425D03*
X0139150Y0165400D03*
X0139125Y0165325D03*
X0139125Y0165300D03*
X0139100Y0165250D03*
X0139100Y0165225D03*
X0139075Y0165175D03*
X0139075Y0165150D03*
X0139075Y0165125D03*
X0139050Y0165075D03*
X0139050Y0165050D03*
X0139050Y0165025D03*
X0139025Y0165000D03*
X0139025Y0164975D03*
X0139025Y0164950D03*
X0139000Y0164900D03*
X0139000Y0164875D03*
X0139000Y0164850D03*
X0138975Y0164825D03*
X0138975Y0164800D03*
X0138975Y0164775D03*
X0138950Y0164750D03*
X0138950Y0164725D03*
X0138950Y0164700D03*
X0138925Y0164650D03*
X0138925Y0164625D03*
X0138925Y0164600D03*
X0138900Y0164575D03*
X0138900Y0164550D03*
X0138900Y0164525D03*
X0138875Y0164475D03*
X0138875Y0164450D03*
X0138850Y0164400D03*
X0138850Y0164375D03*
X0138850Y0164350D03*
X0138825Y0164325D03*
X0138825Y0164300D03*
X0138825Y0164275D03*
X0138800Y0164250D03*
X0138800Y0164225D03*
X0138800Y0164200D03*
X0138775Y0164175D03*
X0138775Y0164150D03*
X0138775Y0164125D03*
X0138750Y0164075D03*
X0138750Y0164050D03*
X0138725Y0164000D03*
X0138725Y0163975D03*
X0138725Y0163950D03*
X0138700Y0163925D03*
X0138700Y0163900D03*
X0138700Y0163875D03*
X0138675Y0163825D03*
X0138675Y0163800D03*
X0138650Y0163750D03*
X0138650Y0163725D03*
X0138625Y0163675D03*
X0138625Y0163650D03*
X0138625Y0163625D03*
X0138600Y0163600D03*
X0138600Y0163575D03*
X0138600Y0163550D03*
X0138575Y0163500D03*
X0138575Y0163475D03*
X0138550Y0163425D03*
X0138550Y0163400D03*
X0138525Y0163350D03*
X0138525Y0163325D03*
X0138500Y0163275D03*
X0138500Y0163250D03*
X0138475Y0163200D03*
X0138475Y0163175D03*
X0138475Y0163150D03*
X0138450Y0163100D03*
X0138425Y0163025D03*
X0138425Y0163000D03*
X0138400Y0162950D03*
X0138400Y0162925D03*
X0138375Y0162875D03*
X0138375Y0162850D03*
X0138350Y0162775D03*
X0138325Y0162725D03*
X0138325Y0162700D03*
X0138300Y0162625D03*
X0138300Y0162600D03*
X0138275Y0162550D03*
X0138275Y0162525D03*
X0138250Y0162475D03*
X0138250Y0162450D03*
X0138225Y0162400D03*
X0138225Y0162375D03*
X0138200Y0162325D03*
X0138200Y0162300D03*
X0138200Y0162275D03*
X0138175Y0162250D03*
X0138175Y0162225D03*
X0138175Y0162200D03*
X0138150Y0162150D03*
X0138150Y0162125D03*
X0138125Y0162075D03*
X0138125Y0162050D03*
X0138125Y0162025D03*
X0138100Y0162000D03*
X0138100Y0161975D03*
X0138100Y0161950D03*
X0138075Y0161925D03*
X0138075Y0161900D03*
X0138075Y0161875D03*
X0138050Y0161825D03*
X0138050Y0161800D03*
X0138025Y0161750D03*
X0138025Y0161725D03*
X0138025Y0161700D03*
X0138000Y0161675D03*
X0138000Y0161650D03*
X0138000Y0161625D03*
X0137975Y0161575D03*
X0137975Y0161550D03*
X0137975Y0161525D03*
X0137950Y0161500D03*
X0137950Y0161475D03*
X0137950Y0161450D03*
X0137925Y0161400D03*
X0137925Y0161375D03*
X0137925Y0161350D03*
X0137900Y0161325D03*
X0137900Y0161300D03*
X0137900Y0161275D03*
X0137875Y0161250D03*
X0137875Y0161225D03*
X0137875Y0161200D03*
X0137875Y0161175D03*
X0137850Y0161150D03*
X0137850Y0161125D03*
X0137850Y0161100D03*
X0137825Y0161050D03*
X0137825Y0161025D03*
X0137825Y0161000D03*
X0137800Y0160950D03*
X0137800Y0160925D03*
X0137775Y0160850D03*
X0137775Y0160825D03*
X0137750Y0160775D03*
X0137750Y0160750D03*
X0137750Y0160725D03*
X0137725Y0160675D03*
X0137725Y0160650D03*
X0137700Y0160550D03*
X0137700Y0160525D03*
X0137675Y0160450D03*
X0143450Y0164500D03*
X0143475Y0164575D03*
X0143500Y0164650D03*
X0143525Y0164700D03*
X0143525Y0164725D03*
X0143550Y0164775D03*
X0143550Y0164800D03*
X0143575Y0164850D03*
X0143575Y0164875D03*
X0143600Y0164925D03*
X0143600Y0164950D03*
X0143600Y0164975D03*
X0143625Y0165000D03*
X0143625Y0165025D03*
X0143625Y0165050D03*
X0143650Y0165075D03*
X0143650Y0165100D03*
X0143650Y0165125D03*
X0143675Y0165175D03*
X0143675Y0165200D03*
X0143700Y0165275D03*
X0143725Y0165375D03*
X0143750Y0165475D03*
X0143875Y0169000D03*
X0143850Y0169075D03*
X0143850Y0169100D03*
X0143825Y0169150D03*
X0143825Y0169175D03*
X0143825Y0169200D03*
X0143800Y0169250D03*
X0143800Y0169275D03*
X0143775Y0169325D03*
X0143775Y0169350D03*
X0140625Y0177600D03*
X0140750Y0177925D03*
X0140775Y0178000D03*
X0140800Y0178075D03*
X0140825Y0178125D03*
X0140850Y0178200D03*
X0140875Y0178275D03*
X0140900Y0178325D03*
X0140900Y0178350D03*
X0140925Y0178400D03*
X0140925Y0178425D03*
X0140950Y0178475D03*
X0140950Y0178500D03*
X0140975Y0178550D03*
X0140975Y0178575D03*
X0141000Y0178625D03*
X0141000Y0178650D03*
X0141025Y0178700D03*
X0141025Y0178725D03*
X0141050Y0178750D03*
X0141050Y0178775D03*
X0141050Y0178800D03*
X0141075Y0178825D03*
X0141075Y0178850D03*
X0141075Y0178875D03*
X0141100Y0178900D03*
X0141100Y0178925D03*
X0141100Y0178950D03*
X0141125Y0178975D03*
X0141125Y0179000D03*
X0141125Y0179025D03*
X0141150Y0179050D03*
X0141150Y0179075D03*
X0141150Y0179100D03*
X0141175Y0179150D03*
X0141175Y0179175D03*
X0141200Y0179225D03*
X0141200Y0179250D03*
X0141225Y0179300D03*
X0141225Y0179325D03*
X0141225Y0179350D03*
X0141250Y0179375D03*
X0141250Y0179400D03*
X0141250Y0179425D03*
X0141275Y0179475D03*
X0141275Y0179500D03*
X0141300Y0179550D03*
X0141300Y0179575D03*
X0141325Y0179625D03*
X0141325Y0179650D03*
X0141325Y0179675D03*
X0141350Y0179725D03*
X0141350Y0179750D03*
X0141375Y0179825D03*
X0141400Y0179900D03*
X0141400Y0179925D03*
X0141425Y0179975D03*
X0141425Y0180000D03*
X0141450Y0180075D03*
X0141450Y0180100D03*
X0141475Y0180175D03*
X0141525Y0180350D03*
X0141550Y0180450D03*
X0141575Y0180550D03*
X0141600Y0180650D03*
X0134150Y0185075D03*
X0134225Y0185275D03*
X0134250Y0185350D03*
X0134325Y0185550D03*
X0134350Y0185625D03*
X0134375Y0185700D03*
X0134400Y0185775D03*
X0134425Y0185825D03*
X0134450Y0185900D03*
X0134475Y0185975D03*
X0134500Y0186050D03*
X0134525Y0186125D03*
X0134550Y0186175D03*
X0134550Y0186200D03*
X0134575Y0186250D03*
X0134575Y0186275D03*
X0134600Y0186325D03*
X0134600Y0186350D03*
X0134625Y0186400D03*
X0134625Y0186425D03*
X0134650Y0186475D03*
X0134650Y0186500D03*
X0134675Y0186550D03*
X0134675Y0186575D03*
X0134700Y0186625D03*
X0134700Y0186650D03*
X0134725Y0186700D03*
X0134750Y0186750D03*
X0134750Y0186775D03*
X0134750Y0186800D03*
X0134775Y0186825D03*
X0134775Y0186850D03*
X0134800Y0186900D03*
X0134800Y0186925D03*
X0134825Y0186975D03*
X0134825Y0187000D03*
X0134850Y0187050D03*
X0134850Y0187075D03*
X0134875Y0187125D03*
X0134875Y0187150D03*
X0134900Y0187200D03*
X0134900Y0187225D03*
X0134925Y0187275D03*
X0134925Y0187300D03*
X0134950Y0187350D03*
X0134950Y0187375D03*
X0134975Y0187400D03*
X0134975Y0187425D03*
X0134975Y0187450D03*
X0135000Y0187500D03*
X0135025Y0187575D03*
X0135025Y0187600D03*
X0135050Y0187650D03*
X0135075Y0187725D03*
X0135100Y0187800D03*
X0135125Y0187875D03*
X0135150Y0187950D03*
X0135175Y0188025D03*
X0135200Y0188100D03*
X0135225Y0188150D03*
X0135250Y0188225D03*
X0135275Y0188300D03*
X0135300Y0188375D03*
X0135325Y0188450D03*
X0135375Y0188575D03*
X0135400Y0188650D03*
X0135425Y0188725D03*
X0135450Y0188800D03*
X0135525Y0189000D03*
X0135600Y0189200D03*
X0141675Y0189725D03*
X0141700Y0189650D03*
X0141725Y0189600D03*
X0141750Y0189525D03*
X0141750Y0189500D03*
X0141775Y0189450D03*
X0141775Y0189425D03*
X0141800Y0189375D03*
X0141800Y0189350D03*
X0141825Y0189300D03*
X0141825Y0189275D03*
X0141825Y0189250D03*
X0141850Y0189225D03*
X0141850Y0189200D03*
X0141850Y0189175D03*
X0141875Y0189125D03*
X0141875Y0189100D03*
X0141875Y0189075D03*
X0141900Y0189025D03*
X0141900Y0189000D03*
X0141925Y0188925D03*
X0141925Y0188900D03*
X0141950Y0188825D03*
X0142000Y0188600D03*
X0108325Y0169050D03*
D128*
X0120525Y0160475D03*
D129*
X0140788Y0160475D03*
X0140863Y0160525D03*
X0142438Y0171325D03*
X0142413Y0171350D03*
X0130987Y0178800D03*
X0129337Y0180525D03*
X0129312Y0180550D03*
X0129287Y0180575D03*
X0129262Y0180600D03*
X0129237Y0180625D03*
X0137163Y0191875D03*
X0140363Y0191750D03*
D130*
X0120512Y0160500D03*
D131*
X0127600Y0173025D03*
X0126175Y0180075D03*
X0126150Y0180100D03*
X0129150Y0180700D03*
X0129175Y0180675D03*
X0129200Y0180650D03*
X0119150Y0175825D03*
X0138600Y0193050D03*
X0142350Y0171400D03*
X0142375Y0171375D03*
X0140825Y0160500D03*
D132*
X0126450Y0164525D03*
X0120525Y0160525D03*
D133*
X0120512Y0160550D03*
D134*
X0120512Y0160575D03*
D135*
X0120525Y0160600D03*
D136*
X0108412Y0168900D03*
X0126287Y0179975D03*
X0126312Y0179950D03*
X0126337Y0179925D03*
X0129512Y0180375D03*
X0129537Y0180350D03*
X0137113Y0191850D03*
X0140388Y0191725D03*
X0140413Y0191700D03*
X0140963Y0160625D03*
X0140938Y0160600D03*
D137*
X0120512Y0160625D03*
D138*
X0120512Y0160650D03*
X0126062Y0164425D03*
D139*
X0127575Y0173075D03*
X0131000Y0178725D03*
X0131000Y0178750D03*
X0129575Y0180300D03*
X0129550Y0180325D03*
X0126450Y0179825D03*
X0126425Y0179850D03*
X0126400Y0179875D03*
X0126375Y0179900D03*
X0119150Y0175800D03*
X0137000Y0173825D03*
X0142525Y0171250D03*
X0142550Y0171225D03*
X0142575Y0171200D03*
X0142600Y0171175D03*
X0141075Y0160725D03*
X0141050Y0160700D03*
X0141025Y0160675D03*
X0141000Y0160650D03*
X0140450Y0191675D03*
X0137075Y0191825D03*
D140*
X0125962Y0164400D03*
X0120512Y0160675D03*
D141*
X0120512Y0160700D03*
D142*
X0120512Y0160725D03*
D143*
X0120525Y0160750D03*
D144*
X0120512Y0160775D03*
D145*
X0120512Y0160800D03*
D146*
X0127575Y0173100D03*
X0131000Y0178700D03*
X0129875Y0180000D03*
X0129850Y0180025D03*
X0129825Y0180050D03*
X0129800Y0180075D03*
X0129775Y0180100D03*
X0129750Y0180125D03*
X0129725Y0180150D03*
X0126650Y0179625D03*
X0126600Y0179675D03*
X0126575Y0179700D03*
X0126550Y0179725D03*
X0126525Y0179750D03*
X0126500Y0179775D03*
X0137050Y0191800D03*
X0142650Y0171125D03*
X0142675Y0171100D03*
X0142700Y0171075D03*
X0141200Y0160850D03*
X0141175Y0160825D03*
X0141150Y0160800D03*
X0108400Y0168925D03*
D147*
X0120525Y0160825D03*
D148*
X0120512Y0160850D03*
D149*
X0120525Y0160875D03*
D150*
X0127562Y0173125D03*
X0126637Y0179650D03*
X0129887Y0179975D03*
X0129912Y0179950D03*
X0129937Y0179925D03*
X0129962Y0179900D03*
X0129987Y0179875D03*
X0130012Y0179850D03*
X0119137Y0175775D03*
X0137013Y0191775D03*
X0140538Y0191600D03*
X0140563Y0191575D03*
X0142738Y0171050D03*
X0141288Y0160925D03*
X0141263Y0160900D03*
X0141238Y0160875D03*
D151*
X0120525Y0160900D03*
D152*
X0120512Y0160925D03*
D153*
X0120512Y0160950D03*
D154*
X0141300Y0160950D03*
X0141325Y0160975D03*
X0141350Y0161000D03*
X0141375Y0161025D03*
X0141400Y0161050D03*
X0142800Y0170975D03*
X0142775Y0171000D03*
X0142750Y0171025D03*
X0131000Y0178650D03*
X0131000Y0178675D03*
X0130125Y0179725D03*
X0130100Y0179750D03*
X0130075Y0179775D03*
X0130050Y0179800D03*
X0130025Y0179825D03*
X0126750Y0179525D03*
X0126725Y0179550D03*
X0126700Y0179575D03*
X0126675Y0179600D03*
X0136975Y0191750D03*
X0140600Y0191550D03*
D155*
X0120512Y0160975D03*
D156*
X0120512Y0161000D03*
D157*
X0120512Y0161025D03*
D158*
X0120512Y0161050D03*
D159*
X0120512Y0161075D03*
D160*
X0141413Y0161075D03*
X0141488Y0161150D03*
X0141513Y0161175D03*
X0142838Y0170950D03*
X0126862Y0179400D03*
X0126837Y0179425D03*
X0126812Y0179450D03*
X0126787Y0179475D03*
X0126762Y0179500D03*
X0136963Y0191725D03*
X0140613Y0191525D03*
X0140638Y0191500D03*
D161*
X0113737Y0167150D03*
X0120512Y0161100D03*
D162*
X0120512Y0161125D03*
X0113762Y0167175D03*
D163*
X0113787Y0167200D03*
X0120512Y0161150D03*
D164*
X0120512Y0161175D03*
D165*
X0120525Y0161200D03*
D166*
X0127537Y0173175D03*
X0127037Y0179200D03*
X0127012Y0179225D03*
X0126987Y0179250D03*
X0126962Y0179275D03*
X0131012Y0178600D03*
X0119137Y0175750D03*
X0136888Y0191650D03*
X0138588Y0193100D03*
X0140688Y0191450D03*
X0140713Y0191425D03*
X0140738Y0191400D03*
X0142913Y0170850D03*
X0142938Y0170825D03*
X0142963Y0170800D03*
X0141713Y0161400D03*
X0141688Y0161375D03*
X0141663Y0161350D03*
X0141638Y0161325D03*
X0141613Y0161275D03*
X0141563Y0161225D03*
X0141538Y0161200D03*
D167*
X0120525Y0161225D03*
D168*
X0120525Y0161250D03*
D169*
X0120512Y0161275D03*
D170*
X0120512Y0161300D03*
X0113962Y0167375D03*
D171*
X0127150Y0179050D03*
X0127100Y0179125D03*
X0127075Y0179150D03*
X0127050Y0179175D03*
X0131000Y0178575D03*
X0136825Y0191600D03*
X0136850Y0191625D03*
X0140750Y0191375D03*
X0140775Y0191350D03*
X0140800Y0191325D03*
X0142975Y0170775D03*
X0143000Y0170750D03*
X0143025Y0170725D03*
X0141775Y0161475D03*
X0141750Y0161450D03*
X0141725Y0161425D03*
X0141625Y0161300D03*
D172*
X0120525Y0161325D03*
D173*
X0120512Y0161350D03*
D174*
X0120512Y0161375D03*
D175*
X0120512Y0161400D03*
X0114062Y0167500D03*
D176*
X0120512Y0161425D03*
D177*
X0120512Y0161450D03*
X0114112Y0167550D03*
D178*
X0120512Y0161475D03*
D179*
X0120512Y0161500D03*
D180*
X0141788Y0161500D03*
X0141813Y0161525D03*
X0141838Y0161550D03*
X0141863Y0161600D03*
X0141888Y0161625D03*
X0141913Y0161650D03*
X0143088Y0170650D03*
X0143063Y0170675D03*
X0143038Y0170700D03*
X0127212Y0178975D03*
X0127187Y0179000D03*
X0127137Y0179075D03*
X0127112Y0179100D03*
X0136763Y0191525D03*
X0136788Y0191550D03*
X0136813Y0191575D03*
X0140813Y0191300D03*
X0140838Y0191275D03*
X0140863Y0191250D03*
D181*
X0120525Y0161525D03*
D182*
X0120512Y0161550D03*
D183*
X0120512Y0161575D03*
D184*
X0120512Y0161600D03*
D185*
X0120525Y0161625D03*
D186*
X0120512Y0161650D03*
D187*
X0120512Y0161675D03*
D188*
X0120512Y0161700D03*
D189*
X0120512Y0161725D03*
D190*
X0120512Y0161750D03*
D191*
X0120525Y0161775D03*
D192*
X0120512Y0161800D03*
D193*
X0120512Y0161825D03*
D194*
X0127512Y0173225D03*
X0127412Y0178700D03*
X0127362Y0178775D03*
X0127337Y0178800D03*
X0127287Y0178875D03*
X0131012Y0178525D03*
X0131012Y0178500D03*
X0131037Y0178475D03*
X0131088Y0178400D03*
X0131113Y0178350D03*
X0131163Y0178275D03*
X0131238Y0178150D03*
X0143188Y0170500D03*
X0143213Y0170475D03*
X0142163Y0162000D03*
X0142138Y0161950D03*
X0142113Y0161925D03*
X0142088Y0161900D03*
X0142063Y0161850D03*
X0142038Y0161825D03*
X0140963Y0191125D03*
X0140938Y0191150D03*
X0136713Y0191450D03*
X0136688Y0191425D03*
X0136663Y0191400D03*
D195*
X0120525Y0161850D03*
D196*
X0120525Y0161875D03*
D197*
X0120525Y0161900D03*
D198*
X0120512Y0161925D03*
D199*
X0120512Y0161950D03*
D200*
X0120525Y0161975D03*
D201*
X0124975Y0168525D03*
X0131475Y0177700D03*
X0131425Y0177800D03*
X0131400Y0177850D03*
X0131375Y0177900D03*
X0131350Y0177950D03*
X0131325Y0178000D03*
X0131300Y0178025D03*
X0131300Y0178050D03*
X0131275Y0178075D03*
X0131275Y0178100D03*
X0131250Y0178125D03*
X0131225Y0178175D03*
X0131200Y0178200D03*
X0131200Y0178225D03*
X0131175Y0178250D03*
X0131150Y0178300D03*
X0131125Y0178325D03*
X0131100Y0178375D03*
X0131075Y0178425D03*
X0131050Y0178450D03*
X0127525Y0178525D03*
X0127475Y0178600D03*
X0127450Y0178650D03*
X0127425Y0178675D03*
X0127400Y0178725D03*
X0127375Y0178750D03*
X0136600Y0191300D03*
X0136625Y0191350D03*
X0136650Y0191375D03*
X0140975Y0191100D03*
X0141000Y0191075D03*
X0141000Y0191050D03*
X0141025Y0191025D03*
X0143225Y0170450D03*
X0143250Y0170425D03*
X0143250Y0170400D03*
X0143275Y0170375D03*
X0142350Y0162275D03*
X0142300Y0162200D03*
X0142275Y0162150D03*
X0142250Y0162125D03*
X0142225Y0162100D03*
X0142225Y0162075D03*
X0142200Y0162050D03*
X0142175Y0162025D03*
X0142150Y0161975D03*
D202*
X0120525Y0162000D03*
D203*
X0120525Y0162025D03*
D204*
X0120525Y0162050D03*
D205*
X0120525Y0162075D03*
D206*
X0120512Y0162100D03*
D207*
X0120525Y0162125D03*
D208*
X0120525Y0162150D03*
D209*
X0120525Y0162175D03*
D210*
X0108337Y0169000D03*
X0127487Y0178575D03*
X0127512Y0178550D03*
X0127537Y0178500D03*
X0127562Y0178475D03*
X0127587Y0178425D03*
X0127462Y0178625D03*
X0131338Y0177975D03*
X0131363Y0177925D03*
X0131388Y0177875D03*
X0131413Y0177825D03*
X0131438Y0177775D03*
X0131463Y0177750D03*
X0131463Y0177725D03*
X0131488Y0177675D03*
X0131513Y0177650D03*
X0131513Y0177625D03*
X0131538Y0177575D03*
X0131563Y0177525D03*
X0143288Y0170350D03*
X0143313Y0170325D03*
X0143338Y0170275D03*
X0142463Y0162450D03*
X0142413Y0162375D03*
X0142388Y0162350D03*
X0142388Y0162325D03*
X0142363Y0162300D03*
X0142338Y0162250D03*
X0142313Y0162225D03*
X0142288Y0162175D03*
X0141138Y0190850D03*
X0141113Y0190900D03*
X0141088Y0190925D03*
X0141088Y0190950D03*
X0141063Y0190975D03*
X0141038Y0191000D03*
X0136613Y0191325D03*
X0136588Y0191275D03*
X0136563Y0191250D03*
X0136513Y0191175D03*
D211*
X0120512Y0162200D03*
D212*
X0120525Y0162225D03*
D213*
X0120512Y0162250D03*
D214*
X0120525Y0162275D03*
D215*
X0120525Y0162300D03*
D216*
X0120525Y0162325D03*
D217*
X0120512Y0162350D03*
D218*
X0120512Y0162375D03*
D219*
X0120525Y0162400D03*
D220*
X0119125Y0175700D03*
X0127575Y0178450D03*
X0127600Y0178400D03*
X0127625Y0178375D03*
X0127625Y0178350D03*
X0127650Y0178325D03*
X0127675Y0178275D03*
X0131525Y0177600D03*
X0131550Y0177550D03*
X0131575Y0177500D03*
X0131575Y0177475D03*
X0131600Y0177450D03*
X0131600Y0177425D03*
X0131625Y0177400D03*
X0131625Y0177375D03*
X0131650Y0177325D03*
X0131650Y0177300D03*
X0131675Y0177275D03*
X0131675Y0177250D03*
X0131700Y0177200D03*
X0131725Y0177125D03*
X0131750Y0177075D03*
X0131775Y0177000D03*
X0131800Y0179825D03*
X0131825Y0179875D03*
X0136450Y0191075D03*
X0136475Y0191100D03*
X0136500Y0191150D03*
X0136525Y0191200D03*
X0136550Y0191225D03*
X0141125Y0190875D03*
X0141150Y0190825D03*
X0141175Y0190800D03*
X0141200Y0190750D03*
X0143325Y0170300D03*
X0143350Y0170250D03*
X0143375Y0170225D03*
X0143375Y0170200D03*
X0143400Y0170175D03*
X0143425Y0170125D03*
X0142625Y0162725D03*
X0142600Y0162675D03*
X0142550Y0162600D03*
X0142525Y0162550D03*
X0142500Y0162525D03*
X0142500Y0162500D03*
X0142475Y0162475D03*
X0142450Y0162425D03*
X0142425Y0162400D03*
D221*
X0120512Y0162425D03*
D222*
X0120525Y0162450D03*
D223*
X0120512Y0162475D03*
D224*
X0120512Y0162500D03*
D225*
X0120525Y0162525D03*
D226*
X0120525Y0162550D03*
D227*
X0120525Y0162575D03*
D228*
X0120525Y0162600D03*
D229*
X0120512Y0162625D03*
D230*
X0120525Y0162650D03*
D231*
X0120512Y0162675D03*
D232*
X0120525Y0162700D03*
D233*
X0120525Y0162725D03*
D234*
X0120512Y0162750D03*
D235*
X0120512Y0162775D03*
D236*
X0120525Y0162800D03*
D237*
X0120525Y0162825D03*
D238*
X0120512Y0162850D03*
D239*
X0108325Y0169025D03*
X0127775Y0178075D03*
X0127775Y0178100D03*
X0127750Y0178150D03*
X0127800Y0178050D03*
X0127825Y0178000D03*
X0127850Y0177950D03*
X0127875Y0177900D03*
X0131800Y0176925D03*
X0131825Y0176875D03*
X0131825Y0176850D03*
X0131850Y0176800D03*
X0131850Y0176775D03*
X0131850Y0176750D03*
X0131875Y0176725D03*
X0131875Y0176700D03*
X0131875Y0176675D03*
X0131900Y0176650D03*
X0131900Y0176625D03*
X0131900Y0176600D03*
X0131925Y0176550D03*
X0131925Y0176525D03*
X0131950Y0176450D03*
X0131925Y0180050D03*
X0131975Y0180150D03*
X0132075Y0180325D03*
X0132100Y0180375D03*
X0132125Y0180425D03*
X0132150Y0180475D03*
X0132175Y0180525D03*
X0132200Y0180575D03*
X0132225Y0180625D03*
X0132250Y0180675D03*
X0132275Y0180700D03*
X0132275Y0180725D03*
X0132300Y0180750D03*
X0132300Y0180775D03*
X0132325Y0180800D03*
X0132325Y0180825D03*
X0132350Y0180850D03*
X0132350Y0180875D03*
X0132375Y0180900D03*
X0132375Y0180925D03*
X0132400Y0180950D03*
X0132400Y0180975D03*
X0132425Y0181000D03*
X0132425Y0181025D03*
X0132450Y0181050D03*
X0132450Y0181075D03*
X0132475Y0181100D03*
X0132475Y0181125D03*
X0132500Y0181175D03*
X0132525Y0181225D03*
X0132550Y0181275D03*
X0132575Y0181325D03*
X0132600Y0181375D03*
X0132625Y0181425D03*
X0132650Y0181475D03*
X0132675Y0181525D03*
X0132700Y0181575D03*
X0132850Y0181900D03*
X0136225Y0190650D03*
X0136225Y0190675D03*
X0136250Y0190700D03*
X0136250Y0190725D03*
X0136275Y0190750D03*
X0136275Y0190775D03*
X0136300Y0190800D03*
X0136325Y0190850D03*
X0136350Y0190900D03*
X0141300Y0190575D03*
X0141325Y0190525D03*
X0141350Y0190475D03*
X0141375Y0190425D03*
X0141400Y0190375D03*
X0139400Y0174800D03*
X0139350Y0174700D03*
X0139325Y0174650D03*
X0139300Y0174600D03*
X0139275Y0174550D03*
X0139250Y0174500D03*
X0139225Y0174450D03*
X0139200Y0174400D03*
X0139175Y0174350D03*
X0139150Y0174300D03*
X0139125Y0174250D03*
X0139100Y0174200D03*
X0139075Y0174150D03*
X0139050Y0174125D03*
X0139050Y0174100D03*
X0139025Y0174050D03*
X0139000Y0174025D03*
X0139000Y0174000D03*
X0138975Y0173975D03*
X0138975Y0173950D03*
X0138950Y0173925D03*
X0138950Y0173900D03*
X0138925Y0173875D03*
X0138925Y0173850D03*
X0138900Y0173825D03*
X0138900Y0173800D03*
X0143475Y0170025D03*
X0143500Y0169975D03*
X0143525Y0169950D03*
X0143525Y0169925D03*
X0143550Y0169900D03*
X0142975Y0163375D03*
X0142950Y0163325D03*
X0142925Y0163275D03*
X0142900Y0163225D03*
X0142875Y0163175D03*
X0142850Y0163150D03*
X0142850Y0163125D03*
X0142825Y0163100D03*
X0142825Y0163075D03*
X0142800Y0163050D03*
X0142800Y0163025D03*
X0142775Y0163000D03*
X0142750Y0162950D03*
X0142725Y0162900D03*
X0142700Y0162850D03*
D240*
X0120525Y0162875D03*
D241*
X0120525Y0162900D03*
D242*
X0120525Y0162925D03*
D243*
X0120512Y0162950D03*
D244*
X0120525Y0162975D03*
D245*
X0120525Y0163000D03*
D246*
X0120525Y0163025D03*
D247*
X0120512Y0163050D03*
D248*
X0120525Y0163075D03*
D249*
X0120525Y0163100D03*
D250*
X0120512Y0163125D03*
D251*
X0120512Y0163150D03*
D252*
X0120525Y0163175D03*
D253*
X0120525Y0163200D03*
D254*
X0127487Y0173275D03*
X0127487Y0173300D03*
X0127512Y0173350D03*
X0127537Y0173400D03*
X0127562Y0173450D03*
X0127587Y0173500D03*
X0127612Y0173550D03*
X0127962Y0177700D03*
X0127937Y0177775D03*
X0127912Y0177800D03*
X0127912Y0177825D03*
X0127887Y0177850D03*
X0127887Y0177875D03*
X0127862Y0177925D03*
X0127837Y0177975D03*
X0127812Y0178025D03*
X0131913Y0176575D03*
X0131938Y0176500D03*
X0131938Y0176475D03*
X0131963Y0176425D03*
X0131963Y0176400D03*
X0131963Y0176375D03*
X0131988Y0176325D03*
X0131988Y0176300D03*
X0131988Y0176275D03*
X0132013Y0176200D03*
X0132038Y0176075D03*
X0132488Y0181150D03*
X0132513Y0181200D03*
X0132538Y0181250D03*
X0132563Y0181300D03*
X0132588Y0181350D03*
X0132613Y0181400D03*
X0132638Y0181450D03*
X0132663Y0181500D03*
X0132688Y0181550D03*
X0132713Y0181600D03*
X0132713Y0181625D03*
X0132738Y0181650D03*
X0132738Y0181675D03*
X0132763Y0181700D03*
X0132763Y0181725D03*
X0132788Y0181750D03*
X0132788Y0181775D03*
X0132813Y0181800D03*
X0132813Y0181825D03*
X0132838Y0181850D03*
X0132838Y0181875D03*
X0132863Y0181925D03*
X0132888Y0181975D03*
X0132913Y0182025D03*
X0132913Y0182050D03*
X0132938Y0182075D03*
X0132938Y0182100D03*
X0132963Y0182125D03*
X0132963Y0182150D03*
X0132988Y0182200D03*
X0133013Y0182250D03*
X0133013Y0182275D03*
X0133038Y0182300D03*
X0133063Y0182375D03*
X0133088Y0182425D03*
X0133113Y0182475D03*
X0133138Y0182525D03*
X0133138Y0182550D03*
X0133163Y0182600D03*
X0133188Y0182650D03*
X0133213Y0182700D03*
X0133263Y0182825D03*
X0133288Y0182875D03*
X0133338Y0183000D03*
X0135988Y0190150D03*
X0136038Y0190275D03*
X0136063Y0190325D03*
X0136088Y0190375D03*
X0136088Y0190400D03*
X0136113Y0190425D03*
X0136138Y0190475D03*
X0136138Y0190500D03*
X0136163Y0190525D03*
X0136163Y0190550D03*
X0136188Y0190575D03*
X0136188Y0190600D03*
X0136213Y0190625D03*
X0141338Y0190500D03*
X0141363Y0190450D03*
X0141388Y0190400D03*
X0141413Y0190350D03*
X0141438Y0190300D03*
X0141463Y0190250D03*
X0141488Y0190200D03*
X0139988Y0176050D03*
X0139963Y0176000D03*
X0139913Y0175875D03*
X0139888Y0175825D03*
X0139863Y0175775D03*
X0139838Y0175700D03*
X0139813Y0175650D03*
X0139788Y0175600D03*
X0139763Y0175550D03*
X0139738Y0175500D03*
X0139713Y0175450D03*
X0139688Y0175400D03*
X0139688Y0175375D03*
X0139663Y0175350D03*
X0139663Y0175325D03*
X0139638Y0175300D03*
X0139638Y0175275D03*
X0139613Y0175225D03*
X0139588Y0175200D03*
X0139588Y0175175D03*
X0139563Y0175125D03*
X0139538Y0175075D03*
X0139513Y0175025D03*
X0139488Y0174975D03*
X0139488Y0174950D03*
X0139463Y0174925D03*
X0139463Y0174900D03*
X0139438Y0174875D03*
X0139438Y0174850D03*
X0139413Y0174825D03*
X0139388Y0174775D03*
X0139388Y0174750D03*
X0139363Y0174725D03*
X0139338Y0174675D03*
X0139313Y0174625D03*
X0139288Y0174575D03*
X0139263Y0174525D03*
X0139238Y0174475D03*
X0139213Y0174425D03*
X0139188Y0174375D03*
X0139163Y0174325D03*
X0139138Y0174275D03*
X0139113Y0174225D03*
X0139088Y0174175D03*
X0139038Y0174075D03*
X0143563Y0169875D03*
X0143563Y0169850D03*
X0143588Y0169825D03*
X0143588Y0169800D03*
X0143613Y0169750D03*
X0143638Y0169700D03*
X0143138Y0163725D03*
X0143113Y0163675D03*
X0143088Y0163625D03*
X0143063Y0163575D03*
X0143063Y0163550D03*
X0143038Y0163525D03*
X0143038Y0163500D03*
X0143013Y0163475D03*
X0143013Y0163450D03*
X0142988Y0163425D03*
X0142988Y0163400D03*
X0142963Y0163350D03*
X0142938Y0163300D03*
X0142913Y0163250D03*
X0142888Y0163200D03*
D255*
X0120525Y0163225D03*
D256*
X0120512Y0163250D03*
D257*
X0120525Y0163275D03*
D258*
X0120525Y0163300D03*
D259*
X0120525Y0163325D03*
D260*
X0120512Y0163350D03*
D261*
X0120525Y0163375D03*
D262*
X0120525Y0163400D03*
D263*
X0120525Y0163425D03*
D264*
X0120525Y0163450D03*
D265*
X0120512Y0163475D03*
D266*
X0120525Y0163500D03*
D267*
X0120512Y0163525D03*
D268*
X0120525Y0163550D03*
D269*
X0120525Y0163575D03*
D270*
X0120525Y0163600D03*
D271*
X0127500Y0173325D03*
X0127525Y0173375D03*
X0127550Y0173425D03*
X0127575Y0173475D03*
X0127600Y0173525D03*
X0127625Y0173575D03*
X0127625Y0173600D03*
X0127650Y0173625D03*
X0127650Y0173650D03*
X0127675Y0173675D03*
X0127675Y0173700D03*
X0127700Y0173750D03*
X0127725Y0173800D03*
X0127725Y0173825D03*
X0127750Y0173850D03*
X0127750Y0173875D03*
X0127775Y0173925D03*
X0127800Y0174000D03*
X0127825Y0174050D03*
X0127850Y0174100D03*
X0127875Y0174175D03*
X0128050Y0177500D03*
X0128025Y0177550D03*
X0128000Y0177600D03*
X0128000Y0177625D03*
X0127975Y0177650D03*
X0127975Y0177675D03*
X0127950Y0177725D03*
X0127950Y0177750D03*
X0131975Y0176350D03*
X0132000Y0176250D03*
X0132000Y0176225D03*
X0132025Y0176175D03*
X0132025Y0176150D03*
X0132025Y0176125D03*
X0132025Y0176100D03*
X0132050Y0176050D03*
X0132050Y0176025D03*
X0132050Y0176000D03*
X0132050Y0175975D03*
X0132075Y0175925D03*
X0132075Y0175900D03*
X0132075Y0175875D03*
X0132875Y0181950D03*
X0132900Y0182000D03*
X0132975Y0182175D03*
X0133000Y0182225D03*
X0133050Y0182325D03*
X0133050Y0182350D03*
X0133075Y0182400D03*
X0133100Y0182450D03*
X0133125Y0182500D03*
X0133150Y0182575D03*
X0133175Y0182625D03*
X0133200Y0182675D03*
X0133225Y0182725D03*
X0133225Y0182750D03*
X0133250Y0182775D03*
X0133250Y0182800D03*
X0133275Y0182850D03*
X0133300Y0182900D03*
X0133300Y0182925D03*
X0133325Y0182950D03*
X0133325Y0182975D03*
X0133350Y0183025D03*
X0133350Y0183050D03*
X0133375Y0183075D03*
X0133375Y0183100D03*
X0133400Y0183125D03*
X0133400Y0183150D03*
X0133400Y0183175D03*
X0133425Y0183200D03*
X0133425Y0183225D03*
X0133450Y0183250D03*
X0133450Y0183275D03*
X0133475Y0183325D03*
X0133475Y0183350D03*
X0133500Y0183375D03*
X0133500Y0183400D03*
X0133525Y0183450D03*
X0133525Y0183475D03*
X0133550Y0183500D03*
X0133550Y0183525D03*
X0133575Y0183575D03*
X0133600Y0183625D03*
X0133600Y0183650D03*
X0133625Y0183700D03*
X0133650Y0183750D03*
X0133650Y0183775D03*
X0133675Y0183825D03*
X0133700Y0183875D03*
X0133700Y0183900D03*
X0133725Y0183950D03*
X0133750Y0184025D03*
X0133775Y0184075D03*
X0133800Y0184150D03*
X0133825Y0184200D03*
X0133850Y0184275D03*
X0133900Y0184400D03*
X0133975Y0184600D03*
X0134000Y0184675D03*
X0134050Y0184800D03*
X0135725Y0189525D03*
X0135750Y0189575D03*
X0135775Y0189650D03*
X0135800Y0189700D03*
X0135800Y0189725D03*
X0135825Y0189775D03*
X0135850Y0189825D03*
X0135850Y0189850D03*
X0135875Y0189875D03*
X0135875Y0189900D03*
X0135900Y0189950D03*
X0135900Y0189975D03*
X0135925Y0190000D03*
X0135925Y0190025D03*
X0135950Y0190050D03*
X0135950Y0190075D03*
X0135975Y0190125D03*
X0136000Y0190175D03*
X0136000Y0190200D03*
X0136025Y0190225D03*
X0136025Y0190250D03*
X0136050Y0190300D03*
X0136075Y0190350D03*
X0136125Y0190450D03*
X0141425Y0190325D03*
X0141450Y0190275D03*
X0141475Y0190225D03*
X0141500Y0190175D03*
X0141500Y0190150D03*
X0141525Y0190125D03*
X0141525Y0190100D03*
X0141550Y0190050D03*
X0141575Y0190000D03*
X0141575Y0189975D03*
X0141600Y0189925D03*
X0141625Y0189875D03*
X0140450Y0177150D03*
X0140425Y0177075D03*
X0140400Y0177025D03*
X0140350Y0176900D03*
X0140325Y0176850D03*
X0140300Y0176800D03*
X0140300Y0176775D03*
X0140275Y0176725D03*
X0140250Y0176675D03*
X0140250Y0176650D03*
X0140225Y0176625D03*
X0140225Y0176600D03*
X0140200Y0176550D03*
X0140175Y0176500D03*
X0140175Y0176475D03*
X0140150Y0176450D03*
X0140150Y0176425D03*
X0140125Y0176375D03*
X0140125Y0176350D03*
X0140100Y0176325D03*
X0140100Y0176300D03*
X0140075Y0176275D03*
X0140075Y0176250D03*
X0140050Y0176200D03*
X0140050Y0176175D03*
X0140025Y0176150D03*
X0140025Y0176125D03*
X0140000Y0176100D03*
X0140000Y0176075D03*
X0139975Y0176025D03*
X0139950Y0175975D03*
X0139950Y0175950D03*
X0139925Y0175925D03*
X0139925Y0175900D03*
X0139900Y0175850D03*
X0139875Y0175800D03*
X0139850Y0175750D03*
X0139850Y0175725D03*
X0139825Y0175675D03*
X0139800Y0175625D03*
X0139775Y0175575D03*
X0139750Y0175525D03*
X0139725Y0175475D03*
X0139700Y0175425D03*
X0139625Y0175250D03*
X0139575Y0175150D03*
X0139550Y0175100D03*
X0139525Y0175050D03*
X0139500Y0175000D03*
X0143600Y0169775D03*
X0143625Y0169725D03*
X0143650Y0169675D03*
X0143650Y0169650D03*
X0143675Y0169625D03*
X0143675Y0169600D03*
X0143700Y0169550D03*
X0143725Y0169475D03*
X0143375Y0164300D03*
X0143325Y0164175D03*
X0143300Y0164100D03*
X0143275Y0164050D03*
X0143275Y0164025D03*
X0143250Y0164000D03*
X0143250Y0163975D03*
X0143225Y0163950D03*
X0143225Y0163925D03*
X0143200Y0163875D03*
X0143200Y0163850D03*
X0143175Y0163825D03*
X0143175Y0163800D03*
X0143150Y0163775D03*
X0143150Y0163750D03*
X0143125Y0163700D03*
X0143100Y0163650D03*
X0143075Y0163600D03*
D272*
X0120525Y0163625D03*
D273*
X0120525Y0163650D03*
D274*
X0120525Y0163675D03*
D275*
X0120525Y0163700D03*
D276*
X0120525Y0163725D03*
D277*
X0120525Y0163750D03*
D278*
X0120525Y0163775D03*
D279*
X0120525Y0163800D03*
D280*
X0120525Y0163825D03*
D281*
X0120525Y0163850D03*
D282*
X0120525Y0163875D03*
D283*
X0120525Y0163900D03*
D284*
X0120525Y0163925D03*
D285*
X0120525Y0163950D03*
D286*
X0120525Y0163975D03*
D287*
X0120525Y0164000D03*
D288*
X0120525Y0164025D03*
D289*
X0120525Y0164050D03*
D290*
X0120525Y0164075D03*
D291*
X0120525Y0164100D03*
D292*
X0120525Y0164125D03*
D293*
X0120525Y0164150D03*
D294*
X0120525Y0164175D03*
D295*
X0120525Y0164200D03*
D296*
X0120525Y0164225D03*
D297*
X0112387Y0164250D03*
X0109912Y0167750D03*
D298*
X0125025Y0164250D03*
D299*
X0112137Y0164275D03*
X0122662Y0180900D03*
D300*
X0113512Y0166975D03*
X0125262Y0164275D03*
D301*
X0125437Y0164300D03*
X0113412Y0166900D03*
D302*
X0111800Y0164325D03*
X0109550Y0167875D03*
X0122925Y0181475D03*
X0122950Y0181500D03*
X0137150Y0173250D03*
D303*
X0125587Y0164325D03*
D304*
X0111662Y0164350D03*
D305*
X0125725Y0164350D03*
D306*
X0111550Y0164375D03*
D307*
X0125850Y0164375D03*
D308*
X0111437Y0164400D03*
X0121637Y0180350D03*
X0121662Y0180375D03*
X0121687Y0180400D03*
D309*
X0121412Y0180100D03*
X0121387Y0180075D03*
X0111337Y0164425D03*
D310*
X0111237Y0164450D03*
X0121162Y0179825D03*
X0121187Y0179850D03*
D311*
X0126175Y0164450D03*
D312*
X0111150Y0164475D03*
X0120975Y0179600D03*
D313*
X0126262Y0164475D03*
D314*
X0111062Y0164500D03*
X0120787Y0179350D03*
X0120812Y0179375D03*
D315*
X0126350Y0164500D03*
D316*
X0110962Y0164525D03*
X0120612Y0179100D03*
D317*
X0120475Y0178900D03*
X0120450Y0178850D03*
X0124300Y0182750D03*
X0110875Y0164550D03*
D318*
X0126525Y0164550D03*
D319*
X0120350Y0178700D03*
X0110800Y0164575D03*
D320*
X0126600Y0164575D03*
D321*
X0120262Y0178575D03*
X0120287Y0178600D03*
X0109087Y0168150D03*
X0110737Y0164600D03*
D322*
X0126675Y0164600D03*
D323*
X0120137Y0167675D03*
X0110662Y0164625D03*
X0108887Y0166750D03*
X0120162Y0178400D03*
X0120187Y0178425D03*
D324*
X0126750Y0164625D03*
D325*
X0120087Y0178250D03*
X0120087Y0178275D03*
X0110587Y0164650D03*
D326*
X0126825Y0164650D03*
D327*
X0120287Y0167700D03*
X0110512Y0164675D03*
X0108887Y0166625D03*
X0120012Y0178125D03*
D328*
X0126912Y0164675D03*
D329*
X0119950Y0178000D03*
X0110450Y0164700D03*
D330*
X0126975Y0164700D03*
X0136775Y0172000D03*
D331*
X0125100Y0169250D03*
X0125050Y0169225D03*
X0123625Y0168550D03*
X0119825Y0177775D03*
X0119850Y0177800D03*
X0110325Y0164750D03*
D332*
X0127100Y0164750D03*
X0136725Y0172100D03*
D333*
X0125662Y0169650D03*
X0125562Y0169575D03*
X0125462Y0169500D03*
X0119762Y0177625D03*
X0110262Y0164775D03*
D334*
X0127150Y0164775D03*
D335*
X0125800Y0169750D03*
X0125825Y0169775D03*
X0125850Y0169800D03*
X0119725Y0177525D03*
X0108875Y0166375D03*
X0110200Y0164800D03*
D336*
X0127225Y0164800D03*
X0136700Y0172175D03*
D337*
X0125987Y0169925D03*
X0119687Y0177450D03*
X0108862Y0166325D03*
X0110137Y0164825D03*
X0138663Y0192350D03*
D338*
X0134788Y0169225D03*
X0127287Y0164825D03*
D339*
X0120850Y0167825D03*
X0119650Y0177350D03*
X0110075Y0164850D03*
D340*
X0127412Y0164875D03*
X0134913Y0169475D03*
D341*
X0134975Y0169625D03*
X0134975Y0169650D03*
X0127525Y0164925D03*
D342*
X0127575Y0164950D03*
X0135000Y0169700D03*
D343*
X0126837Y0170825D03*
X0126812Y0170800D03*
X0119487Y0176975D03*
X0108837Y0166100D03*
X0109787Y0164975D03*
D344*
X0127637Y0164975D03*
X0135038Y0169800D03*
D345*
X0126950Y0170975D03*
X0126925Y0170950D03*
X0121275Y0167950D03*
X0119475Y0176925D03*
X0109725Y0165000D03*
D346*
X0127737Y0165025D03*
X0135088Y0169925D03*
D347*
X0127075Y0171150D03*
X0127050Y0171125D03*
X0119425Y0176800D03*
X0108750Y0168450D03*
X0108825Y0166000D03*
X0109600Y0165075D03*
X0109650Y0165050D03*
X0138650Y0192600D03*
D348*
X0135163Y0170150D03*
X0135163Y0170125D03*
X0127837Y0165075D03*
D349*
X0127887Y0165100D03*
X0135188Y0170200D03*
X0135188Y0170225D03*
D350*
X0127162Y0171300D03*
X0127137Y0171250D03*
X0121512Y0168025D03*
X0119412Y0176750D03*
X0108837Y0165950D03*
X0109537Y0165125D03*
X0138638Y0192625D03*
D351*
X0135250Y0170400D03*
X0135250Y0170375D03*
X0128000Y0165150D03*
D352*
X0127225Y0171400D03*
X0109450Y0165175D03*
X0108825Y0165900D03*
D353*
X0128037Y0165175D03*
X0135263Y0170425D03*
D354*
X0135288Y0170550D03*
X0128087Y0165200D03*
D355*
X0121650Y0168075D03*
X0127275Y0171500D03*
X0119375Y0176625D03*
X0108700Y0168500D03*
X0108825Y0165875D03*
X0109375Y0165225D03*
X0138650Y0192675D03*
D356*
X0135300Y0170600D03*
X0135300Y0170575D03*
X0128125Y0165225D03*
D357*
X0128187Y0165250D03*
X0135338Y0170700D03*
X0135338Y0170725D03*
D358*
X0127325Y0171575D03*
X0127300Y0171550D03*
X0121725Y0168100D03*
X0116050Y0166400D03*
X0109300Y0165275D03*
X0108825Y0165850D03*
D359*
X0128275Y0165300D03*
X0135350Y0170800D03*
D360*
X0135388Y0170900D03*
X0135388Y0170925D03*
X0128312Y0165325D03*
D361*
X0128362Y0165350D03*
X0135413Y0171000D03*
D362*
X0128400Y0165375D03*
D363*
X0121925Y0168175D03*
X0127425Y0171800D03*
X0130875Y0179700D03*
X0119325Y0176475D03*
X0108650Y0168550D03*
X0109125Y0165400D03*
D364*
X0128450Y0165400D03*
X0134100Y0169200D03*
X0135425Y0171075D03*
X0135425Y0171100D03*
D365*
X0135438Y0171125D03*
X0135438Y0171150D03*
X0128487Y0165425D03*
D366*
X0122050Y0168225D03*
X0127450Y0171875D03*
X0130875Y0179675D03*
X0109050Y0165450D03*
D367*
X0128537Y0165450D03*
X0135438Y0171200D03*
D368*
X0135463Y0171250D03*
X0135463Y0171275D03*
X0128562Y0165475D03*
D369*
X0127487Y0171975D03*
X0130887Y0179625D03*
X0108987Y0165500D03*
X0108812Y0165700D03*
D370*
X0128612Y0165500D03*
X0133963Y0169150D03*
D371*
X0127512Y0172025D03*
X0127512Y0172050D03*
X0122237Y0168300D03*
X0119287Y0176350D03*
X0108812Y0165675D03*
X0108912Y0165550D03*
X0138638Y0192800D03*
D372*
X0135500Y0171450D03*
X0133900Y0169125D03*
X0128700Y0165550D03*
D373*
X0128737Y0165575D03*
X0135488Y0171475D03*
D374*
X0127537Y0172100D03*
X0127537Y0172125D03*
X0130912Y0179550D03*
X0108612Y0168600D03*
X0108812Y0165625D03*
X0108837Y0165600D03*
D375*
X0128787Y0165600D03*
X0135513Y0171550D03*
X0135513Y0171575D03*
D376*
X0135513Y0171600D03*
X0137263Y0172425D03*
X0128862Y0165650D03*
D377*
X0128900Y0165675D03*
X0133725Y0169050D03*
X0135525Y0171725D03*
X0137275Y0172450D03*
D378*
X0135538Y0171775D03*
X0135538Y0171750D03*
X0128937Y0165700D03*
D379*
X0127462Y0171900D03*
X0122112Y0168250D03*
X0119312Y0176425D03*
X0130887Y0179650D03*
X0108812Y0165725D03*
D380*
X0128975Y0165725D03*
X0133675Y0169025D03*
D381*
X0133625Y0169000D03*
X0135550Y0171850D03*
X0135550Y0171875D03*
X0129025Y0165750D03*
D382*
X0129062Y0165775D03*
X0135563Y0171900D03*
D383*
X0135550Y0171925D03*
X0129100Y0165800D03*
D384*
X0129137Y0165825D03*
X0133588Y0168975D03*
X0135563Y0171950D03*
X0137263Y0172500D03*
D385*
X0129175Y0165850D03*
D386*
X0129212Y0165875D03*
X0133488Y0168925D03*
X0124462Y0181575D03*
D387*
X0137250Y0172550D03*
X0129250Y0165900D03*
D388*
X0129287Y0165925D03*
X0133438Y0168900D03*
D389*
X0133400Y0168875D03*
X0129325Y0165950D03*
X0124450Y0181600D03*
D390*
X0129362Y0165975D03*
D391*
X0129400Y0166000D03*
X0133350Y0168850D03*
X0137250Y0172575D03*
X0124450Y0181625D03*
D392*
X0124450Y0181650D03*
X0137250Y0172600D03*
X0133300Y0168825D03*
X0129475Y0166050D03*
D393*
X0129512Y0166075D03*
X0133263Y0168800D03*
D394*
X0133225Y0168775D03*
X0129550Y0166100D03*
D395*
X0129587Y0166125D03*
X0124437Y0181675D03*
D396*
X0137250Y0172625D03*
X0133175Y0168750D03*
X0129625Y0166150D03*
D397*
X0129700Y0166200D03*
X0133100Y0168700D03*
D398*
X0119600Y0177225D03*
X0119600Y0177250D03*
X0108850Y0166225D03*
D399*
X0110487Y0167625D03*
X0124437Y0181725D03*
X0137238Y0172650D03*
X0133063Y0168675D03*
X0129737Y0166225D03*
D400*
X0126325Y0170225D03*
X0126350Y0170250D03*
X0119625Y0177300D03*
X0108850Y0168350D03*
X0108850Y0166250D03*
D401*
X0129775Y0166250D03*
X0133025Y0168650D03*
D402*
X0126287Y0170200D03*
X0126262Y0170175D03*
X0126237Y0170150D03*
X0119637Y0177325D03*
X0124237Y0182900D03*
X0138663Y0192400D03*
X0108862Y0166275D03*
D403*
X0129800Y0166275D03*
X0129875Y0166325D03*
X0132975Y0168625D03*
D404*
X0126212Y0170125D03*
X0126187Y0170100D03*
X0126162Y0170075D03*
X0126137Y0170050D03*
X0126112Y0170025D03*
X0119662Y0177375D03*
X0108862Y0166300D03*
X0138663Y0192375D03*
D405*
X0124437Y0181750D03*
X0137238Y0172675D03*
X0132938Y0168600D03*
X0129912Y0166350D03*
X0129837Y0166300D03*
D406*
X0116050Y0166325D03*
X0108150Y0169425D03*
D407*
X0108862Y0166350D03*
X0119712Y0177500D03*
X0125912Y0169850D03*
X0125887Y0169825D03*
X0138663Y0192325D03*
D408*
X0119750Y0177600D03*
X0125625Y0169625D03*
X0125600Y0169600D03*
X0125700Y0169675D03*
X0108900Y0168300D03*
X0108875Y0166400D03*
D409*
X0129987Y0166400D03*
X0130012Y0166425D03*
X0132863Y0168550D03*
X0137238Y0172700D03*
X0124437Y0181775D03*
D410*
X0119775Y0177650D03*
X0125525Y0169550D03*
X0125500Y0169525D03*
X0125425Y0169475D03*
X0108875Y0166425D03*
X0138675Y0192275D03*
D411*
X0119800Y0177700D03*
X0125325Y0169400D03*
X0125250Y0169350D03*
X0108925Y0168275D03*
X0108875Y0166450D03*
D412*
X0116012Y0166450D03*
X0120637Y0167775D03*
X0125737Y0169700D03*
X0125762Y0169725D03*
X0119737Y0177550D03*
X0119737Y0177575D03*
X0124237Y0182875D03*
X0137438Y0173700D03*
X0138663Y0192300D03*
D413*
X0132788Y0168500D03*
X0130037Y0166450D03*
D414*
X0125287Y0169375D03*
X0125212Y0169325D03*
X0125162Y0169300D03*
X0125137Y0169275D03*
X0120512Y0167750D03*
X0119812Y0177725D03*
X0119812Y0177750D03*
X0108887Y0166475D03*
X0138688Y0192225D03*
D415*
X0120037Y0178175D03*
X0109012Y0168200D03*
X0115987Y0166475D03*
D416*
X0130075Y0166475D03*
X0130125Y0166500D03*
X0130150Y0166525D03*
X0132750Y0168475D03*
X0124425Y0181800D03*
D417*
X0124262Y0182850D03*
X0119862Y0177825D03*
X0123712Y0168575D03*
X0124887Y0169125D03*
X0124937Y0169150D03*
X0124962Y0169175D03*
X0125012Y0169200D03*
X0137313Y0173650D03*
X0138688Y0192200D03*
X0108887Y0166500D03*
D418*
X0109100Y0168125D03*
X0115975Y0166500D03*
X0119975Y0167650D03*
X0120400Y0178775D03*
D419*
X0120825Y0179400D03*
X0120850Y0179425D03*
X0124325Y0182700D03*
X0119750Y0167625D03*
X0115975Y0166525D03*
D420*
X0120400Y0167725D03*
X0123975Y0168675D03*
X0124150Y0168750D03*
X0124225Y0168775D03*
X0124275Y0168800D03*
X0124325Y0168825D03*
X0124375Y0168850D03*
X0124425Y0168875D03*
X0124525Y0168925D03*
X0119900Y0177900D03*
X0119900Y0177925D03*
X0119925Y0177950D03*
X0108875Y0166550D03*
X0137250Y0173625D03*
D421*
X0137238Y0172725D03*
X0132713Y0168450D03*
X0130187Y0166550D03*
X0115887Y0166850D03*
D422*
X0108887Y0166575D03*
X0119937Y0177975D03*
X0138688Y0192150D03*
D423*
X0132675Y0168425D03*
X0132650Y0168400D03*
X0130250Y0166600D03*
X0130225Y0166575D03*
D424*
X0137213Y0173600D03*
X0119962Y0178025D03*
X0108987Y0168225D03*
X0108887Y0166600D03*
X0138688Y0192125D03*
D425*
X0115962Y0166600D03*
D426*
X0115962Y0166625D03*
X0137163Y0173225D03*
D427*
X0132613Y0168375D03*
X0130287Y0166625D03*
X0124437Y0181825D03*
D428*
X0120025Y0178150D03*
X0137150Y0173575D03*
X0138700Y0192075D03*
X0108900Y0166650D03*
D429*
X0115962Y0166650D03*
X0122637Y0181000D03*
X0124387Y0182375D03*
X0137163Y0173175D03*
D430*
X0120075Y0178225D03*
X0120050Y0178200D03*
X0108900Y0166675D03*
X0138700Y0192050D03*
D431*
X0124375Y0182300D03*
X0115950Y0166675D03*
D432*
X0130362Y0166675D03*
X0130387Y0166700D03*
X0132513Y0168300D03*
X0132538Y0168325D03*
D433*
X0137100Y0173550D03*
X0120125Y0178325D03*
X0108900Y0166700D03*
X0138700Y0192025D03*
D434*
X0124387Y0182225D03*
X0122687Y0180750D03*
X0115937Y0166700D03*
D435*
X0108900Y0166725D03*
X0109050Y0168175D03*
X0120150Y0178375D03*
X0124300Y0182800D03*
X0138700Y0191975D03*
D436*
X0122712Y0180625D03*
X0137188Y0173000D03*
X0115912Y0166725D03*
D437*
X0110325Y0167650D03*
X0124425Y0181850D03*
X0132425Y0168250D03*
X0132475Y0168275D03*
X0130450Y0166750D03*
X0130425Y0166725D03*
D438*
X0115900Y0166775D03*
D439*
X0130487Y0166775D03*
X0132363Y0168200D03*
X0132388Y0168225D03*
D440*
X0120250Y0178525D03*
X0120250Y0178550D03*
X0108900Y0166800D03*
D441*
X0115900Y0166800D03*
X0131400Y0167475D03*
X0131500Y0167550D03*
X0137225Y0172825D03*
D442*
X0137225Y0172775D03*
X0132325Y0168175D03*
X0130550Y0166825D03*
X0130525Y0166800D03*
X0124425Y0181875D03*
D443*
X0124300Y0182775D03*
X0120300Y0178625D03*
X0108900Y0166825D03*
D444*
X0115887Y0166825D03*
X0130587Y0166850D03*
X0132263Y0168125D03*
X0132288Y0168150D03*
D445*
X0120337Y0178675D03*
X0120312Y0178650D03*
X0108912Y0166850D03*
D446*
X0113375Y0166875D03*
D447*
X0130625Y0166875D03*
X0130650Y0166900D03*
X0130725Y0166950D03*
X0130750Y0166975D03*
X0132200Y0168075D03*
X0132225Y0168100D03*
D448*
X0113450Y0166925D03*
D449*
X0108312Y0169075D03*
X0128337Y0175850D03*
X0128337Y0175875D03*
X0128337Y0175900D03*
X0128337Y0175925D03*
X0128337Y0175950D03*
X0128337Y0175975D03*
X0128337Y0176075D03*
X0128337Y0176100D03*
X0128337Y0176125D03*
X0128337Y0176150D03*
X0139863Y0169000D03*
X0139863Y0168975D03*
X0139863Y0168950D03*
X0139838Y0168725D03*
X0139838Y0168700D03*
X0144038Y0167925D03*
X0144038Y0167300D03*
X0144038Y0167275D03*
X0144038Y0167250D03*
X0144038Y0167225D03*
X0144013Y0166925D03*
X0142163Y0183625D03*
X0142188Y0183850D03*
X0142213Y0184075D03*
X0142238Y0184350D03*
X0142238Y0184375D03*
X0142263Y0184700D03*
X0142263Y0184725D03*
X0142263Y0184750D03*
X0142263Y0184775D03*
X0142288Y0185200D03*
X0142288Y0185225D03*
X0142288Y0185250D03*
X0142288Y0185275D03*
X0142288Y0185300D03*
X0142288Y0185325D03*
X0142288Y0185350D03*
X0142288Y0185375D03*
X0142288Y0185400D03*
X0142288Y0185425D03*
X0142288Y0185450D03*
X0142288Y0185475D03*
X0142288Y0186050D03*
X0142288Y0186075D03*
X0142288Y0186100D03*
X0142288Y0186125D03*
X0142288Y0186150D03*
X0142288Y0186175D03*
X0142288Y0186200D03*
X0142263Y0186650D03*
X0142263Y0186675D03*
D450*
X0113487Y0166950D03*
D451*
X0113562Y0167000D03*
D452*
X0113587Y0167025D03*
D453*
X0130825Y0167025D03*
X0130850Y0167050D03*
X0130875Y0167075D03*
X0130950Y0167125D03*
X0132025Y0167950D03*
X0132050Y0167975D03*
X0137225Y0172800D03*
D454*
X0113612Y0167050D03*
D455*
X0113650Y0167075D03*
D456*
X0113675Y0167100D03*
D457*
X0130912Y0167100D03*
X0130987Y0167150D03*
X0131012Y0167175D03*
X0131037Y0167200D03*
X0131888Y0167850D03*
X0131913Y0167875D03*
X0131963Y0167900D03*
X0131988Y0167925D03*
D458*
X0113700Y0167125D03*
D459*
X0113825Y0167225D03*
D460*
X0131075Y0167225D03*
X0131100Y0167250D03*
X0131150Y0167275D03*
X0131175Y0167300D03*
X0131275Y0167375D03*
X0131625Y0167650D03*
X0131700Y0167700D03*
X0131725Y0167725D03*
X0131750Y0167750D03*
X0131825Y0167800D03*
X0131850Y0167825D03*
X0124425Y0181925D03*
D461*
X0113837Y0167250D03*
D462*
X0113862Y0167275D03*
D463*
X0113900Y0167300D03*
D464*
X0113912Y0167325D03*
D465*
X0131213Y0167325D03*
X0131238Y0167350D03*
X0131313Y0167400D03*
X0131338Y0167425D03*
X0131363Y0167450D03*
X0131438Y0167500D03*
X0131463Y0167525D03*
X0131538Y0167575D03*
X0131563Y0167600D03*
X0131588Y0167625D03*
X0131663Y0167675D03*
X0131788Y0167775D03*
D466*
X0113937Y0167350D03*
D467*
X0113987Y0167400D03*
D468*
X0114000Y0167425D03*
D469*
X0114025Y0167450D03*
D470*
X0114050Y0167475D03*
D471*
X0114100Y0167525D03*
D472*
X0114150Y0167575D03*
D473*
X0109350Y0167975D03*
X0119450Y0167600D03*
X0121600Y0180300D03*
X0121625Y0180325D03*
X0124350Y0182600D03*
D474*
X0137213Y0172850D03*
X0110187Y0167675D03*
D475*
X0110075Y0167700D03*
X0122750Y0180425D03*
X0122750Y0180450D03*
D476*
X0122725Y0180575D03*
X0124400Y0182125D03*
X0137200Y0172975D03*
X0110000Y0167725D03*
D477*
X0109825Y0167775D03*
D478*
X0109750Y0167800D03*
X0137175Y0173125D03*
D479*
X0125975Y0169900D03*
X0125950Y0169875D03*
X0120750Y0167800D03*
X0119700Y0177475D03*
D480*
X0122637Y0180975D03*
X0109687Y0167825D03*
D481*
X0109612Y0167850D03*
D482*
X0109500Y0167900D03*
X0122625Y0181250D03*
D483*
X0109437Y0167925D03*
D484*
X0109312Y0168000D03*
X0121312Y0180000D03*
X0121337Y0180025D03*
D485*
X0121150Y0179800D03*
X0121125Y0179775D03*
X0121100Y0179750D03*
X0109275Y0168025D03*
D486*
X0109225Y0168050D03*
X0120900Y0179500D03*
X0120925Y0179525D03*
D487*
X0120737Y0179275D03*
X0109187Y0168075D03*
D488*
X0108950Y0168250D03*
X0119875Y0177850D03*
X0123775Y0168600D03*
X0123850Y0168625D03*
X0124625Y0168975D03*
X0124800Y0169075D03*
X0124850Y0169100D03*
D489*
X0122450Y0168400D03*
X0127550Y0172175D03*
X0127550Y0172200D03*
X0119275Y0176275D03*
D490*
X0124950Y0168425D03*
X0108175Y0169375D03*
D491*
X0122575Y0168450D03*
X0127575Y0172250D03*
X0138625Y0192850D03*
D492*
X0119062Y0175600D03*
X0124962Y0168450D03*
D493*
X0122612Y0168475D03*
X0127587Y0172275D03*
X0130912Y0179450D03*
D494*
X0124962Y0168475D03*
D495*
X0132825Y0168525D03*
D496*
X0133538Y0168950D03*
X0137263Y0172525D03*
D497*
X0135525Y0171650D03*
X0135525Y0171625D03*
X0133775Y0169075D03*
D498*
X0124175Y0183150D03*
X0108300Y0169100D03*
D499*
X0133850Y0169100D03*
X0135500Y0171500D03*
X0135500Y0171525D03*
D500*
X0138613Y0193175D03*
X0108262Y0169150D03*
D501*
X0108250Y0169175D03*
D502*
X0134025Y0169175D03*
X0135450Y0171225D03*
D503*
X0108250Y0169200D03*
D504*
X0108237Y0169225D03*
D505*
X0134800Y0169250D03*
X0136675Y0172225D03*
D506*
X0108212Y0169275D03*
D507*
X0134813Y0169275D03*
X0136663Y0172250D03*
D508*
X0119062Y0175575D03*
X0108212Y0169300D03*
D509*
X0134825Y0169300D03*
X0136650Y0172275D03*
D510*
X0108200Y0169325D03*
D511*
X0108187Y0169350D03*
D512*
X0134850Y0169350D03*
X0134875Y0169400D03*
D513*
X0108162Y0169400D03*
D514*
X0119787Y0177675D03*
X0125387Y0169450D03*
X0125362Y0169425D03*
X0137363Y0173675D03*
X0138688Y0192250D03*
D515*
X0136638Y0172300D03*
X0134888Y0169425D03*
D516*
X0124162Y0183175D03*
X0108137Y0169450D03*
D517*
X0134900Y0169450D03*
X0136625Y0172325D03*
D518*
X0136625Y0172350D03*
X0134925Y0169525D03*
X0134925Y0169500D03*
D519*
X0134950Y0169575D03*
X0136600Y0172375D03*
D520*
X0136588Y0172400D03*
X0134963Y0169600D03*
D521*
X0135013Y0169725D03*
D522*
X0135025Y0169750D03*
X0135025Y0169775D03*
D523*
X0135050Y0169825D03*
D524*
X0135075Y0169900D03*
D525*
X0135100Y0169950D03*
X0135100Y0169975D03*
D526*
X0135113Y0170000D03*
D527*
X0135125Y0170025D03*
D528*
X0135150Y0170100D03*
D529*
X0135175Y0170175D03*
D530*
X0135200Y0170250D03*
D531*
X0135225Y0170325D03*
D532*
X0135238Y0170350D03*
D533*
X0135275Y0170450D03*
D534*
X0135275Y0170500D03*
X0135275Y0170525D03*
D535*
X0137663Y0173775D03*
X0126687Y0170625D03*
X0126662Y0170600D03*
X0119537Y0177075D03*
X0119537Y0177100D03*
D536*
X0135313Y0170625D03*
D537*
X0135325Y0170650D03*
X0135325Y0170675D03*
D538*
X0135363Y0170775D03*
D539*
X0135363Y0170825D03*
D540*
X0135375Y0170850D03*
X0135375Y0170875D03*
D541*
X0135413Y0171025D03*
X0135413Y0171050D03*
D542*
X0135475Y0171300D03*
X0135475Y0171325D03*
D543*
X0135488Y0171400D03*
X0135488Y0171425D03*
D544*
X0135538Y0171675D03*
X0135538Y0171700D03*
D545*
X0141750Y0171825D03*
X0130975Y0179075D03*
X0128350Y0181300D03*
X0128300Y0181325D03*
X0127625Y0172775D03*
X0140025Y0191925D03*
D546*
X0128175Y0181400D03*
X0128125Y0181425D03*
X0119200Y0176000D03*
X0141625Y0171900D03*
D547*
X0141538Y0171950D03*
X0130962Y0179200D03*
X0127637Y0172625D03*
X0138613Y0192950D03*
D548*
X0136763Y0172025D03*
D549*
X0136750Y0172050D03*
D550*
X0136738Y0172075D03*
D551*
X0136725Y0172125D03*
D552*
X0127587Y0172325D03*
X0119237Y0176200D03*
D553*
X0119225Y0176100D03*
X0127625Y0172525D03*
X0127625Y0172500D03*
X0127900Y0181525D03*
D554*
X0124412Y0182000D03*
X0137213Y0172875D03*
D555*
X0137213Y0172900D03*
D556*
X0137213Y0172925D03*
D557*
X0137213Y0172950D03*
X0122737Y0180500D03*
D558*
X0122700Y0180675D03*
X0137200Y0173025D03*
D559*
X0137175Y0173075D03*
D560*
X0137175Y0173150D03*
X0122650Y0180950D03*
D561*
X0124362Y0182500D03*
X0137138Y0173275D03*
D562*
X0137138Y0173300D03*
D563*
X0137138Y0173325D03*
D564*
X0137125Y0173350D03*
D565*
X0137125Y0173375D03*
X0124350Y0182625D03*
X0121450Y0180150D03*
X0121425Y0180125D03*
D566*
X0121237Y0179900D03*
X0121212Y0179875D03*
X0124337Y0182650D03*
X0137113Y0173400D03*
D567*
X0137113Y0173425D03*
X0124337Y0182675D03*
X0121012Y0179650D03*
X0121012Y0179625D03*
D568*
X0120775Y0179325D03*
X0120750Y0179300D03*
X0137100Y0173450D03*
D569*
X0137088Y0173475D03*
X0120562Y0179025D03*
X0120537Y0179000D03*
D570*
X0120387Y0178750D03*
X0120362Y0178725D03*
X0137088Y0173500D03*
D571*
X0137000Y0173875D03*
D572*
X0119075Y0175625D03*
D573*
X0119087Y0175650D03*
D574*
X0119975Y0178050D03*
X0119975Y0178075D03*
X0120000Y0178100D03*
X0124275Y0182825D03*
X0138700Y0192100D03*
D575*
X0138688Y0192000D03*
X0120137Y0178350D03*
X0120112Y0178300D03*
D576*
X0120212Y0178475D03*
D577*
X0120412Y0178800D03*
X0120437Y0178825D03*
D578*
X0120462Y0178875D03*
X0120487Y0178925D03*
D579*
X0120500Y0178950D03*
X0120525Y0178975D03*
D580*
X0120625Y0179125D03*
X0120650Y0179150D03*
D581*
X0120662Y0179175D03*
X0120687Y0179200D03*
X0124312Y0182725D03*
D582*
X0120725Y0179250D03*
X0120700Y0179225D03*
D583*
X0120862Y0179450D03*
X0120887Y0179475D03*
D584*
X0121050Y0179675D03*
D585*
X0121062Y0179700D03*
X0121087Y0179725D03*
D586*
X0121250Y0179925D03*
X0121275Y0179950D03*
X0121300Y0179975D03*
D587*
X0121475Y0180175D03*
X0121500Y0180200D03*
X0121525Y0180225D03*
X0121550Y0180250D03*
D588*
X0121562Y0180275D03*
D589*
X0122737Y0180475D03*
X0124412Y0182075D03*
D590*
X0124400Y0182100D03*
X0122725Y0180525D03*
D591*
X0122725Y0180550D03*
D592*
X0122712Y0180650D03*
D593*
X0122700Y0180700D03*
X0124400Y0182200D03*
D594*
X0122687Y0180775D03*
D595*
X0122687Y0180800D03*
X0124387Y0182250D03*
D596*
X0122675Y0180850D03*
D597*
X0122662Y0180875D03*
D598*
X0122637Y0181025D03*
D599*
X0122625Y0181075D03*
D600*
X0122625Y0181100D03*
D601*
X0122625Y0181125D03*
D602*
X0122612Y0181175D03*
X0122887Y0181450D03*
X0124362Y0182475D03*
D603*
X0122650Y0181275D03*
X0122600Y0181225D03*
X0122600Y0181200D03*
D604*
X0122687Y0181300D03*
X0122712Y0181325D03*
X0122762Y0181350D03*
X0122787Y0181375D03*
D605*
X0122825Y0181400D03*
X0122850Y0181425D03*
D606*
X0123025Y0181550D03*
D607*
X0124412Y0181950D03*
D608*
X0124425Y0181975D03*
D609*
X0124412Y0182050D03*
D610*
X0124400Y0182175D03*
D611*
X0124387Y0182275D03*
D612*
X0124387Y0182350D03*
D613*
X0124375Y0182400D03*
D614*
X0124362Y0182425D03*
D615*
X0124362Y0182450D03*
D616*
X0124350Y0182525D03*
D617*
X0124350Y0182550D03*
D618*
X0243500Y0134000D02*
X0260500Y0134000D01*
X0264000Y0125929D02*
X0264000Y0118000D01*
X0260500Y0110000D02*
X0243500Y0110000D01*
X0243500Y0104000D02*
X0260500Y0104000D01*
X0264000Y0095929D02*
X0264000Y0088000D01*
X0260500Y0080000D02*
X0243500Y0080000D01*
X0243500Y0074000D02*
X0260500Y0074000D01*
X0264000Y0065929D02*
X0264000Y0058000D01*
X0260500Y0050000D02*
X0243500Y0050000D01*
X0240000Y0058000D02*
X0240000Y0066047D01*
X0245000Y0062000D02*
X0245002Y0062172D01*
X0245008Y0062343D01*
X0245019Y0062515D01*
X0245034Y0062686D01*
X0245053Y0062857D01*
X0245076Y0063027D01*
X0245103Y0063197D01*
X0245135Y0063366D01*
X0245170Y0063534D01*
X0245210Y0063701D01*
X0245254Y0063867D01*
X0245301Y0064032D01*
X0245353Y0064196D01*
X0245409Y0064358D01*
X0245469Y0064519D01*
X0245533Y0064679D01*
X0245601Y0064837D01*
X0245672Y0064993D01*
X0245747Y0065147D01*
X0245827Y0065300D01*
X0245909Y0065450D01*
X0245996Y0065599D01*
X0246086Y0065745D01*
X0246180Y0065889D01*
X0246277Y0066031D01*
X0246378Y0066170D01*
X0246482Y0066307D01*
X0246589Y0066441D01*
X0246700Y0066572D01*
X0246813Y0066701D01*
X0246930Y0066827D01*
X0247050Y0066950D01*
X0247173Y0067070D01*
X0247299Y0067187D01*
X0247428Y0067300D01*
X0247559Y0067411D01*
X0247693Y0067518D01*
X0247830Y0067622D01*
X0247969Y0067723D01*
X0248111Y0067820D01*
X0248255Y0067914D01*
X0248401Y0068004D01*
X0248550Y0068091D01*
X0248700Y0068173D01*
X0248853Y0068253D01*
X0249007Y0068328D01*
X0249163Y0068399D01*
X0249321Y0068467D01*
X0249481Y0068531D01*
X0249642Y0068591D01*
X0249804Y0068647D01*
X0249968Y0068699D01*
X0250133Y0068746D01*
X0250299Y0068790D01*
X0250466Y0068830D01*
X0250634Y0068865D01*
X0250803Y0068897D01*
X0250973Y0068924D01*
X0251143Y0068947D01*
X0251314Y0068966D01*
X0251485Y0068981D01*
X0251657Y0068992D01*
X0251828Y0068998D01*
X0252000Y0069000D01*
X0252172Y0068998D01*
X0252343Y0068992D01*
X0252515Y0068981D01*
X0252686Y0068966D01*
X0252857Y0068947D01*
X0253027Y0068924D01*
X0253197Y0068897D01*
X0253366Y0068865D01*
X0253534Y0068830D01*
X0253701Y0068790D01*
X0253867Y0068746D01*
X0254032Y0068699D01*
X0254196Y0068647D01*
X0254358Y0068591D01*
X0254519Y0068531D01*
X0254679Y0068467D01*
X0254837Y0068399D01*
X0254993Y0068328D01*
X0255147Y0068253D01*
X0255300Y0068173D01*
X0255450Y0068091D01*
X0255599Y0068004D01*
X0255745Y0067914D01*
X0255889Y0067820D01*
X0256031Y0067723D01*
X0256170Y0067622D01*
X0256307Y0067518D01*
X0256441Y0067411D01*
X0256572Y0067300D01*
X0256701Y0067187D01*
X0256827Y0067070D01*
X0256950Y0066950D01*
X0257070Y0066827D01*
X0257187Y0066701D01*
X0257300Y0066572D01*
X0257411Y0066441D01*
X0257518Y0066307D01*
X0257622Y0066170D01*
X0257723Y0066031D01*
X0257820Y0065889D01*
X0257914Y0065745D01*
X0258004Y0065599D01*
X0258091Y0065450D01*
X0258173Y0065300D01*
X0258253Y0065147D01*
X0258328Y0064993D01*
X0258399Y0064837D01*
X0258467Y0064679D01*
X0258531Y0064519D01*
X0258591Y0064358D01*
X0258647Y0064196D01*
X0258699Y0064032D01*
X0258746Y0063867D01*
X0258790Y0063701D01*
X0258830Y0063534D01*
X0258865Y0063366D01*
X0258897Y0063197D01*
X0258924Y0063027D01*
X0258947Y0062857D01*
X0258966Y0062686D01*
X0258981Y0062515D01*
X0258992Y0062343D01*
X0258998Y0062172D01*
X0259000Y0062000D01*
X0258998Y0061828D01*
X0258992Y0061657D01*
X0258981Y0061485D01*
X0258966Y0061314D01*
X0258947Y0061143D01*
X0258924Y0060973D01*
X0258897Y0060803D01*
X0258865Y0060634D01*
X0258830Y0060466D01*
X0258790Y0060299D01*
X0258746Y0060133D01*
X0258699Y0059968D01*
X0258647Y0059804D01*
X0258591Y0059642D01*
X0258531Y0059481D01*
X0258467Y0059321D01*
X0258399Y0059163D01*
X0258328Y0059007D01*
X0258253Y0058853D01*
X0258173Y0058700D01*
X0258091Y0058550D01*
X0258004Y0058401D01*
X0257914Y0058255D01*
X0257820Y0058111D01*
X0257723Y0057969D01*
X0257622Y0057830D01*
X0257518Y0057693D01*
X0257411Y0057559D01*
X0257300Y0057428D01*
X0257187Y0057299D01*
X0257070Y0057173D01*
X0256950Y0057050D01*
X0256827Y0056930D01*
X0256701Y0056813D01*
X0256572Y0056700D01*
X0256441Y0056589D01*
X0256307Y0056482D01*
X0256170Y0056378D01*
X0256031Y0056277D01*
X0255889Y0056180D01*
X0255745Y0056086D01*
X0255599Y0055996D01*
X0255450Y0055909D01*
X0255300Y0055827D01*
X0255147Y0055747D01*
X0254993Y0055672D01*
X0254837Y0055601D01*
X0254679Y0055533D01*
X0254519Y0055469D01*
X0254358Y0055409D01*
X0254196Y0055353D01*
X0254032Y0055301D01*
X0253867Y0055254D01*
X0253701Y0055210D01*
X0253534Y0055170D01*
X0253366Y0055135D01*
X0253197Y0055103D01*
X0253027Y0055076D01*
X0252857Y0055053D01*
X0252686Y0055034D01*
X0252515Y0055019D01*
X0252343Y0055008D01*
X0252172Y0055002D01*
X0252000Y0055000D01*
X0251828Y0055002D01*
X0251657Y0055008D01*
X0251485Y0055019D01*
X0251314Y0055034D01*
X0251143Y0055053D01*
X0250973Y0055076D01*
X0250803Y0055103D01*
X0250634Y0055135D01*
X0250466Y0055170D01*
X0250299Y0055210D01*
X0250133Y0055254D01*
X0249968Y0055301D01*
X0249804Y0055353D01*
X0249642Y0055409D01*
X0249481Y0055469D01*
X0249321Y0055533D01*
X0249163Y0055601D01*
X0249007Y0055672D01*
X0248853Y0055747D01*
X0248700Y0055827D01*
X0248550Y0055909D01*
X0248401Y0055996D01*
X0248255Y0056086D01*
X0248111Y0056180D01*
X0247969Y0056277D01*
X0247830Y0056378D01*
X0247693Y0056482D01*
X0247559Y0056589D01*
X0247428Y0056700D01*
X0247299Y0056813D01*
X0247173Y0056930D01*
X0247050Y0057050D01*
X0246930Y0057173D01*
X0246813Y0057299D01*
X0246700Y0057428D01*
X0246589Y0057559D01*
X0246482Y0057693D01*
X0246378Y0057830D01*
X0246277Y0057969D01*
X0246180Y0058111D01*
X0246086Y0058255D01*
X0245996Y0058401D01*
X0245909Y0058550D01*
X0245827Y0058700D01*
X0245747Y0058853D01*
X0245672Y0059007D01*
X0245601Y0059163D01*
X0245533Y0059321D01*
X0245469Y0059481D01*
X0245409Y0059642D01*
X0245353Y0059804D01*
X0245301Y0059968D01*
X0245254Y0060133D01*
X0245210Y0060299D01*
X0245170Y0060466D01*
X0245135Y0060634D01*
X0245103Y0060803D01*
X0245076Y0060973D01*
X0245053Y0061143D01*
X0245034Y0061314D01*
X0245019Y0061485D01*
X0245008Y0061657D01*
X0245002Y0061828D01*
X0245000Y0062000D01*
X0240000Y0088000D02*
X0240000Y0096047D01*
X0245000Y0092000D02*
X0245002Y0092172D01*
X0245008Y0092343D01*
X0245019Y0092515D01*
X0245034Y0092686D01*
X0245053Y0092857D01*
X0245076Y0093027D01*
X0245103Y0093197D01*
X0245135Y0093366D01*
X0245170Y0093534D01*
X0245210Y0093701D01*
X0245254Y0093867D01*
X0245301Y0094032D01*
X0245353Y0094196D01*
X0245409Y0094358D01*
X0245469Y0094519D01*
X0245533Y0094679D01*
X0245601Y0094837D01*
X0245672Y0094993D01*
X0245747Y0095147D01*
X0245827Y0095300D01*
X0245909Y0095450D01*
X0245996Y0095599D01*
X0246086Y0095745D01*
X0246180Y0095889D01*
X0246277Y0096031D01*
X0246378Y0096170D01*
X0246482Y0096307D01*
X0246589Y0096441D01*
X0246700Y0096572D01*
X0246813Y0096701D01*
X0246930Y0096827D01*
X0247050Y0096950D01*
X0247173Y0097070D01*
X0247299Y0097187D01*
X0247428Y0097300D01*
X0247559Y0097411D01*
X0247693Y0097518D01*
X0247830Y0097622D01*
X0247969Y0097723D01*
X0248111Y0097820D01*
X0248255Y0097914D01*
X0248401Y0098004D01*
X0248550Y0098091D01*
X0248700Y0098173D01*
X0248853Y0098253D01*
X0249007Y0098328D01*
X0249163Y0098399D01*
X0249321Y0098467D01*
X0249481Y0098531D01*
X0249642Y0098591D01*
X0249804Y0098647D01*
X0249968Y0098699D01*
X0250133Y0098746D01*
X0250299Y0098790D01*
X0250466Y0098830D01*
X0250634Y0098865D01*
X0250803Y0098897D01*
X0250973Y0098924D01*
X0251143Y0098947D01*
X0251314Y0098966D01*
X0251485Y0098981D01*
X0251657Y0098992D01*
X0251828Y0098998D01*
X0252000Y0099000D01*
X0252172Y0098998D01*
X0252343Y0098992D01*
X0252515Y0098981D01*
X0252686Y0098966D01*
X0252857Y0098947D01*
X0253027Y0098924D01*
X0253197Y0098897D01*
X0253366Y0098865D01*
X0253534Y0098830D01*
X0253701Y0098790D01*
X0253867Y0098746D01*
X0254032Y0098699D01*
X0254196Y0098647D01*
X0254358Y0098591D01*
X0254519Y0098531D01*
X0254679Y0098467D01*
X0254837Y0098399D01*
X0254993Y0098328D01*
X0255147Y0098253D01*
X0255300Y0098173D01*
X0255450Y0098091D01*
X0255599Y0098004D01*
X0255745Y0097914D01*
X0255889Y0097820D01*
X0256031Y0097723D01*
X0256170Y0097622D01*
X0256307Y0097518D01*
X0256441Y0097411D01*
X0256572Y0097300D01*
X0256701Y0097187D01*
X0256827Y0097070D01*
X0256950Y0096950D01*
X0257070Y0096827D01*
X0257187Y0096701D01*
X0257300Y0096572D01*
X0257411Y0096441D01*
X0257518Y0096307D01*
X0257622Y0096170D01*
X0257723Y0096031D01*
X0257820Y0095889D01*
X0257914Y0095745D01*
X0258004Y0095599D01*
X0258091Y0095450D01*
X0258173Y0095300D01*
X0258253Y0095147D01*
X0258328Y0094993D01*
X0258399Y0094837D01*
X0258467Y0094679D01*
X0258531Y0094519D01*
X0258591Y0094358D01*
X0258647Y0094196D01*
X0258699Y0094032D01*
X0258746Y0093867D01*
X0258790Y0093701D01*
X0258830Y0093534D01*
X0258865Y0093366D01*
X0258897Y0093197D01*
X0258924Y0093027D01*
X0258947Y0092857D01*
X0258966Y0092686D01*
X0258981Y0092515D01*
X0258992Y0092343D01*
X0258998Y0092172D01*
X0259000Y0092000D01*
X0258998Y0091828D01*
X0258992Y0091657D01*
X0258981Y0091485D01*
X0258966Y0091314D01*
X0258947Y0091143D01*
X0258924Y0090973D01*
X0258897Y0090803D01*
X0258865Y0090634D01*
X0258830Y0090466D01*
X0258790Y0090299D01*
X0258746Y0090133D01*
X0258699Y0089968D01*
X0258647Y0089804D01*
X0258591Y0089642D01*
X0258531Y0089481D01*
X0258467Y0089321D01*
X0258399Y0089163D01*
X0258328Y0089007D01*
X0258253Y0088853D01*
X0258173Y0088700D01*
X0258091Y0088550D01*
X0258004Y0088401D01*
X0257914Y0088255D01*
X0257820Y0088111D01*
X0257723Y0087969D01*
X0257622Y0087830D01*
X0257518Y0087693D01*
X0257411Y0087559D01*
X0257300Y0087428D01*
X0257187Y0087299D01*
X0257070Y0087173D01*
X0256950Y0087050D01*
X0256827Y0086930D01*
X0256701Y0086813D01*
X0256572Y0086700D01*
X0256441Y0086589D01*
X0256307Y0086482D01*
X0256170Y0086378D01*
X0256031Y0086277D01*
X0255889Y0086180D01*
X0255745Y0086086D01*
X0255599Y0085996D01*
X0255450Y0085909D01*
X0255300Y0085827D01*
X0255147Y0085747D01*
X0254993Y0085672D01*
X0254837Y0085601D01*
X0254679Y0085533D01*
X0254519Y0085469D01*
X0254358Y0085409D01*
X0254196Y0085353D01*
X0254032Y0085301D01*
X0253867Y0085254D01*
X0253701Y0085210D01*
X0253534Y0085170D01*
X0253366Y0085135D01*
X0253197Y0085103D01*
X0253027Y0085076D01*
X0252857Y0085053D01*
X0252686Y0085034D01*
X0252515Y0085019D01*
X0252343Y0085008D01*
X0252172Y0085002D01*
X0252000Y0085000D01*
X0251828Y0085002D01*
X0251657Y0085008D01*
X0251485Y0085019D01*
X0251314Y0085034D01*
X0251143Y0085053D01*
X0250973Y0085076D01*
X0250803Y0085103D01*
X0250634Y0085135D01*
X0250466Y0085170D01*
X0250299Y0085210D01*
X0250133Y0085254D01*
X0249968Y0085301D01*
X0249804Y0085353D01*
X0249642Y0085409D01*
X0249481Y0085469D01*
X0249321Y0085533D01*
X0249163Y0085601D01*
X0249007Y0085672D01*
X0248853Y0085747D01*
X0248700Y0085827D01*
X0248550Y0085909D01*
X0248401Y0085996D01*
X0248255Y0086086D01*
X0248111Y0086180D01*
X0247969Y0086277D01*
X0247830Y0086378D01*
X0247693Y0086482D01*
X0247559Y0086589D01*
X0247428Y0086700D01*
X0247299Y0086813D01*
X0247173Y0086930D01*
X0247050Y0087050D01*
X0246930Y0087173D01*
X0246813Y0087299D01*
X0246700Y0087428D01*
X0246589Y0087559D01*
X0246482Y0087693D01*
X0246378Y0087830D01*
X0246277Y0087969D01*
X0246180Y0088111D01*
X0246086Y0088255D01*
X0245996Y0088401D01*
X0245909Y0088550D01*
X0245827Y0088700D01*
X0245747Y0088853D01*
X0245672Y0089007D01*
X0245601Y0089163D01*
X0245533Y0089321D01*
X0245469Y0089481D01*
X0245409Y0089642D01*
X0245353Y0089804D01*
X0245301Y0089968D01*
X0245254Y0090133D01*
X0245210Y0090299D01*
X0245170Y0090466D01*
X0245135Y0090634D01*
X0245103Y0090803D01*
X0245076Y0090973D01*
X0245053Y0091143D01*
X0245034Y0091314D01*
X0245019Y0091485D01*
X0245008Y0091657D01*
X0245002Y0091828D01*
X0245000Y0092000D01*
X0240000Y0118000D02*
X0240000Y0126047D01*
X0245000Y0122000D02*
X0245002Y0122172D01*
X0245008Y0122343D01*
X0245019Y0122515D01*
X0245034Y0122686D01*
X0245053Y0122857D01*
X0245076Y0123027D01*
X0245103Y0123197D01*
X0245135Y0123366D01*
X0245170Y0123534D01*
X0245210Y0123701D01*
X0245254Y0123867D01*
X0245301Y0124032D01*
X0245353Y0124196D01*
X0245409Y0124358D01*
X0245469Y0124519D01*
X0245533Y0124679D01*
X0245601Y0124837D01*
X0245672Y0124993D01*
X0245747Y0125147D01*
X0245827Y0125300D01*
X0245909Y0125450D01*
X0245996Y0125599D01*
X0246086Y0125745D01*
X0246180Y0125889D01*
X0246277Y0126031D01*
X0246378Y0126170D01*
X0246482Y0126307D01*
X0246589Y0126441D01*
X0246700Y0126572D01*
X0246813Y0126701D01*
X0246930Y0126827D01*
X0247050Y0126950D01*
X0247173Y0127070D01*
X0247299Y0127187D01*
X0247428Y0127300D01*
X0247559Y0127411D01*
X0247693Y0127518D01*
X0247830Y0127622D01*
X0247969Y0127723D01*
X0248111Y0127820D01*
X0248255Y0127914D01*
X0248401Y0128004D01*
X0248550Y0128091D01*
X0248700Y0128173D01*
X0248853Y0128253D01*
X0249007Y0128328D01*
X0249163Y0128399D01*
X0249321Y0128467D01*
X0249481Y0128531D01*
X0249642Y0128591D01*
X0249804Y0128647D01*
X0249968Y0128699D01*
X0250133Y0128746D01*
X0250299Y0128790D01*
X0250466Y0128830D01*
X0250634Y0128865D01*
X0250803Y0128897D01*
X0250973Y0128924D01*
X0251143Y0128947D01*
X0251314Y0128966D01*
X0251485Y0128981D01*
X0251657Y0128992D01*
X0251828Y0128998D01*
X0252000Y0129000D01*
X0252172Y0128998D01*
X0252343Y0128992D01*
X0252515Y0128981D01*
X0252686Y0128966D01*
X0252857Y0128947D01*
X0253027Y0128924D01*
X0253197Y0128897D01*
X0253366Y0128865D01*
X0253534Y0128830D01*
X0253701Y0128790D01*
X0253867Y0128746D01*
X0254032Y0128699D01*
X0254196Y0128647D01*
X0254358Y0128591D01*
X0254519Y0128531D01*
X0254679Y0128467D01*
X0254837Y0128399D01*
X0254993Y0128328D01*
X0255147Y0128253D01*
X0255300Y0128173D01*
X0255450Y0128091D01*
X0255599Y0128004D01*
X0255745Y0127914D01*
X0255889Y0127820D01*
X0256031Y0127723D01*
X0256170Y0127622D01*
X0256307Y0127518D01*
X0256441Y0127411D01*
X0256572Y0127300D01*
X0256701Y0127187D01*
X0256827Y0127070D01*
X0256950Y0126950D01*
X0257070Y0126827D01*
X0257187Y0126701D01*
X0257300Y0126572D01*
X0257411Y0126441D01*
X0257518Y0126307D01*
X0257622Y0126170D01*
X0257723Y0126031D01*
X0257820Y0125889D01*
X0257914Y0125745D01*
X0258004Y0125599D01*
X0258091Y0125450D01*
X0258173Y0125300D01*
X0258253Y0125147D01*
X0258328Y0124993D01*
X0258399Y0124837D01*
X0258467Y0124679D01*
X0258531Y0124519D01*
X0258591Y0124358D01*
X0258647Y0124196D01*
X0258699Y0124032D01*
X0258746Y0123867D01*
X0258790Y0123701D01*
X0258830Y0123534D01*
X0258865Y0123366D01*
X0258897Y0123197D01*
X0258924Y0123027D01*
X0258947Y0122857D01*
X0258966Y0122686D01*
X0258981Y0122515D01*
X0258992Y0122343D01*
X0258998Y0122172D01*
X0259000Y0122000D01*
X0258998Y0121828D01*
X0258992Y0121657D01*
X0258981Y0121485D01*
X0258966Y0121314D01*
X0258947Y0121143D01*
X0258924Y0120973D01*
X0258897Y0120803D01*
X0258865Y0120634D01*
X0258830Y0120466D01*
X0258790Y0120299D01*
X0258746Y0120133D01*
X0258699Y0119968D01*
X0258647Y0119804D01*
X0258591Y0119642D01*
X0258531Y0119481D01*
X0258467Y0119321D01*
X0258399Y0119163D01*
X0258328Y0119007D01*
X0258253Y0118853D01*
X0258173Y0118700D01*
X0258091Y0118550D01*
X0258004Y0118401D01*
X0257914Y0118255D01*
X0257820Y0118111D01*
X0257723Y0117969D01*
X0257622Y0117830D01*
X0257518Y0117693D01*
X0257411Y0117559D01*
X0257300Y0117428D01*
X0257187Y0117299D01*
X0257070Y0117173D01*
X0256950Y0117050D01*
X0256827Y0116930D01*
X0256701Y0116813D01*
X0256572Y0116700D01*
X0256441Y0116589D01*
X0256307Y0116482D01*
X0256170Y0116378D01*
X0256031Y0116277D01*
X0255889Y0116180D01*
X0255745Y0116086D01*
X0255599Y0115996D01*
X0255450Y0115909D01*
X0255300Y0115827D01*
X0255147Y0115747D01*
X0254993Y0115672D01*
X0254837Y0115601D01*
X0254679Y0115533D01*
X0254519Y0115469D01*
X0254358Y0115409D01*
X0254196Y0115353D01*
X0254032Y0115301D01*
X0253867Y0115254D01*
X0253701Y0115210D01*
X0253534Y0115170D01*
X0253366Y0115135D01*
X0253197Y0115103D01*
X0253027Y0115076D01*
X0252857Y0115053D01*
X0252686Y0115034D01*
X0252515Y0115019D01*
X0252343Y0115008D01*
X0252172Y0115002D01*
X0252000Y0115000D01*
X0251828Y0115002D01*
X0251657Y0115008D01*
X0251485Y0115019D01*
X0251314Y0115034D01*
X0251143Y0115053D01*
X0250973Y0115076D01*
X0250803Y0115103D01*
X0250634Y0115135D01*
X0250466Y0115170D01*
X0250299Y0115210D01*
X0250133Y0115254D01*
X0249968Y0115301D01*
X0249804Y0115353D01*
X0249642Y0115409D01*
X0249481Y0115469D01*
X0249321Y0115533D01*
X0249163Y0115601D01*
X0249007Y0115672D01*
X0248853Y0115747D01*
X0248700Y0115827D01*
X0248550Y0115909D01*
X0248401Y0115996D01*
X0248255Y0116086D01*
X0248111Y0116180D01*
X0247969Y0116277D01*
X0247830Y0116378D01*
X0247693Y0116482D01*
X0247559Y0116589D01*
X0247428Y0116700D01*
X0247299Y0116813D01*
X0247173Y0116930D01*
X0247050Y0117050D01*
X0246930Y0117173D01*
X0246813Y0117299D01*
X0246700Y0117428D01*
X0246589Y0117559D01*
X0246482Y0117693D01*
X0246378Y0117830D01*
X0246277Y0117969D01*
X0246180Y0118111D01*
X0246086Y0118255D01*
X0245996Y0118401D01*
X0245909Y0118550D01*
X0245827Y0118700D01*
X0245747Y0118853D01*
X0245672Y0119007D01*
X0245601Y0119163D01*
X0245533Y0119321D01*
X0245469Y0119481D01*
X0245409Y0119642D01*
X0245353Y0119804D01*
X0245301Y0119968D01*
X0245254Y0120133D01*
X0245210Y0120299D01*
X0245170Y0120466D01*
X0245135Y0120634D01*
X0245103Y0120803D01*
X0245076Y0120973D01*
X0245053Y0121143D01*
X0245034Y0121314D01*
X0245019Y0121485D01*
X0245008Y0121657D01*
X0245002Y0121828D01*
X0245000Y0122000D01*
X0275701Y0132512D02*
X0275701Y0135071D01*
X0282000Y0135071D01*
X0275701Y0132512D02*
X0305622Y0132512D01*
X0305622Y0171488D01*
X0275701Y0171488D01*
X0275701Y0168929D01*
X0282000Y0168929D01*
D619*
X0295750Y0156722D02*
X0295750Y0156194D01*
X0297650Y0156194D01*
X0296806Y0156194D02*
X0296806Y0156722D01*
X0296804Y0156767D01*
X0296798Y0156811D01*
X0296789Y0156855D01*
X0296776Y0156898D01*
X0296759Y0156939D01*
X0296739Y0156980D01*
X0296715Y0157018D01*
X0296689Y0157054D01*
X0296659Y0157087D01*
X0296627Y0157118D01*
X0296592Y0157147D01*
X0296555Y0157172D01*
X0296516Y0157193D01*
X0296475Y0157212D01*
X0296433Y0157227D01*
X0296389Y0157238D01*
X0296345Y0157246D01*
X0296300Y0157250D01*
X0296256Y0157250D01*
X0296211Y0157246D01*
X0296167Y0157238D01*
X0296123Y0157227D01*
X0296081Y0157212D01*
X0296040Y0157193D01*
X0296001Y0157172D01*
X0295964Y0157147D01*
X0295929Y0157118D01*
X0295897Y0157087D01*
X0295867Y0157054D01*
X0295841Y0157018D01*
X0295817Y0156980D01*
X0295797Y0156939D01*
X0295780Y0156898D01*
X0295767Y0156855D01*
X0295758Y0156811D01*
X0295752Y0156767D01*
X0295750Y0156722D01*
X0295750Y0155117D02*
X0295750Y0154272D01*
X0297650Y0154272D01*
X0297650Y0155117D01*
X0296594Y0154906D02*
X0296594Y0154272D01*
X0295750Y0153232D02*
X0295750Y0152177D01*
X0295750Y0152705D02*
X0297650Y0152705D01*
X0296858Y0151077D02*
X0296542Y0150497D01*
X0295750Y0150708D02*
X0295752Y0150759D01*
X0295757Y0150810D01*
X0295765Y0150860D01*
X0295776Y0150910D01*
X0295791Y0150958D01*
X0295808Y0151006D01*
X0295829Y0151053D01*
X0295853Y0151098D01*
X0295879Y0151141D01*
X0295908Y0151183D01*
X0296542Y0150496D02*
X0296519Y0150462D01*
X0296494Y0150431D01*
X0296466Y0150402D01*
X0296435Y0150375D01*
X0296402Y0150352D01*
X0296367Y0150332D01*
X0296330Y0150315D01*
X0296292Y0150302D01*
X0296253Y0150293D01*
X0296212Y0150287D01*
X0296172Y0150285D01*
X0296172Y0150286D02*
X0296133Y0150288D01*
X0296094Y0150293D01*
X0296057Y0150302D01*
X0296020Y0150314D01*
X0295984Y0150330D01*
X0295950Y0150349D01*
X0295918Y0150371D01*
X0295888Y0150396D01*
X0295860Y0150424D01*
X0295835Y0150454D01*
X0295813Y0150486D01*
X0295794Y0150520D01*
X0295778Y0150556D01*
X0295766Y0150593D01*
X0295757Y0150630D01*
X0295752Y0150669D01*
X0295750Y0150708D01*
X0297386Y0150233D02*
X0297426Y0150275D01*
X0297464Y0150321D01*
X0297498Y0150368D01*
X0297529Y0150418D01*
X0297557Y0150470D01*
X0297581Y0150523D01*
X0297602Y0150578D01*
X0297619Y0150634D01*
X0297633Y0150691D01*
X0297642Y0150749D01*
X0297648Y0150807D01*
X0297650Y0150866D01*
X0297648Y0150905D01*
X0297643Y0150944D01*
X0297634Y0150981D01*
X0297622Y0151018D01*
X0297606Y0151054D01*
X0297587Y0151088D01*
X0297565Y0151120D01*
X0297540Y0151150D01*
X0297512Y0151178D01*
X0297482Y0151203D01*
X0297450Y0151225D01*
X0297416Y0151244D01*
X0297380Y0151260D01*
X0297343Y0151272D01*
X0297306Y0151281D01*
X0297267Y0151286D01*
X0297228Y0151288D01*
X0297228Y0151289D02*
X0297188Y0151287D01*
X0297147Y0151281D01*
X0297108Y0151272D01*
X0297070Y0151259D01*
X0297033Y0151242D01*
X0296998Y0151222D01*
X0296965Y0151199D01*
X0296934Y0151172D01*
X0296906Y0151143D01*
X0296881Y0151112D01*
X0296858Y0151078D01*
X0253572Y0135250D02*
X0252516Y0135250D01*
X0253044Y0135250D02*
X0253044Y0137150D01*
X0252516Y0136728D01*
X0251273Y0136042D02*
X0250692Y0136358D01*
X0250903Y0137150D02*
X0250954Y0137148D01*
X0251005Y0137143D01*
X0251055Y0137135D01*
X0251105Y0137124D01*
X0251153Y0137109D01*
X0251201Y0137092D01*
X0251248Y0137071D01*
X0251293Y0137047D01*
X0251336Y0137021D01*
X0251378Y0136992D01*
X0250692Y0136358D02*
X0250658Y0136381D01*
X0250627Y0136406D01*
X0250598Y0136434D01*
X0250571Y0136465D01*
X0250548Y0136498D01*
X0250528Y0136533D01*
X0250511Y0136570D01*
X0250498Y0136608D01*
X0250489Y0136647D01*
X0250483Y0136688D01*
X0250481Y0136728D01*
X0250483Y0136767D01*
X0250488Y0136806D01*
X0250497Y0136843D01*
X0250509Y0136880D01*
X0250525Y0136916D01*
X0250544Y0136950D01*
X0250566Y0136982D01*
X0250591Y0137012D01*
X0250619Y0137040D01*
X0250649Y0137065D01*
X0250681Y0137087D01*
X0250715Y0137106D01*
X0250751Y0137122D01*
X0250788Y0137134D01*
X0250825Y0137143D01*
X0250864Y0137148D01*
X0250903Y0137150D01*
X0250429Y0135514D02*
X0250471Y0135474D01*
X0250517Y0135436D01*
X0250564Y0135402D01*
X0250614Y0135371D01*
X0250666Y0135343D01*
X0250719Y0135319D01*
X0250774Y0135298D01*
X0250830Y0135281D01*
X0250887Y0135267D01*
X0250945Y0135258D01*
X0251003Y0135252D01*
X0251062Y0135250D01*
X0251101Y0135252D01*
X0251140Y0135257D01*
X0251177Y0135266D01*
X0251214Y0135278D01*
X0251250Y0135294D01*
X0251284Y0135313D01*
X0251316Y0135335D01*
X0251346Y0135360D01*
X0251374Y0135388D01*
X0251399Y0135418D01*
X0251421Y0135450D01*
X0251440Y0135484D01*
X0251456Y0135520D01*
X0251468Y0135557D01*
X0251477Y0135594D01*
X0251482Y0135633D01*
X0251484Y0135672D01*
X0251482Y0135712D01*
X0251476Y0135753D01*
X0251467Y0135792D01*
X0251454Y0135830D01*
X0251437Y0135867D01*
X0251417Y0135902D01*
X0251394Y0135935D01*
X0251367Y0135966D01*
X0251338Y0135994D01*
X0251307Y0136019D01*
X0251273Y0136042D01*
X0229913Y0133024D02*
X0229913Y0042472D01*
X0094087Y0042472D01*
X0094087Y0133024D01*
X0229913Y0133024D01*
X0250903Y0107150D02*
X0250864Y0107148D01*
X0250825Y0107143D01*
X0250788Y0107134D01*
X0250751Y0107122D01*
X0250715Y0107106D01*
X0250681Y0107087D01*
X0250649Y0107065D01*
X0250619Y0107040D01*
X0250591Y0107012D01*
X0250566Y0106982D01*
X0250544Y0106950D01*
X0250525Y0106916D01*
X0250509Y0106880D01*
X0250497Y0106843D01*
X0250488Y0106806D01*
X0250483Y0106767D01*
X0250481Y0106728D01*
X0250692Y0106358D02*
X0251273Y0106042D01*
X0251062Y0105250D02*
X0251003Y0105252D01*
X0250945Y0105258D01*
X0250887Y0105267D01*
X0250830Y0105281D01*
X0250774Y0105298D01*
X0250719Y0105319D01*
X0250666Y0105343D01*
X0250614Y0105371D01*
X0250564Y0105402D01*
X0250517Y0105436D01*
X0250471Y0105474D01*
X0250429Y0105514D01*
X0251273Y0106042D02*
X0251307Y0106019D01*
X0251338Y0105994D01*
X0251367Y0105966D01*
X0251394Y0105935D01*
X0251417Y0105902D01*
X0251437Y0105867D01*
X0251454Y0105830D01*
X0251467Y0105792D01*
X0251476Y0105753D01*
X0251482Y0105712D01*
X0251484Y0105672D01*
X0251482Y0105633D01*
X0251477Y0105594D01*
X0251468Y0105557D01*
X0251456Y0105520D01*
X0251440Y0105484D01*
X0251421Y0105450D01*
X0251399Y0105418D01*
X0251374Y0105388D01*
X0251346Y0105360D01*
X0251316Y0105335D01*
X0251284Y0105313D01*
X0251250Y0105294D01*
X0251214Y0105278D01*
X0251177Y0105266D01*
X0251140Y0105257D01*
X0251101Y0105252D01*
X0251062Y0105250D01*
X0251378Y0106992D02*
X0251336Y0107021D01*
X0251293Y0107047D01*
X0251248Y0107071D01*
X0251201Y0107092D01*
X0251153Y0107109D01*
X0251105Y0107124D01*
X0251055Y0107135D01*
X0251005Y0107143D01*
X0250954Y0107148D01*
X0250903Y0107150D01*
X0250481Y0106728D02*
X0250483Y0106688D01*
X0250489Y0106647D01*
X0250498Y0106608D01*
X0250511Y0106570D01*
X0250528Y0106533D01*
X0250548Y0106498D01*
X0250571Y0106465D01*
X0250598Y0106434D01*
X0250627Y0106406D01*
X0250658Y0106381D01*
X0250692Y0106358D01*
X0252516Y0105250D02*
X0253572Y0105250D01*
X0252516Y0105250D02*
X0253413Y0106306D01*
X0253097Y0107150D02*
X0253049Y0107148D01*
X0253002Y0107142D01*
X0252954Y0107133D01*
X0252908Y0107120D01*
X0252863Y0107103D01*
X0252820Y0107083D01*
X0252778Y0107060D01*
X0252738Y0107033D01*
X0252701Y0107004D01*
X0252665Y0106971D01*
X0252633Y0106936D01*
X0252603Y0106898D01*
X0252577Y0106858D01*
X0252553Y0106816D01*
X0252533Y0106773D01*
X0252517Y0106728D01*
X0253414Y0106306D02*
X0253442Y0106335D01*
X0253469Y0106367D01*
X0253492Y0106401D01*
X0253513Y0106437D01*
X0253531Y0106474D01*
X0253545Y0106513D01*
X0253557Y0106552D01*
X0253565Y0106593D01*
X0253570Y0106634D01*
X0253572Y0106675D01*
X0253570Y0106716D01*
X0253565Y0106757D01*
X0253556Y0106798D01*
X0253543Y0106837D01*
X0253527Y0106876D01*
X0253508Y0106913D01*
X0253486Y0106947D01*
X0253461Y0106980D01*
X0253433Y0107011D01*
X0253402Y0107039D01*
X0253369Y0107064D01*
X0253335Y0107086D01*
X0253298Y0107105D01*
X0253259Y0107121D01*
X0253220Y0107134D01*
X0253179Y0107143D01*
X0253138Y0107148D01*
X0253097Y0107150D01*
X0253150Y0077150D02*
X0252516Y0077150D01*
X0253150Y0077150D02*
X0253190Y0077148D01*
X0253230Y0077142D01*
X0253269Y0077133D01*
X0253307Y0077120D01*
X0253343Y0077103D01*
X0253378Y0077083D01*
X0253411Y0077060D01*
X0253441Y0077033D01*
X0253469Y0077004D01*
X0253494Y0076973D01*
X0253515Y0076939D01*
X0253534Y0076903D01*
X0253549Y0076866D01*
X0253560Y0076827D01*
X0253568Y0076788D01*
X0253572Y0076748D01*
X0253572Y0076708D01*
X0253568Y0076668D01*
X0253560Y0076629D01*
X0253549Y0076590D01*
X0253534Y0076553D01*
X0253515Y0076517D01*
X0253494Y0076483D01*
X0253469Y0076452D01*
X0253441Y0076423D01*
X0253411Y0076396D01*
X0253378Y0076373D01*
X0253343Y0076353D01*
X0253307Y0076336D01*
X0253269Y0076323D01*
X0253230Y0076314D01*
X0253190Y0076308D01*
X0253150Y0076306D01*
X0252727Y0076306D01*
X0253044Y0076306D02*
X0253089Y0076304D01*
X0253133Y0076298D01*
X0253177Y0076289D01*
X0253220Y0076276D01*
X0253261Y0076259D01*
X0253302Y0076239D01*
X0253340Y0076215D01*
X0253376Y0076189D01*
X0253409Y0076159D01*
X0253440Y0076127D01*
X0253469Y0076092D01*
X0253494Y0076055D01*
X0253515Y0076016D01*
X0253534Y0075975D01*
X0253549Y0075933D01*
X0253560Y0075889D01*
X0253568Y0075845D01*
X0253572Y0075800D01*
X0253572Y0075756D01*
X0253568Y0075711D01*
X0253560Y0075667D01*
X0253549Y0075623D01*
X0253534Y0075581D01*
X0253515Y0075540D01*
X0253494Y0075501D01*
X0253469Y0075464D01*
X0253440Y0075429D01*
X0253409Y0075397D01*
X0253376Y0075367D01*
X0253340Y0075341D01*
X0253302Y0075317D01*
X0253261Y0075297D01*
X0253220Y0075280D01*
X0253177Y0075267D01*
X0253133Y0075258D01*
X0253089Y0075252D01*
X0253044Y0075250D01*
X0252516Y0075250D01*
X0251273Y0076042D02*
X0250692Y0076358D01*
X0250903Y0077150D02*
X0250954Y0077148D01*
X0251005Y0077143D01*
X0251055Y0077135D01*
X0251105Y0077124D01*
X0251153Y0077109D01*
X0251201Y0077092D01*
X0251248Y0077071D01*
X0251293Y0077047D01*
X0251336Y0077021D01*
X0251378Y0076992D01*
X0250692Y0076358D02*
X0250658Y0076381D01*
X0250627Y0076406D01*
X0250598Y0076434D01*
X0250571Y0076465D01*
X0250548Y0076498D01*
X0250528Y0076533D01*
X0250511Y0076570D01*
X0250498Y0076608D01*
X0250489Y0076647D01*
X0250483Y0076688D01*
X0250481Y0076728D01*
X0250483Y0076767D01*
X0250488Y0076806D01*
X0250497Y0076843D01*
X0250509Y0076880D01*
X0250525Y0076916D01*
X0250544Y0076950D01*
X0250566Y0076982D01*
X0250591Y0077012D01*
X0250619Y0077040D01*
X0250649Y0077065D01*
X0250681Y0077087D01*
X0250715Y0077106D01*
X0250751Y0077122D01*
X0250788Y0077134D01*
X0250825Y0077143D01*
X0250864Y0077148D01*
X0250903Y0077150D01*
X0250429Y0075514D02*
X0250471Y0075474D01*
X0250517Y0075436D01*
X0250564Y0075402D01*
X0250614Y0075371D01*
X0250666Y0075343D01*
X0250719Y0075319D01*
X0250774Y0075298D01*
X0250830Y0075281D01*
X0250887Y0075267D01*
X0250945Y0075258D01*
X0251003Y0075252D01*
X0251062Y0075250D01*
X0251101Y0075252D01*
X0251140Y0075257D01*
X0251177Y0075266D01*
X0251214Y0075278D01*
X0251250Y0075294D01*
X0251284Y0075313D01*
X0251316Y0075335D01*
X0251346Y0075360D01*
X0251374Y0075388D01*
X0251399Y0075418D01*
X0251421Y0075450D01*
X0251440Y0075484D01*
X0251456Y0075520D01*
X0251468Y0075557D01*
X0251477Y0075594D01*
X0251482Y0075633D01*
X0251484Y0075672D01*
X0251482Y0075712D01*
X0251476Y0075753D01*
X0251467Y0075792D01*
X0251454Y0075830D01*
X0251437Y0075867D01*
X0251417Y0075902D01*
X0251394Y0075935D01*
X0251367Y0075966D01*
X0251338Y0075994D01*
X0251307Y0076019D01*
X0251273Y0076042D01*
X0286401Y0196850D02*
X0286612Y0196850D01*
X0286651Y0196852D01*
X0286690Y0196857D01*
X0286727Y0196866D01*
X0286764Y0196878D01*
X0286800Y0196894D01*
X0286834Y0196913D01*
X0286866Y0196935D01*
X0286896Y0196960D01*
X0286924Y0196988D01*
X0286949Y0197018D01*
X0286971Y0197050D01*
X0286990Y0197084D01*
X0287006Y0197120D01*
X0287018Y0197157D01*
X0287027Y0197194D01*
X0287032Y0197233D01*
X0287034Y0197272D01*
X0287034Y0198750D01*
X0288194Y0198328D02*
X0288722Y0198750D01*
X0288722Y0196850D01*
X0288194Y0196850D02*
X0289250Y0196850D01*
X0292492Y0200157D02*
X0292492Y0203307D01*
X0304303Y0203307D01*
X0304303Y0217480D01*
X0292492Y0217480D01*
X0292492Y0220236D01*
X0261390Y0220236D01*
X0261390Y0215906D01*
X0261390Y0204094D02*
X0261390Y0200157D01*
X0292492Y0200157D01*
X0292492Y0203307D02*
X0292492Y0217480D01*
X0183100Y0221000D02*
X0183100Y0229000D01*
D620*
X0099557Y0141585D02*
X0098591Y0141585D01*
X0099557Y0141585D02*
X0099606Y0141583D01*
X0099655Y0141577D01*
X0099704Y0141568D01*
X0099751Y0141555D01*
X0099798Y0141538D01*
X0099843Y0141518D01*
X0099886Y0141495D01*
X0099928Y0141468D01*
X0099967Y0141438D01*
X0100004Y0141405D01*
X0100038Y0141369D01*
X0100069Y0141331D01*
X0100098Y0141291D01*
X0100123Y0141249D01*
X0100145Y0141204D01*
X0100163Y0141159D01*
X0100178Y0141112D01*
X0100189Y0141064D01*
X0100197Y0141015D01*
X0100201Y0140966D01*
X0100201Y0140916D01*
X0100197Y0140867D01*
X0100189Y0140818D01*
X0100178Y0140770D01*
X0100163Y0140723D01*
X0100145Y0140678D01*
X0100123Y0140633D01*
X0100098Y0140591D01*
X0100069Y0140551D01*
X0100038Y0140513D01*
X0100004Y0140477D01*
X0099967Y0140444D01*
X0099928Y0140414D01*
X0099886Y0140387D01*
X0099843Y0140364D01*
X0099798Y0140344D01*
X0099751Y0140327D01*
X0099704Y0140314D01*
X0099655Y0140305D01*
X0099606Y0140299D01*
X0099557Y0140297D01*
X0098913Y0140297D01*
X0099396Y0140297D02*
X0099451Y0140295D01*
X0099506Y0140289D01*
X0099560Y0140280D01*
X0099613Y0140267D01*
X0099666Y0140250D01*
X0099717Y0140230D01*
X0099767Y0140207D01*
X0099815Y0140180D01*
X0099861Y0140149D01*
X0099905Y0140116D01*
X0099946Y0140080D01*
X0099985Y0140041D01*
X0100021Y0140000D01*
X0100054Y0139956D01*
X0100085Y0139910D01*
X0100112Y0139862D01*
X0100135Y0139812D01*
X0100155Y0139761D01*
X0100172Y0139708D01*
X0100185Y0139655D01*
X0100194Y0139601D01*
X0100200Y0139546D01*
X0100202Y0139491D01*
X0100200Y0139436D01*
X0100194Y0139381D01*
X0100185Y0139327D01*
X0100172Y0139274D01*
X0100155Y0139221D01*
X0100135Y0139170D01*
X0100112Y0139120D01*
X0100085Y0139072D01*
X0100054Y0139026D01*
X0100021Y0138982D01*
X0099985Y0138941D01*
X0099946Y0138902D01*
X0099905Y0138866D01*
X0099861Y0138833D01*
X0099815Y0138802D01*
X0099767Y0138775D01*
X0099717Y0138752D01*
X0099666Y0138732D01*
X0099613Y0138715D01*
X0099560Y0138702D01*
X0099506Y0138693D01*
X0099451Y0138687D01*
X0099396Y0138685D01*
X0098591Y0138685D01*
X0097226Y0139491D02*
X0097226Y0141585D01*
X0095615Y0141585D02*
X0095615Y0139491D01*
X0095614Y0139491D02*
X0095616Y0139436D01*
X0095622Y0139381D01*
X0095631Y0139327D01*
X0095644Y0139274D01*
X0095661Y0139221D01*
X0095681Y0139170D01*
X0095704Y0139120D01*
X0095731Y0139072D01*
X0095762Y0139026D01*
X0095795Y0138982D01*
X0095831Y0138941D01*
X0095870Y0138902D01*
X0095911Y0138866D01*
X0095955Y0138833D01*
X0096001Y0138802D01*
X0096049Y0138775D01*
X0096099Y0138752D01*
X0096150Y0138732D01*
X0096203Y0138715D01*
X0096256Y0138702D01*
X0096310Y0138693D01*
X0096365Y0138687D01*
X0096420Y0138685D01*
X0096475Y0138687D01*
X0096530Y0138693D01*
X0096584Y0138702D01*
X0096637Y0138715D01*
X0096690Y0138732D01*
X0096741Y0138752D01*
X0096791Y0138775D01*
X0096839Y0138802D01*
X0096885Y0138833D01*
X0096929Y0138866D01*
X0096970Y0138902D01*
X0097009Y0138941D01*
X0097045Y0138982D01*
X0097078Y0139026D01*
X0097109Y0139072D01*
X0097136Y0139120D01*
X0097159Y0139170D01*
X0097179Y0139221D01*
X0097196Y0139274D01*
X0097209Y0139327D01*
X0097218Y0139381D01*
X0097224Y0139436D01*
X0097226Y0139491D01*
M02*
