%
M48
M72
T01C0.00984
T02C0.01181
T03C0.01378
T04C0.01575
T05C0.02756
T06C0.03200
T07C0.03937
T08C0.04000
T09C0.04331
T10C0.04724
T11C0.09055
%
T01
X141000Y78500
X147000Y78500
X154000Y78500
X53581Y195919
X49000Y199030
T02
X67000Y186500
X67000Y181500
X52500Y159000
X52500Y152500
X35500Y152500
X35500Y159000
X93500Y92000
X90300Y87625
T03
X69275Y85925
X62650Y87425
X52000Y92000
X27400Y87525
X52500Y115500
X54500Y122500
X49500Y123500
X55500Y134500
X51500Y139000
X70075Y131400
X85500Y132500
X92000Y132000
X108950Y143450
X115000Y144000
X116000Y151000
X137000Y152500
X135500Y142500
X142000Y142000
X137000Y128500
X117500Y115500
X117000Y107000
X114500Y100000
X125875Y93175
X115375Y82875
X91250Y98600
X90950Y111975
X67375Y114500
X77375Y86125
X86075Y85775
X116375Y45675
X158000Y48000
X210000Y81500
X210500Y91500
X224000Y101500
X217000Y117000
X208000Y118000
X184000Y98500
X157000Y97000
X157000Y92000
X136475Y104100
X135000Y109500
X156225Y116600
X157000Y127000
X170500Y142500
X177000Y142000
X186000Y141500
X177000Y152000
X167000Y152000
X177000Y162000
X196000Y156500
X223500Y137500
X273300Y171300
X271700Y182775
X255350Y192200
X223750Y194575
X192000Y193000
X187000Y197000
X182850Y203600
X165750Y216000
X157000Y217000
X163450Y203275
X156275Y196575
X157000Y192000
X150000Y182000
X176500Y182000
X130500Y210000
X126500Y210000
X122500Y210000
X121000Y226000
X117000Y226000
X125500Y226000
X138000Y233000
X183000Y233000
X210000Y228500
X243000Y233000
X293000Y233000
X293000Y193000
X293650Y173900
X293000Y123000
X293000Y103000
X273000Y68000
X273000Y64000
X273000Y60000
X293000Y48000
X223000Y48000
X89500Y151500
X70500Y151500
X55000Y172000
X52500Y177500
X29000Y172500
X53000Y205500
X53000Y209500
X49500Y213000
X71500Y206500
X86000Y217500
X93000Y233000
X32500Y231000
X95500Y173500
X101000Y173500
X105500Y173500
X28000Y138000
T04
X130504Y54480
X193496Y54480
T05
X282000Y140189
X282000Y148063
X282000Y155937
X282000Y163811
T06
X262000Y177000
X252000Y177000
X242000Y177000
X232000Y177000
X222000Y177000
X212000Y177000
X202000Y177000
X192000Y177000
X192000Y147000
X202000Y147000
X212000Y147000
X222000Y147000
X232000Y147000
X242000Y147000
X252000Y147000
X262000Y147000
T07
X288949Y210000
T08
X264800Y130900
X264800Y113100
X264800Y100900
X264800Y83100
X264800Y70900
X264800Y53100
X239200Y53100
X239200Y70900
X239200Y83100
X239200Y100900
X239200Y113100
X239200Y130900
T09
X269657Y202717
X261783Y210000
X269657Y217283
T10
X279500Y210000
T11
X194000Y225000
M30
