G75*
%MOIN*%
%OFA0B0*%
%FSLAX25Y25*%
%IPPOS*%
%LPD*%
%AMOC8*
5,1,8,0,0,1.08239X$1,22.5*
%
%ADD10R,0.04724X0.03150*%
%ADD11R,0.03150X0.04724*%
%ADD12R,0.10039X0.10630*%
%ADD13R,0.03268X0.02480*%
%ADD14R,0.07087X0.06299*%
%ADD15R,0.05906X0.07874*%
%ADD16R,0.14961X0.07874*%
%ADD17R,0.05512X0.01378*%
%ADD18R,0.07480X0.07087*%
%ADD19R,0.07480X0.07480*%
%ADD20R,0.03150X0.08858*%
%ADD21R,0.03543X0.03150*%
%ADD22R,0.02756X0.02756*%
%ADD23R,0.03150X0.03543*%
%ADD24R,0.04331X0.05512*%
%ADD25R,0.04331X0.03937*%
%ADD26R,0.05512X0.04331*%
%ADD27C,0.07400*%
%ADD28C,0.06299*%
%ADD29R,0.06000X0.02500*%
%ADD30R,0.11811X0.04724*%
%ADD31R,0.01378X0.08661*%
%ADD32C,0.01575*%
%ADD33R,0.07480X0.04331*%
%ADD34R,0.05906X0.06299*%
%ADD35C,0.09055*%
%ADD36C,0.04800*%
%ADD37C,0.07600*%
%ADD38C,0.04724*%
%ADD39R,0.05118X0.05906*%
D10*
X0123000Y0080957D03*
X0123000Y0088043D03*
X0131000Y0088043D03*
X0131000Y0080957D03*
X0139500Y0082457D03*
X0139500Y0089543D03*
X0148500Y0089543D03*
X0148500Y0082457D03*
X0184000Y0081957D03*
X0191000Y0081957D03*
X0198500Y0081957D03*
X0198500Y0089043D03*
X0191000Y0089043D03*
X0184000Y0089043D03*
X0072000Y0164457D03*
X0065000Y0164457D03*
X0065000Y0171543D03*
X0072000Y0171543D03*
X0053500Y0183457D03*
X0053500Y0190543D03*
X0045500Y0220457D03*
X0045500Y0227543D03*
X0075500Y0227543D03*
X0075500Y0220457D03*
X0151000Y0211043D03*
X0151000Y0203957D03*
D11*
X0151043Y0194500D03*
X0143957Y0194500D03*
X0088043Y0166000D03*
X0080957Y0166000D03*
D12*
X0100020Y0160500D03*
X0124980Y0160500D03*
D13*
X0207000Y0205472D03*
X0207000Y0214528D03*
D14*
X0279500Y0107512D03*
X0279500Y0096488D03*
X0044500Y0168488D03*
X0044500Y0179512D03*
D15*
X0122945Y0219402D03*
X0132000Y0219402D03*
X0141055Y0219402D03*
D16*
X0132000Y0194598D03*
D17*
X0044433Y0193882D03*
X0044433Y0196441D03*
X0044433Y0199000D03*
X0044433Y0201559D03*
X0044433Y0204118D03*
X0279067Y0080118D03*
X0279067Y0077559D03*
X0279067Y0075000D03*
X0279067Y0072441D03*
X0279067Y0069882D03*
D18*
X0289500Y0059252D03*
X0289500Y0090748D03*
X0034000Y0183252D03*
X0034000Y0214748D03*
D19*
X0034000Y0204000D03*
X0034000Y0194000D03*
X0289500Y0080000D03*
X0289500Y0070000D03*
D20*
X0247461Y0196831D03*
X0238799Y0196831D03*
X0230138Y0196831D03*
X0217539Y0196831D03*
X0217539Y0223169D03*
X0230138Y0223169D03*
X0238799Y0223169D03*
X0247461Y0223169D03*
D21*
X0114331Y0208500D03*
X0106063Y0204760D03*
X0106063Y0212240D03*
D22*
X0184358Y0213059D03*
X0184358Y0207941D03*
X0191642Y0210500D03*
D23*
X0099240Y0183063D03*
X0091760Y0183063D03*
X0095500Y0191331D03*
D24*
X0095063Y0197500D03*
X0102937Y0197500D03*
X0111563Y0194500D03*
X0119437Y0194500D03*
X0087937Y0157000D03*
X0080063Y0157000D03*
X0070937Y0157000D03*
X0063063Y0157000D03*
X0169063Y0199500D03*
X0176937Y0199500D03*
D25*
X0047346Y0159000D03*
X0040654Y0159000D03*
X0040654Y0152500D03*
X0047346Y0152500D03*
D26*
X0122000Y0140937D03*
X0122000Y0133063D03*
X0163000Y0099937D03*
X0163000Y0092063D03*
X0174500Y0092063D03*
X0174500Y0099937D03*
X0217000Y0098063D03*
X0217000Y0105937D03*
X0198000Y0206063D03*
X0198000Y0213937D03*
X0178000Y0215937D03*
X0178000Y0208063D03*
X0099000Y0209563D03*
X0099000Y0217437D03*
D27*
X0239200Y0130900D03*
X0239200Y0113100D03*
X0239200Y0100900D03*
X0239200Y0083100D03*
X0239200Y0070900D03*
X0239200Y0053100D03*
X0264800Y0053100D03*
X0264800Y0070900D03*
X0264800Y0083100D03*
X0264800Y0100900D03*
X0264800Y0113100D03*
X0264800Y0130900D03*
D28*
X0282000Y0140189D03*
X0282000Y0148063D03*
X0282000Y0155937D03*
X0282000Y0163811D03*
D29*
X0082110Y0176500D03*
X0082110Y0181500D03*
X0082110Y0186500D03*
X0082110Y0191500D03*
X0082110Y0196500D03*
X0082110Y0201500D03*
X0082110Y0206500D03*
X0082110Y0211500D03*
X0060890Y0211500D03*
X0060890Y0206500D03*
X0060890Y0201500D03*
X0060890Y0196500D03*
X0060890Y0191500D03*
X0060890Y0186500D03*
X0060890Y0181500D03*
X0060890Y0176500D03*
D30*
X0039323Y0084165D03*
X0039323Y0092039D03*
X0039323Y0099913D03*
X0039323Y0107787D03*
X0039323Y0115661D03*
X0039323Y0123535D03*
X0039323Y0131409D03*
X0039323Y0139283D03*
X0103890Y0139283D03*
X0103890Y0131409D03*
X0103890Y0123535D03*
X0103890Y0115661D03*
X0103890Y0107787D03*
X0103890Y0099913D03*
X0103890Y0092039D03*
X0103890Y0084165D03*
D31*
X0122039Y0071213D03*
X0124795Y0071213D03*
X0127551Y0071213D03*
X0130307Y0071213D03*
X0133063Y0071213D03*
X0135819Y0071213D03*
X0138575Y0071213D03*
X0141331Y0071213D03*
X0144087Y0071213D03*
X0146843Y0071213D03*
X0149598Y0071213D03*
X0152354Y0071213D03*
X0155110Y0071213D03*
X0157866Y0071213D03*
X0160622Y0071213D03*
X0163378Y0071213D03*
X0166134Y0071213D03*
X0168890Y0071213D03*
X0171646Y0071213D03*
X0174402Y0071213D03*
X0177157Y0071213D03*
X0179913Y0071213D03*
X0182669Y0071213D03*
X0185425Y0071213D03*
X0188181Y0071213D03*
X0190937Y0071213D03*
X0193693Y0071213D03*
X0196449Y0071213D03*
X0199205Y0071213D03*
X0201961Y0071213D03*
D32*
X0193496Y0054480D03*
X0130504Y0054480D03*
D33*
X0067783Y0219472D03*
X0067783Y0228528D03*
X0053217Y0228528D03*
X0053217Y0219472D03*
D34*
X0186913Y0225000D03*
X0201087Y0225000D03*
D35*
X0194000Y0225000D03*
D36*
X0192000Y0179400D02*
X0192000Y0174600D01*
X0202000Y0174600D02*
X0202000Y0179400D01*
X0212000Y0179400D02*
X0212000Y0174600D01*
X0222000Y0174600D02*
X0222000Y0179400D01*
X0232000Y0179400D02*
X0232000Y0174600D01*
X0242000Y0174600D02*
X0242000Y0179400D01*
X0252000Y0179400D02*
X0252000Y0174600D01*
X0262000Y0174600D02*
X0262000Y0179400D01*
X0262000Y0149400D02*
X0262000Y0144600D01*
X0252000Y0144600D02*
X0252000Y0149400D01*
X0242000Y0149400D02*
X0242000Y0144600D01*
X0232000Y0144600D02*
X0232000Y0149400D01*
X0222000Y0149400D02*
X0222000Y0144600D01*
X0212000Y0144600D02*
X0212000Y0149400D01*
X0202000Y0149400D02*
X0202000Y0144600D01*
X0192000Y0144600D02*
X0192000Y0149400D01*
D37*
X0269657Y0202717D03*
X0261783Y0210000D03*
X0269657Y0217283D03*
X0288949Y0210000D03*
D38*
X0279500Y0210000D03*
D39*
X0210740Y0137000D03*
X0203260Y0137000D03*
M02*
