G75*
%MOIN*%
%OFA0B0*%
%FSLAX25Y25*%
%IPPOS*%
%LPD*%
%AMOC8*
5,1,8,0,0,1.08239X$1,22.5*
%
%ADD10R,0.04724X0.03150*%
%ADD11R,0.03150X0.04724*%
%ADD12R,0.10039X0.10630*%
%ADD13R,0.03268X0.02480*%
%ADD14R,0.07087X0.06299*%
%ADD15R,0.05906X0.07874*%
%ADD16R,0.14961X0.07874*%
%ADD17R,0.05512X0.01378*%
%ADD18R,0.07480X0.07087*%
%ADD19R,0.07480X0.07480*%
%ADD20R,0.03150X0.08858*%
%ADD21R,0.03543X0.03150*%
%ADD22R,0.02756X0.02756*%
%ADD23R,0.03150X0.03543*%
%ADD24R,0.04331X0.05512*%
%ADD25R,0.04331X0.03937*%
%ADD26R,0.05512X0.04331*%
%ADD27C,0.07400*%
%ADD28C,0.06299*%
%ADD29R,0.06000X0.02500*%
%ADD30R,0.11811X0.04724*%
%ADD31R,0.01378X0.08661*%
%ADD32R,0.07480X0.04331*%
%ADD33R,0.05906X0.06299*%
%ADD34C,0.04800*%
%ADD35C,0.07600*%
%ADD36R,0.05118X0.05906*%
%ADD37C,0.02000*%
%ADD38C,0.01969*%
%ADD39C,0.02362*%
%ADD40C,0.01000*%
%ADD41C,0.04000*%
%ADD42C,0.02400*%
%ADD43C,0.00787*%
%ADD44C,0.01200*%
%ADD45C,0.02165*%
%ADD46C,0.01600*%
D10*
X0123000Y0080957D03*
X0123000Y0088043D03*
X0131000Y0088043D03*
X0131000Y0080957D03*
X0139500Y0082457D03*
X0139500Y0089543D03*
X0148500Y0089543D03*
X0148500Y0082457D03*
X0184000Y0081957D03*
X0191000Y0081957D03*
X0198500Y0081957D03*
X0198500Y0089043D03*
X0191000Y0089043D03*
X0184000Y0089043D03*
X0072000Y0164457D03*
X0065000Y0164457D03*
X0065000Y0171543D03*
X0072000Y0171543D03*
X0053500Y0183457D03*
X0053500Y0190543D03*
X0045500Y0220457D03*
X0045500Y0227543D03*
X0075500Y0227543D03*
X0075500Y0220457D03*
X0151000Y0211043D03*
X0151000Y0203957D03*
D11*
X0151043Y0194500D03*
X0143957Y0194500D03*
X0088043Y0166000D03*
X0080957Y0166000D03*
D12*
X0100020Y0160500D03*
X0124980Y0160500D03*
D13*
X0207000Y0205472D03*
X0207000Y0214528D03*
D14*
X0279500Y0107512D03*
X0279500Y0096488D03*
X0044500Y0168488D03*
X0044500Y0179512D03*
D15*
X0122945Y0219402D03*
X0132000Y0219402D03*
X0141055Y0219402D03*
D16*
X0132000Y0194598D03*
D17*
X0044433Y0193882D03*
X0044433Y0196441D03*
X0044433Y0199000D03*
X0044433Y0201559D03*
X0044433Y0204118D03*
X0279067Y0080118D03*
X0279067Y0077559D03*
X0279067Y0075000D03*
X0279067Y0072441D03*
X0279067Y0069882D03*
D18*
X0289500Y0059252D03*
X0289500Y0090748D03*
X0034000Y0183252D03*
X0034000Y0214748D03*
D19*
X0034000Y0204000D03*
X0034000Y0194000D03*
X0289500Y0080000D03*
X0289500Y0070000D03*
D20*
X0247461Y0196831D03*
X0238799Y0196831D03*
X0230138Y0196831D03*
X0217539Y0196831D03*
X0217539Y0223169D03*
X0230138Y0223169D03*
X0238799Y0223169D03*
X0247461Y0223169D03*
D21*
X0114331Y0208500D03*
X0106063Y0204760D03*
X0106063Y0212240D03*
D22*
X0184358Y0213059D03*
X0184358Y0207941D03*
X0191642Y0210500D03*
D23*
X0099240Y0183063D03*
X0091760Y0183063D03*
X0095500Y0191331D03*
D24*
X0095063Y0197500D03*
X0102937Y0197500D03*
X0111563Y0194500D03*
X0119437Y0194500D03*
X0087937Y0157000D03*
X0080063Y0157000D03*
X0070937Y0157000D03*
X0063063Y0157000D03*
X0169063Y0199500D03*
X0176937Y0199500D03*
D25*
X0047346Y0159000D03*
X0040654Y0159000D03*
X0040654Y0152500D03*
X0047346Y0152500D03*
D26*
X0122000Y0140937D03*
X0122000Y0133063D03*
X0163000Y0099937D03*
X0163000Y0092063D03*
X0174500Y0092063D03*
X0174500Y0099937D03*
X0217000Y0098063D03*
X0217000Y0105937D03*
X0198000Y0206063D03*
X0198000Y0213937D03*
X0178000Y0215937D03*
X0178000Y0208063D03*
X0099000Y0209563D03*
X0099000Y0217437D03*
D27*
X0239200Y0130900D03*
X0239200Y0113100D03*
X0239200Y0100900D03*
X0239200Y0083100D03*
X0239200Y0070900D03*
X0239200Y0053100D03*
X0264800Y0053100D03*
X0264800Y0070900D03*
X0264800Y0083100D03*
X0264800Y0100900D03*
X0264800Y0113100D03*
X0264800Y0130900D03*
D28*
X0282000Y0140189D03*
X0282000Y0148063D03*
X0282000Y0155937D03*
X0282000Y0163811D03*
D29*
X0082110Y0176500D03*
X0082110Y0181500D03*
X0082110Y0186500D03*
X0082110Y0191500D03*
X0082110Y0196500D03*
X0082110Y0201500D03*
X0082110Y0206500D03*
X0082110Y0211500D03*
X0060890Y0211500D03*
X0060890Y0206500D03*
X0060890Y0201500D03*
X0060890Y0196500D03*
X0060890Y0191500D03*
X0060890Y0186500D03*
X0060890Y0181500D03*
X0060890Y0176500D03*
D30*
X0039323Y0139283D03*
X0039323Y0131409D03*
X0039323Y0123535D03*
X0039323Y0115661D03*
X0039323Y0107787D03*
X0039323Y0099913D03*
X0039323Y0092039D03*
X0039323Y0084165D03*
X0103890Y0084165D03*
X0103890Y0092039D03*
X0103890Y0099913D03*
X0103890Y0107787D03*
X0103890Y0115661D03*
X0103890Y0123535D03*
X0103890Y0131409D03*
X0103890Y0139283D03*
D31*
X0122039Y0071213D03*
X0124795Y0071213D03*
X0127551Y0071213D03*
X0130307Y0071213D03*
X0133063Y0071213D03*
X0135819Y0071213D03*
X0138575Y0071213D03*
X0141331Y0071213D03*
X0144087Y0071213D03*
X0146843Y0071213D03*
X0149598Y0071213D03*
X0152354Y0071213D03*
X0155110Y0071213D03*
X0157866Y0071213D03*
X0160622Y0071213D03*
X0163378Y0071213D03*
X0166134Y0071213D03*
X0168890Y0071213D03*
X0171646Y0071213D03*
X0174402Y0071213D03*
X0177157Y0071213D03*
X0179913Y0071213D03*
X0182669Y0071213D03*
X0185425Y0071213D03*
X0188181Y0071213D03*
X0190937Y0071213D03*
X0193693Y0071213D03*
X0196449Y0071213D03*
X0199205Y0071213D03*
X0201961Y0071213D03*
D32*
X0067783Y0219472D03*
X0067783Y0228528D03*
X0053217Y0228528D03*
X0053217Y0219472D03*
D33*
X0186913Y0225000D03*
X0201087Y0225000D03*
D34*
X0202000Y0179400D02*
X0202000Y0174600D01*
X0192000Y0174600D02*
X0192000Y0179400D01*
X0212000Y0179400D02*
X0212000Y0174600D01*
X0222000Y0174600D02*
X0222000Y0179400D01*
X0232000Y0179400D02*
X0232000Y0174600D01*
X0242000Y0174600D02*
X0242000Y0179400D01*
X0252000Y0179400D02*
X0252000Y0174600D01*
X0262000Y0174600D02*
X0262000Y0179400D01*
X0262000Y0149400D02*
X0262000Y0144600D01*
X0252000Y0144600D02*
X0252000Y0149400D01*
X0242000Y0149400D02*
X0242000Y0144600D01*
X0232000Y0144600D02*
X0232000Y0149400D01*
X0222000Y0149400D02*
X0222000Y0144600D01*
X0212000Y0144600D02*
X0212000Y0149400D01*
X0202000Y0149400D02*
X0202000Y0144600D01*
X0192000Y0144600D02*
X0192000Y0149400D01*
D35*
X0269657Y0202717D03*
X0261783Y0210000D03*
X0269657Y0217283D03*
X0288949Y0210000D03*
D36*
X0210740Y0137000D03*
X0203260Y0137000D03*
D37*
X0024102Y0084877D02*
X0024102Y0236748D01*
X0295488Y0236748D01*
X0295488Y0168720D01*
X0295068Y0169733D01*
X0284324Y0180478D01*
X0282816Y0181102D01*
X0266168Y0181102D01*
X0265817Y0181950D01*
X0264550Y0183217D01*
X0262896Y0183902D01*
X0261104Y0183902D01*
X0259450Y0183217D01*
X0258183Y0181950D01*
X0257498Y0180296D01*
X0257498Y0173704D01*
X0258183Y0172050D01*
X0259450Y0170783D01*
X0261104Y0170098D01*
X0262896Y0170098D01*
X0264550Y0170783D01*
X0265817Y0172050D01*
X0266168Y0172898D01*
X0280301Y0172898D01*
X0284907Y0168292D01*
X0283045Y0169063D01*
X0280955Y0169063D01*
X0279025Y0168263D01*
X0278675Y0167913D01*
X0221888Y0167913D01*
X0216384Y0173418D01*
X0216502Y0173704D01*
X0216502Y0180296D01*
X0215817Y0181950D01*
X0214550Y0183217D01*
X0212907Y0183898D01*
X0240715Y0183898D01*
X0240826Y0183787D01*
X0239450Y0183217D01*
X0238183Y0181950D01*
X0237498Y0180296D01*
X0237498Y0173704D01*
X0238183Y0172050D01*
X0239450Y0170783D01*
X0241104Y0170098D01*
X0242896Y0170098D01*
X0244550Y0170783D01*
X0245817Y0172050D01*
X0246502Y0173704D01*
X0246502Y0178110D01*
X0247498Y0177115D01*
X0247498Y0173704D01*
X0248183Y0172050D01*
X0249450Y0170783D01*
X0251104Y0170098D01*
X0252896Y0170098D01*
X0254550Y0170783D01*
X0255817Y0172050D01*
X0256502Y0173704D01*
X0256502Y0180296D01*
X0255817Y0181950D01*
X0254550Y0183217D01*
X0252896Y0183902D01*
X0251104Y0183902D01*
X0249959Y0183428D01*
X0244630Y0188757D01*
X0243757Y0189630D01*
X0242617Y0190102D01*
X0186383Y0190102D01*
X0185565Y0189764D01*
X0190478Y0194676D01*
X0191102Y0196184D01*
X0191102Y0197816D01*
X0190478Y0199324D01*
X0189324Y0200478D01*
X0188677Y0200746D01*
X0187673Y0201749D01*
X0185614Y0202602D01*
X0181205Y0202602D01*
X0181205Y0203127D01*
X0180536Y0203795D01*
X0181627Y0203795D01*
X0182292Y0204461D01*
X0186607Y0204461D01*
X0187839Y0205692D01*
X0187839Y0210190D01*
X0186607Y0211421D01*
X0182536Y0211421D01*
X0181627Y0212331D01*
X0174373Y0212331D01*
X0173142Y0211099D01*
X0173142Y0210102D01*
X0171383Y0210102D01*
X0170243Y0209630D01*
X0169370Y0208757D01*
X0167306Y0206693D01*
X0167306Y0206693D01*
X0166433Y0205820D01*
X0165961Y0204680D01*
X0165961Y0204292D01*
X0164795Y0203127D01*
X0164795Y0202602D01*
X0163883Y0202602D01*
X0162743Y0202130D01*
X0161870Y0201257D01*
X0155577Y0194965D01*
X0155140Y0194784D01*
X0154216Y0193860D01*
X0153717Y0192653D01*
X0153717Y0191347D01*
X0153818Y0191102D01*
X0148699Y0191102D01*
X0148059Y0191743D01*
X0148059Y0195316D01*
X0147634Y0196343D01*
X0147634Y0197733D01*
X0146402Y0198965D01*
X0141583Y0198965D01*
X0141583Y0199406D01*
X0140351Y0200638D01*
X0123649Y0200638D01*
X0122417Y0199406D01*
X0122417Y0199358D01*
X0117433Y0199358D01*
X0117433Y0205283D01*
X0118205Y0206054D01*
X0118205Y0210946D01*
X0116973Y0212177D01*
X0111688Y0212177D01*
X0110457Y0210946D01*
X0110457Y0206054D01*
X0111228Y0205283D01*
X0111228Y0199358D01*
X0108527Y0199358D01*
X0107295Y0198127D01*
X0107295Y0197152D01*
X0107243Y0197130D01*
X0107205Y0197092D01*
X0107205Y0201083D01*
X0108705Y0201083D01*
X0109937Y0202314D01*
X0109937Y0207205D01*
X0108705Y0208437D01*
X0103858Y0208437D01*
X0103858Y0208563D01*
X0108705Y0208563D01*
X0109937Y0209795D01*
X0109937Y0214686D01*
X0108705Y0215917D01*
X0107470Y0215917D01*
X0104630Y0218757D01*
X0103858Y0219529D01*
X0103858Y0220473D01*
X0102627Y0221705D01*
X0095373Y0221705D01*
X0094142Y0220473D01*
X0094142Y0219029D01*
X0093370Y0218257D01*
X0090870Y0215757D01*
X0090398Y0214617D01*
X0090398Y0205785D01*
X0087370Y0202757D01*
X0087213Y0202377D01*
X0087213Y0203621D01*
X0086833Y0204000D01*
X0087213Y0204379D01*
X0087213Y0208621D01*
X0086833Y0209000D01*
X0087213Y0209379D01*
X0087213Y0213621D01*
X0085981Y0214852D01*
X0078239Y0214852D01*
X0077008Y0213621D01*
X0077008Y0209379D01*
X0077387Y0209000D01*
X0077008Y0208621D01*
X0077008Y0204379D01*
X0077387Y0204000D01*
X0077008Y0203621D01*
X0077008Y0199379D01*
X0077387Y0199000D01*
X0077008Y0198621D01*
X0077008Y0194379D01*
X0077387Y0194000D01*
X0077008Y0193621D01*
X0077008Y0189379D01*
X0077387Y0189000D01*
X0077008Y0188621D01*
X0077008Y0184379D01*
X0077387Y0184000D01*
X0077008Y0183621D01*
X0077008Y0179379D01*
X0077387Y0179000D01*
X0077008Y0178621D01*
X0077008Y0174379D01*
X0077228Y0174159D01*
X0077116Y0173961D01*
X0071290Y0168134D01*
X0068767Y0168134D01*
X0068500Y0167867D01*
X0068233Y0168134D01*
X0061767Y0168134D01*
X0061192Y0167559D01*
X0053728Y0167559D01*
X0053011Y0167898D01*
X0055816Y0167898D01*
X0057324Y0168522D01*
X0058478Y0169676D01*
X0059102Y0171184D01*
X0059102Y0172816D01*
X0058478Y0174324D01*
X0057324Y0175478D01*
X0055816Y0176102D01*
X0050146Y0176102D01*
X0050146Y0183532D01*
X0048914Y0184764D01*
X0047402Y0184764D01*
X0047402Y0190983D01*
X0048982Y0191208D01*
X0049035Y0191240D01*
X0049035Y0188098D01*
X0050267Y0186866D01*
X0055787Y0186866D01*
X0055787Y0184379D01*
X0056167Y0184000D01*
X0055787Y0183621D01*
X0055787Y0179379D01*
X0057019Y0178148D01*
X0064761Y0178148D01*
X0065211Y0178598D01*
X0065684Y0178598D01*
X0066366Y0178315D01*
X0067634Y0178315D01*
X0068804Y0178800D01*
X0069700Y0179696D01*
X0070185Y0180866D01*
X0070185Y0182134D01*
X0069700Y0183304D01*
X0069004Y0184000D01*
X0069700Y0184696D01*
X0070185Y0185866D01*
X0070185Y0187134D01*
X0069700Y0188304D01*
X0068804Y0189200D01*
X0067634Y0189685D01*
X0066366Y0189685D01*
X0065992Y0189530D01*
X0065992Y0193621D01*
X0065613Y0194000D01*
X0065992Y0194379D01*
X0065992Y0198621D01*
X0065613Y0199000D01*
X0065992Y0199379D01*
X0065992Y0203621D01*
X0065613Y0204000D01*
X0065992Y0204379D01*
X0065992Y0205670D01*
X0069291Y0208969D01*
X0069702Y0209962D01*
X0069702Y0215205D01*
X0072394Y0215205D01*
X0073626Y0216436D01*
X0073626Y0216780D01*
X0078733Y0216780D01*
X0079965Y0218011D01*
X0079965Y0222902D01*
X0078733Y0224134D01*
X0072267Y0224134D01*
X0071873Y0223740D01*
X0063172Y0223740D01*
X0063127Y0223695D01*
X0062421Y0224401D01*
X0059921Y0226901D01*
X0059679Y0227001D01*
X0059059Y0227621D01*
X0059059Y0231564D01*
X0057828Y0232795D01*
X0048606Y0232795D01*
X0047374Y0231564D01*
X0047374Y0231220D01*
X0042267Y0231220D01*
X0041035Y0229989D01*
X0041035Y0225098D01*
X0042267Y0223866D01*
X0048733Y0223866D01*
X0049127Y0224260D01*
X0055060Y0224260D01*
X0055580Y0223740D01*
X0048606Y0223740D01*
X0047374Y0222509D01*
X0047374Y0216436D01*
X0048606Y0215205D01*
X0057828Y0215205D01*
X0058187Y0215565D01*
X0058187Y0214852D01*
X0057019Y0214852D01*
X0055787Y0213621D01*
X0055787Y0209379D01*
X0056167Y0209000D01*
X0055787Y0208621D01*
X0055787Y0204379D01*
X0056167Y0204000D01*
X0055787Y0203621D01*
X0055787Y0203602D01*
X0054482Y0203602D01*
X0053526Y0203206D01*
X0051357Y0201038D01*
X0050748Y0201647D01*
X0049614Y0202117D01*
X0049291Y0202117D01*
X0049291Y0203119D01*
X0048060Y0204350D01*
X0040806Y0204350D01*
X0039843Y0203387D01*
X0039843Y0208611D01*
X0038981Y0209472D01*
X0039843Y0210334D01*
X0039843Y0219162D01*
X0038611Y0220394D01*
X0029389Y0220394D01*
X0028157Y0219162D01*
X0028157Y0210334D01*
X0029019Y0209472D01*
X0028157Y0208611D01*
X0028157Y0199389D01*
X0028547Y0199000D01*
X0028157Y0198611D01*
X0028157Y0189389D01*
X0029019Y0188528D01*
X0028157Y0187666D01*
X0028157Y0178838D01*
X0029389Y0177606D01*
X0038611Y0177606D01*
X0038854Y0177850D01*
X0038854Y0175491D01*
X0040086Y0174260D01*
X0044470Y0174260D01*
X0043950Y0173740D01*
X0040086Y0173740D01*
X0038854Y0172509D01*
X0038854Y0164468D01*
X0040086Y0163236D01*
X0048353Y0163236D01*
X0048703Y0163071D01*
X0044310Y0163071D01*
X0044000Y0162761D01*
X0043690Y0163071D01*
X0037617Y0163071D01*
X0036556Y0162010D01*
X0036134Y0162185D01*
X0034866Y0162185D01*
X0033696Y0161700D01*
X0032800Y0160804D01*
X0032315Y0159634D01*
X0032315Y0158366D01*
X0032800Y0157196D01*
X0033696Y0156300D01*
X0034866Y0155815D01*
X0036134Y0155815D01*
X0036556Y0155990D01*
X0036797Y0155750D01*
X0036556Y0155510D01*
X0036134Y0155685D01*
X0034866Y0155685D01*
X0033696Y0155200D01*
X0032800Y0154304D01*
X0032315Y0153134D01*
X0032315Y0151866D01*
X0032800Y0150696D01*
X0033696Y0149800D01*
X0034866Y0149315D01*
X0036134Y0149315D01*
X0036556Y0149490D01*
X0037617Y0148429D01*
X0043690Y0148429D01*
X0044000Y0148739D01*
X0044310Y0148429D01*
X0050383Y0148429D01*
X0051444Y0149490D01*
X0051866Y0149315D01*
X0053134Y0149315D01*
X0054304Y0149800D01*
X0055200Y0150696D01*
X0055685Y0151866D01*
X0055685Y0153134D01*
X0055200Y0154304D01*
X0054304Y0155200D01*
X0053134Y0155685D01*
X0051866Y0155685D01*
X0051444Y0155510D01*
X0051203Y0155750D01*
X0051444Y0155990D01*
X0051866Y0155815D01*
X0053134Y0155815D01*
X0054304Y0156300D01*
X0055200Y0157196D01*
X0055685Y0158366D01*
X0055685Y0159634D01*
X0055200Y0160804D01*
X0054650Y0161354D01*
X0059523Y0161354D01*
X0058795Y0160627D01*
X0058795Y0153373D01*
X0058898Y0153271D01*
X0058898Y0136285D01*
X0056870Y0134257D01*
X0056398Y0133117D01*
X0056398Y0131990D01*
X0055221Y0133167D01*
X0054348Y0134039D01*
X0053208Y0134512D01*
X0047331Y0134512D01*
X0047331Y0134642D01*
X0046792Y0135181D01*
X0050000Y0135181D01*
X0050684Y0134898D01*
X0052316Y0134898D01*
X0053824Y0135522D01*
X0054978Y0136676D01*
X0055602Y0138184D01*
X0055602Y0139816D01*
X0054978Y0141324D01*
X0053540Y0142761D01*
X0052033Y0143386D01*
X0046461Y0143386D01*
X0046099Y0143748D01*
X0032546Y0143748D01*
X0031315Y0142516D01*
X0031315Y0136050D01*
X0032019Y0135346D01*
X0031315Y0134642D01*
X0031315Y0128176D01*
X0032019Y0127472D01*
X0031315Y0126768D01*
X0031315Y0120302D01*
X0032019Y0119598D01*
X0031315Y0118894D01*
X0031315Y0112428D01*
X0032019Y0111724D01*
X0031315Y0111020D01*
X0031315Y0104554D01*
X0032019Y0103850D01*
X0031315Y0103146D01*
X0031315Y0096680D01*
X0032019Y0095976D01*
X0031315Y0095272D01*
X0031315Y0088806D01*
X0032019Y0088102D01*
X0031315Y0087398D01*
X0031315Y0084877D01*
X0024102Y0084877D01*
X0024102Y0085967D02*
X0031315Y0085967D01*
X0031882Y0087966D02*
X0024102Y0087966D01*
X0024102Y0089964D02*
X0031315Y0089964D01*
X0031315Y0091963D02*
X0024102Y0091963D01*
X0024102Y0093961D02*
X0031315Y0093961D01*
X0032002Y0095960D02*
X0024102Y0095960D01*
X0024102Y0097958D02*
X0031315Y0097958D01*
X0031315Y0099957D02*
X0024102Y0099957D01*
X0024102Y0101955D02*
X0031315Y0101955D01*
X0031915Y0103954D02*
X0024102Y0103954D01*
X0024102Y0105952D02*
X0031315Y0105952D01*
X0031315Y0107951D02*
X0024102Y0107951D01*
X0024102Y0109949D02*
X0031315Y0109949D01*
X0031795Y0111948D02*
X0024102Y0111948D01*
X0024102Y0113946D02*
X0031315Y0113946D01*
X0031315Y0115945D02*
X0024102Y0115945D01*
X0024102Y0117943D02*
X0031315Y0117943D01*
X0031675Y0119942D02*
X0024102Y0119942D01*
X0024102Y0121940D02*
X0031315Y0121940D01*
X0031315Y0123939D02*
X0024102Y0123939D01*
X0024102Y0125937D02*
X0031315Y0125937D01*
X0031555Y0127936D02*
X0024102Y0127936D01*
X0024102Y0129934D02*
X0031315Y0129934D01*
X0031315Y0131933D02*
X0024102Y0131933D01*
X0024102Y0133932D02*
X0031315Y0133932D01*
X0031435Y0135930D02*
X0024102Y0135930D01*
X0024102Y0137929D02*
X0031315Y0137929D01*
X0031315Y0139927D02*
X0024102Y0139927D01*
X0024102Y0141926D02*
X0031315Y0141926D01*
X0024102Y0143924D02*
X0058898Y0143924D01*
X0058898Y0141926D02*
X0054376Y0141926D01*
X0055556Y0139927D02*
X0058898Y0139927D01*
X0058898Y0137929D02*
X0055497Y0137929D01*
X0054232Y0135930D02*
X0058543Y0135930D01*
X0056735Y0133932D02*
X0054456Y0133932D01*
X0052591Y0131409D02*
X0039323Y0131409D01*
X0039323Y0123535D02*
X0049465Y0123535D01*
X0049500Y0123500D01*
X0054000Y0123000D02*
X0054000Y0130000D01*
X0052591Y0131409D01*
X0059500Y0132500D02*
X0062000Y0135000D01*
X0062000Y0155937D01*
X0063063Y0157000D01*
X0058795Y0157914D02*
X0055497Y0157914D01*
X0055570Y0159912D02*
X0058795Y0159912D01*
X0058795Y0155915D02*
X0053375Y0155915D01*
X0051625Y0155915D02*
X0051369Y0155915D01*
X0055361Y0153917D02*
X0058795Y0153917D01*
X0058898Y0151918D02*
X0055685Y0151918D01*
X0054424Y0149920D02*
X0058898Y0149920D01*
X0058898Y0147921D02*
X0024102Y0147921D01*
X0024102Y0145923D02*
X0058898Y0145923D01*
X0070500Y0151500D02*
X0070937Y0151937D01*
X0070937Y0157000D01*
X0072000Y0164457D02*
X0065000Y0164457D01*
X0053031Y0164457D01*
X0044500Y0168488D01*
X0044112Y0173902D02*
X0024102Y0173902D01*
X0024102Y0175900D02*
X0038854Y0175900D01*
X0038854Y0171903D02*
X0024102Y0171903D01*
X0024102Y0169905D02*
X0038854Y0169905D01*
X0038854Y0167906D02*
X0024102Y0167906D01*
X0024102Y0165908D02*
X0038854Y0165908D01*
X0039413Y0163909D02*
X0024102Y0163909D01*
X0024102Y0161911D02*
X0034204Y0161911D01*
X0032430Y0159912D02*
X0024102Y0159912D01*
X0024102Y0157914D02*
X0032503Y0157914D01*
X0034625Y0155915D02*
X0024102Y0155915D01*
X0024102Y0153917D02*
X0032639Y0153917D01*
X0032315Y0151918D02*
X0024102Y0151918D01*
X0024102Y0149920D02*
X0033576Y0149920D01*
X0036375Y0155915D02*
X0036631Y0155915D01*
X0055837Y0167906D02*
X0061539Y0167906D01*
X0058572Y0169905D02*
X0073061Y0169905D01*
X0072000Y0171543D02*
X0065000Y0171543D01*
X0063346Y0171543D01*
X0060890Y0176500D01*
X0058653Y0173902D02*
X0077058Y0173902D01*
X0077008Y0175900D02*
X0056304Y0175900D01*
X0055787Y0179897D02*
X0050146Y0179897D01*
X0050146Y0177899D02*
X0077008Y0177899D01*
X0077008Y0179897D02*
X0069784Y0179897D01*
X0070185Y0181896D02*
X0077008Y0181896D01*
X0077281Y0183894D02*
X0069110Y0183894D01*
X0070185Y0185893D02*
X0077008Y0185893D01*
X0077008Y0187891D02*
X0069871Y0187891D01*
X0065992Y0189890D02*
X0077008Y0189890D01*
X0077008Y0191888D02*
X0065992Y0191888D01*
X0065726Y0193887D02*
X0077274Y0193887D01*
X0077008Y0195885D02*
X0065992Y0195885D01*
X0065992Y0197884D02*
X0077008Y0197884D01*
X0077008Y0199882D02*
X0065992Y0199882D01*
X0065992Y0201881D02*
X0077008Y0201881D01*
X0077266Y0203879D02*
X0065734Y0203879D01*
X0066200Y0205878D02*
X0077008Y0205878D01*
X0077008Y0207876D02*
X0068198Y0207876D01*
X0069666Y0209875D02*
X0077008Y0209875D01*
X0077008Y0211873D02*
X0069702Y0211873D01*
X0069702Y0213872D02*
X0077259Y0213872D01*
X0073060Y0215870D02*
X0090983Y0215870D01*
X0090398Y0213872D02*
X0086961Y0213872D01*
X0087213Y0211873D02*
X0090398Y0211873D01*
X0090398Y0209875D02*
X0087213Y0209875D01*
X0087213Y0207876D02*
X0090398Y0207876D01*
X0090398Y0205878D02*
X0087213Y0205878D01*
X0086954Y0203879D02*
X0088492Y0203879D01*
X0090000Y0201000D02*
X0093500Y0204500D01*
X0093500Y0214000D01*
X0096000Y0216500D01*
X0098063Y0216500D01*
X0099000Y0217437D01*
X0099437Y0217000D01*
X0102000Y0217000D01*
X0106063Y0212937D01*
X0106063Y0212240D01*
X0109937Y0211873D02*
X0111385Y0211873D01*
X0110457Y0209875D02*
X0109937Y0209875D01*
X0110457Y0207876D02*
X0109266Y0207876D01*
X0109937Y0205878D02*
X0110633Y0205878D01*
X0111228Y0203879D02*
X0109937Y0203879D01*
X0109504Y0201881D02*
X0111228Y0201881D01*
X0111228Y0199882D02*
X0107205Y0199882D01*
X0107205Y0197884D02*
X0107295Y0197884D01*
X0109000Y0194500D02*
X0111563Y0194500D01*
X0111563Y0147437D01*
X0115000Y0144000D01*
X0118283Y0143924D02*
X0139281Y0143924D01*
X0139216Y0143860D02*
X0138717Y0142653D01*
X0138717Y0141347D01*
X0139216Y0140140D01*
X0140140Y0139216D01*
X0141347Y0138717D01*
X0142653Y0138717D01*
X0143860Y0139216D01*
X0144784Y0140140D01*
X0144965Y0140577D01*
X0188285Y0183898D01*
X0191093Y0183898D01*
X0189450Y0183217D01*
X0188183Y0181950D01*
X0187498Y0180296D01*
X0187498Y0180102D01*
X0186383Y0180102D01*
X0185243Y0179630D01*
X0184370Y0178757D01*
X0141778Y0136165D01*
X0126792Y0136165D01*
X0125627Y0137331D01*
X0118373Y0137331D01*
X0117142Y0136099D01*
X0117142Y0134512D01*
X0111898Y0134512D01*
X0111898Y0134642D01*
X0110666Y0135874D01*
X0097113Y0135874D01*
X0095882Y0134642D01*
X0095882Y0128176D01*
X0096586Y0127472D01*
X0095882Y0126768D01*
X0095882Y0120302D01*
X0096586Y0119598D01*
X0095882Y0118894D01*
X0095882Y0118602D01*
X0095102Y0118602D01*
X0095102Y0130910D01*
X0095283Y0131347D01*
X0095283Y0132653D01*
X0094784Y0133860D01*
X0093860Y0134784D01*
X0092653Y0135283D01*
X0091347Y0135283D01*
X0090140Y0134784D01*
X0089216Y0133860D01*
X0088717Y0132653D01*
X0088717Y0131347D01*
X0088898Y0130910D01*
X0088898Y0116383D01*
X0089370Y0115243D01*
X0090243Y0114370D01*
X0090870Y0113743D01*
X0090870Y0113743D01*
X0091743Y0112870D01*
X0092883Y0112398D01*
X0095913Y0112398D01*
X0096586Y0111724D01*
X0095882Y0111020D01*
X0095882Y0104554D01*
X0096586Y0103850D01*
X0095882Y0103146D01*
X0095882Y0096680D01*
X0096586Y0095976D01*
X0095882Y0095272D01*
X0095882Y0094902D01*
X0094816Y0094902D01*
X0094134Y0095185D01*
X0092866Y0095185D01*
X0091696Y0094700D01*
X0090800Y0093804D01*
X0090315Y0092634D01*
X0090315Y0091366D01*
X0090545Y0090810D01*
X0089666Y0090810D01*
X0088496Y0090325D01*
X0087600Y0089429D01*
X0087115Y0088259D01*
X0087115Y0086991D01*
X0087600Y0085821D01*
X0088496Y0084925D01*
X0088611Y0084877D01*
X0058265Y0084877D01*
X0065630Y0092243D01*
X0066102Y0093383D01*
X0066102Y0129215D01*
X0082693Y0145806D01*
X0083165Y0146946D01*
X0083165Y0152208D01*
X0084000Y0153043D01*
X0084901Y0152142D01*
X0084961Y0152142D01*
X0085307Y0151306D01*
X0086180Y0150433D01*
X0086535Y0150077D01*
X0086716Y0149640D01*
X0087640Y0148716D01*
X0088847Y0148217D01*
X0090153Y0148217D01*
X0091360Y0148716D01*
X0092284Y0149640D01*
X0092783Y0150847D01*
X0092783Y0152153D01*
X0092284Y0153360D01*
X0092205Y0153439D01*
X0092205Y0160627D01*
X0090973Y0161858D01*
X0084901Y0161858D01*
X0084059Y0161016D01*
X0084059Y0162192D01*
X0084634Y0162767D01*
X0084634Y0165290D01*
X0097183Y0177839D01*
X0097257Y0177870D01*
X0098130Y0178743D01*
X0098315Y0179189D01*
X0101686Y0179189D01*
X0102917Y0180421D01*
X0102917Y0185705D01*
X0102102Y0186520D01*
X0102102Y0192642D01*
X0105973Y0192642D01*
X0106283Y0192952D01*
X0106370Y0192743D01*
X0107243Y0191870D01*
X0107295Y0191848D01*
X0107295Y0190873D01*
X0108461Y0189708D01*
X0108461Y0146820D01*
X0108933Y0145680D01*
X0109806Y0144807D01*
X0112035Y0142577D01*
X0112216Y0142140D01*
X0113140Y0141216D01*
X0114347Y0140717D01*
X0115653Y0140717D01*
X0116860Y0141216D01*
X0117784Y0142140D01*
X0118283Y0143347D01*
X0118283Y0144653D01*
X0117784Y0145860D01*
X0116860Y0146784D01*
X0116585Y0146898D01*
X0116816Y0146898D01*
X0118324Y0147522D01*
X0119478Y0148676D01*
X0119845Y0149563D01*
X0123365Y0153083D01*
X0130871Y0153083D01*
X0132102Y0154314D01*
X0132102Y0166301D01*
X0148699Y0182898D01*
X0177816Y0182898D01*
X0179001Y0183389D01*
X0140577Y0144965D01*
X0140140Y0144784D01*
X0139216Y0143860D01*
X0138717Y0141926D02*
X0117569Y0141926D01*
X0117721Y0145923D02*
X0141535Y0145923D01*
X0143534Y0147921D02*
X0118723Y0147921D01*
X0120202Y0149920D02*
X0145532Y0149920D01*
X0147531Y0151918D02*
X0122200Y0151918D01*
X0124980Y0160500D02*
X0119437Y0166043D01*
X0119437Y0194500D01*
X0114331Y0197268D02*
X0114331Y0208500D01*
X0118205Y0207876D02*
X0147257Y0207876D01*
X0147767Y0207366D02*
X0146535Y0208598D01*
X0146535Y0209706D01*
X0142879Y0213362D01*
X0137232Y0213362D01*
X0136528Y0214066D01*
X0135824Y0213362D01*
X0128176Y0213362D01*
X0126945Y0214594D01*
X0126945Y0224209D01*
X0128176Y0225441D01*
X0135824Y0225441D01*
X0136528Y0224737D01*
X0137232Y0225441D01*
X0144879Y0225441D01*
X0146110Y0224209D01*
X0146110Y0221735D01*
X0151000Y0216845D01*
X0154633Y0220478D01*
X0156141Y0221102D01*
X0157816Y0221102D01*
X0159324Y0220478D01*
X0160478Y0219324D01*
X0161102Y0217816D01*
X0161102Y0216184D01*
X0160478Y0214676D01*
X0159324Y0213522D01*
X0159250Y0213492D01*
X0155465Y0209706D01*
X0155465Y0208598D01*
X0154233Y0207366D01*
X0152843Y0207366D01*
X0151816Y0206941D01*
X0150184Y0206941D01*
X0149157Y0207366D01*
X0147767Y0207366D01*
X0146367Y0209875D02*
X0118205Y0209875D01*
X0117277Y0211873D02*
X0144368Y0211873D01*
X0136722Y0213872D02*
X0136333Y0213872D01*
X0127667Y0213872D02*
X0109937Y0213872D01*
X0108752Y0215870D02*
X0126945Y0215870D01*
X0126945Y0217869D02*
X0105518Y0217869D01*
X0103858Y0219868D02*
X0126945Y0219868D01*
X0126945Y0221866D02*
X0079965Y0221866D01*
X0079965Y0219868D02*
X0094142Y0219868D01*
X0092982Y0217869D02*
X0079822Y0217869D01*
X0079002Y0223865D02*
X0126945Y0223865D01*
X0146110Y0223865D02*
X0181455Y0223865D01*
X0181700Y0224457D02*
X0181198Y0223243D01*
X0181198Y0219343D01*
X0181700Y0218129D01*
X0182629Y0217200D01*
X0187629Y0212200D01*
X0188161Y0211980D01*
X0188161Y0208251D01*
X0189393Y0207020D01*
X0190452Y0207020D01*
X0193142Y0204330D01*
X0193142Y0203027D01*
X0194373Y0201795D01*
X0201627Y0201795D01*
X0202002Y0202170D01*
X0204455Y0202170D01*
X0204495Y0202130D01*
X0207570Y0202130D01*
X0213862Y0195838D01*
X0213862Y0191531D01*
X0215094Y0190299D01*
X0219985Y0190299D01*
X0221217Y0191531D01*
X0221217Y0202131D01*
X0219985Y0203362D01*
X0215678Y0203362D01*
X0210768Y0208272D01*
X0209555Y0208775D01*
X0209545Y0208775D01*
X0209505Y0208815D01*
X0204495Y0208815D01*
X0204455Y0208775D01*
X0202858Y0208775D01*
X0202858Y0209099D01*
X0201957Y0210000D01*
X0202858Y0210901D01*
X0202858Y0216973D01*
X0201627Y0218205D01*
X0197830Y0218205D01*
X0197594Y0218302D01*
X0190868Y0218302D01*
X0189422Y0219748D01*
X0189876Y0219748D01*
X0190244Y0219379D01*
X0192681Y0218370D01*
X0195319Y0218370D01*
X0197756Y0219379D01*
X0198124Y0219748D01*
X0201668Y0219748D01*
X0203698Y0217719D01*
X0203698Y0217072D01*
X0203264Y0216639D01*
X0203264Y0212417D01*
X0204495Y0211185D01*
X0209505Y0211185D01*
X0209545Y0211225D01*
X0209555Y0211225D01*
X0210768Y0211728D01*
X0211697Y0212657D01*
X0215678Y0216638D01*
X0219985Y0216638D01*
X0221217Y0217869D01*
X0221217Y0228469D01*
X0219985Y0229701D01*
X0215094Y0229701D01*
X0214102Y0228709D01*
X0214102Y0229316D01*
X0213478Y0230824D01*
X0212324Y0231978D01*
X0210816Y0232602D01*
X0207684Y0232602D01*
X0206176Y0231978D01*
X0204450Y0230252D01*
X0198124Y0230252D01*
X0197756Y0230621D01*
X0195319Y0231630D01*
X0192681Y0231630D01*
X0190244Y0230621D01*
X0189876Y0230252D01*
X0183090Y0230252D01*
X0181858Y0229020D01*
X0181858Y0224615D01*
X0181700Y0224457D01*
X0181858Y0225863D02*
X0073626Y0225863D01*
X0073626Y0225491D02*
X0072394Y0224260D01*
X0063172Y0224260D01*
X0061941Y0225491D01*
X0061941Y0231564D01*
X0063172Y0232795D01*
X0072394Y0232795D01*
X0073626Y0231564D01*
X0073626Y0225491D01*
X0071998Y0223865D02*
X0062957Y0223865D01*
X0061941Y0225863D02*
X0060959Y0225863D01*
X0061941Y0227862D02*
X0059059Y0227862D01*
X0059059Y0229860D02*
X0061941Y0229860D01*
X0062236Y0231859D02*
X0058764Y0231859D01*
X0055455Y0223865D02*
X0024102Y0223865D01*
X0024102Y0225863D02*
X0041035Y0225863D01*
X0041035Y0227862D02*
X0024102Y0227862D01*
X0024102Y0229860D02*
X0041035Y0229860D01*
X0047669Y0231859D02*
X0024102Y0231859D01*
X0024102Y0233857D02*
X0295488Y0233857D01*
X0295488Y0231859D02*
X0212443Y0231859D01*
X0213877Y0229860D02*
X0259099Y0229860D01*
X0259684Y0230102D02*
X0258176Y0229478D01*
X0257022Y0228324D01*
X0255970Y0227272D01*
X0251138Y0227272D01*
X0251138Y0228469D01*
X0249906Y0229701D01*
X0245015Y0229701D01*
X0243783Y0228469D01*
X0243783Y0225012D01*
X0243358Y0223985D01*
X0243358Y0222353D01*
X0243783Y0221327D01*
X0243783Y0219518D01*
X0243102Y0220199D01*
X0243102Y0223785D01*
X0242478Y0225292D01*
X0242476Y0225294D01*
X0242476Y0228469D01*
X0241245Y0229701D01*
X0236354Y0229701D01*
X0235122Y0228469D01*
X0235122Y0225012D01*
X0234697Y0223985D01*
X0234697Y0222353D01*
X0234898Y0221869D01*
X0234898Y0217684D01*
X0235522Y0216176D01*
X0236676Y0215022D01*
X0240676Y0211022D01*
X0242184Y0210398D01*
X0252816Y0210398D01*
X0254324Y0211022D01*
X0255478Y0212176D01*
X0256483Y0213181D01*
X0256712Y0213181D01*
X0255881Y0211174D01*
X0255881Y0208826D01*
X0256780Y0206657D01*
X0258440Y0204996D01*
X0260609Y0204098D01*
X0262958Y0204098D01*
X0264024Y0204539D01*
X0263755Y0203891D01*
X0263755Y0201542D01*
X0264654Y0199373D01*
X0266314Y0197713D01*
X0268483Y0196814D01*
X0270832Y0196814D01*
X0273001Y0197713D01*
X0274661Y0199373D01*
X0275560Y0201542D01*
X0275560Y0203891D01*
X0274661Y0206060D01*
X0273001Y0207720D01*
X0270832Y0208619D01*
X0268483Y0208619D01*
X0267417Y0208177D01*
X0267686Y0208826D01*
X0267686Y0211174D01*
X0267417Y0211823D01*
X0268483Y0211381D01*
X0270832Y0211381D01*
X0273001Y0212280D01*
X0274661Y0213940D01*
X0275560Y0216109D01*
X0275560Y0218458D01*
X0274661Y0220627D01*
X0273390Y0221898D01*
X0279301Y0221898D01*
X0280898Y0220301D01*
X0280898Y0215510D01*
X0281522Y0214002D01*
X0281535Y0213990D01*
X0280388Y0214465D01*
X0278612Y0214465D01*
X0276971Y0213785D01*
X0275715Y0212529D01*
X0275035Y0210888D01*
X0275035Y0209112D01*
X0275715Y0207471D01*
X0276971Y0206215D01*
X0278612Y0205535D01*
X0280388Y0205535D01*
X0282029Y0206215D01*
X0283285Y0207471D01*
X0283446Y0207861D01*
X0283945Y0206657D01*
X0285605Y0204996D01*
X0287775Y0204098D01*
X0290123Y0204098D01*
X0292292Y0204996D01*
X0293953Y0206657D01*
X0294851Y0208826D01*
X0294851Y0211174D01*
X0293953Y0213343D01*
X0292292Y0215004D01*
X0291535Y0215318D01*
X0291340Y0215788D01*
X0290186Y0216942D01*
X0289102Y0218025D01*
X0289102Y0222816D01*
X0288478Y0224324D01*
X0283324Y0229478D01*
X0281816Y0230102D01*
X0259684Y0230102D01*
X0256560Y0227862D02*
X0251138Y0227862D01*
X0243783Y0227862D02*
X0242476Y0227862D01*
X0242476Y0225863D02*
X0243783Y0225863D01*
X0243358Y0223865D02*
X0243069Y0223865D01*
X0243102Y0221866D02*
X0243560Y0221866D01*
X0243434Y0219868D02*
X0243783Y0219868D01*
X0237826Y0213872D02*
X0212912Y0213872D01*
X0210914Y0211873D02*
X0239825Y0211873D01*
X0235828Y0215870D02*
X0214911Y0215870D01*
X0221216Y0217869D02*
X0226461Y0217869D01*
X0227692Y0216638D01*
X0232583Y0216638D01*
X0233815Y0217869D01*
X0233815Y0228469D01*
X0232583Y0229701D01*
X0227692Y0229701D01*
X0226461Y0228469D01*
X0226461Y0217869D01*
X0226461Y0219868D02*
X0221217Y0219868D01*
X0221217Y0221866D02*
X0226461Y0221866D01*
X0226461Y0223865D02*
X0221217Y0223865D01*
X0221217Y0225863D02*
X0226461Y0225863D01*
X0226461Y0227862D02*
X0221217Y0227862D01*
X0210000Y0228500D02*
X0206500Y0225000D01*
X0201087Y0225000D01*
X0201962Y0217869D02*
X0203547Y0217869D01*
X0203264Y0215870D02*
X0202858Y0215870D01*
X0202858Y0213872D02*
X0203264Y0213872D01*
X0202858Y0211873D02*
X0203807Y0211873D01*
X0202082Y0209875D02*
X0255881Y0209875D01*
X0256171Y0211873D02*
X0255175Y0211873D01*
X0256274Y0207876D02*
X0211164Y0207876D01*
X0213162Y0205878D02*
X0257558Y0205878D01*
X0263755Y0203879D02*
X0215161Y0203879D01*
X0221217Y0201881D02*
X0226461Y0201881D01*
X0226461Y0202131D02*
X0226461Y0191531D01*
X0227692Y0190299D01*
X0232583Y0190299D01*
X0233815Y0191531D01*
X0233815Y0202131D01*
X0232583Y0203362D01*
X0227692Y0203362D01*
X0226461Y0202131D01*
X0226461Y0199882D02*
X0221217Y0199882D01*
X0221217Y0197884D02*
X0226461Y0197884D01*
X0226461Y0195885D02*
X0221217Y0195885D01*
X0221217Y0193887D02*
X0226461Y0193887D01*
X0226461Y0191888D02*
X0221217Y0191888D01*
X0213862Y0191888D02*
X0187690Y0191888D01*
X0185870Y0189890D02*
X0185691Y0189890D01*
X0187000Y0187000D02*
X0142000Y0142000D01*
X0144571Y0139927D02*
X0145540Y0139927D01*
X0146313Y0141926D02*
X0147538Y0141926D01*
X0148311Y0143924D02*
X0149537Y0143924D01*
X0150310Y0145923D02*
X0151535Y0145923D01*
X0152309Y0147921D02*
X0153534Y0147921D01*
X0154307Y0149920D02*
X0155532Y0149920D01*
X0156306Y0151918D02*
X0157531Y0151918D01*
X0158304Y0153917D02*
X0159529Y0153917D01*
X0160303Y0155915D02*
X0161528Y0155915D01*
X0162301Y0157914D02*
X0163526Y0157914D01*
X0164300Y0159912D02*
X0165525Y0159912D01*
X0166298Y0161911D02*
X0167523Y0161911D01*
X0168297Y0163909D02*
X0169522Y0163909D01*
X0170295Y0165908D02*
X0171520Y0165908D01*
X0172294Y0167906D02*
X0173519Y0167906D01*
X0174292Y0169905D02*
X0175517Y0169905D01*
X0176291Y0171903D02*
X0177516Y0171903D01*
X0178289Y0173902D02*
X0179514Y0173902D01*
X0180288Y0175900D02*
X0181513Y0175900D01*
X0182286Y0177899D02*
X0183511Y0177899D01*
X0184285Y0179897D02*
X0185888Y0179897D01*
X0186283Y0181896D02*
X0188160Y0181896D01*
X0188282Y0183894D02*
X0191085Y0183894D01*
X0187000Y0187000D02*
X0242000Y0187000D01*
X0252000Y0177000D01*
X0256502Y0177899D02*
X0257498Y0177899D01*
X0257498Y0179897D02*
X0256502Y0179897D01*
X0255840Y0181896D02*
X0258160Y0181896D01*
X0261085Y0183894D02*
X0252915Y0183894D01*
X0251085Y0183894D02*
X0249493Y0183894D01*
X0247495Y0185893D02*
X0295488Y0185893D01*
X0295488Y0187891D02*
X0245496Y0187891D01*
X0245015Y0190299D02*
X0243783Y0191531D01*
X0243783Y0202131D01*
X0245015Y0203362D01*
X0249906Y0203362D01*
X0251138Y0202131D01*
X0251138Y0191531D01*
X0249906Y0190299D01*
X0245015Y0190299D01*
X0243130Y0189890D02*
X0295488Y0189890D01*
X0295488Y0191888D02*
X0251138Y0191888D01*
X0251138Y0193887D02*
X0295488Y0193887D01*
X0295488Y0195885D02*
X0251138Y0195885D01*
X0251138Y0197884D02*
X0266143Y0197884D01*
X0264443Y0199882D02*
X0251138Y0199882D01*
X0251138Y0201881D02*
X0263755Y0201881D01*
X0273172Y0197884D02*
X0295488Y0197884D01*
X0295488Y0199882D02*
X0274872Y0199882D01*
X0275560Y0201881D02*
X0295488Y0201881D01*
X0295488Y0203879D02*
X0275560Y0203879D01*
X0274737Y0205878D02*
X0277785Y0205878D01*
X0275547Y0207876D02*
X0272624Y0207876D01*
X0275035Y0209875D02*
X0267686Y0209875D01*
X0272020Y0211873D02*
X0275444Y0211873D01*
X0274593Y0213872D02*
X0277181Y0213872D01*
X0275461Y0215870D02*
X0280898Y0215870D01*
X0280898Y0217869D02*
X0275560Y0217869D01*
X0274976Y0219868D02*
X0280898Y0219868D01*
X0279332Y0221866D02*
X0273422Y0221866D01*
X0282401Y0229860D02*
X0295488Y0229860D01*
X0295488Y0227862D02*
X0284940Y0227862D01*
X0286939Y0225863D02*
X0295488Y0225863D01*
X0295488Y0223865D02*
X0288668Y0223865D01*
X0289102Y0221866D02*
X0295488Y0221866D01*
X0295488Y0219868D02*
X0289102Y0219868D01*
X0289259Y0217869D02*
X0295488Y0217869D01*
X0295488Y0215870D02*
X0291257Y0215870D01*
X0290186Y0216942D02*
X0290186Y0216942D01*
X0293424Y0213872D02*
X0295488Y0213872D01*
X0295488Y0211873D02*
X0294561Y0211873D01*
X0294851Y0209875D02*
X0295488Y0209875D01*
X0295488Y0207876D02*
X0294458Y0207876D01*
X0295488Y0205878D02*
X0293174Y0205878D01*
X0288949Y0210000D02*
X0287862Y0211087D01*
X0284724Y0205878D02*
X0281215Y0205878D01*
X0295488Y0183894D02*
X0262915Y0183894D01*
X0265840Y0181896D02*
X0295488Y0181896D01*
X0295488Y0179897D02*
X0284904Y0179897D01*
X0286903Y0177899D02*
X0295488Y0177899D01*
X0295488Y0175900D02*
X0288901Y0175900D01*
X0290900Y0173902D02*
X0295488Y0173902D01*
X0295488Y0171903D02*
X0292898Y0171903D01*
X0294897Y0169905D02*
X0295488Y0169905D01*
X0287488Y0165710D02*
X0287488Y0133290D01*
X0276022Y0121824D01*
X0275398Y0120316D01*
X0275398Y0112764D01*
X0275086Y0112764D01*
X0273854Y0111532D01*
X0273854Y0103491D01*
X0275086Y0102260D01*
X0283914Y0102260D01*
X0285146Y0103491D01*
X0285146Y0111532D01*
X0283914Y0112764D01*
X0283602Y0112764D01*
X0283602Y0117801D01*
X0293914Y0128113D01*
X0295068Y0129267D01*
X0295488Y0130280D01*
X0295488Y0044102D01*
X0114777Y0044102D01*
X0114777Y0083390D01*
X0116798Y0085411D01*
X0116851Y0085435D01*
X0117233Y0085846D01*
X0117630Y0086243D01*
X0117652Y0086296D01*
X0118535Y0087246D01*
X0118535Y0085598D01*
X0119633Y0084500D01*
X0118535Y0083402D01*
X0118535Y0078511D01*
X0119767Y0077280D01*
X0122299Y0077280D01*
X0122299Y0076709D01*
X0122004Y0076414D01*
X0122004Y0066011D01*
X0123235Y0064780D01*
X0140135Y0064780D01*
X0141331Y0065976D01*
X0142527Y0064780D01*
X0145646Y0064780D01*
X0146843Y0065976D01*
X0148039Y0064780D01*
X0151158Y0064780D01*
X0152354Y0065976D01*
X0153550Y0064780D01*
X0198009Y0064780D01*
X0199240Y0066011D01*
X0199240Y0076414D01*
X0199051Y0076603D01*
X0199051Y0078280D01*
X0201733Y0078280D01*
X0202965Y0079511D01*
X0202965Y0084402D01*
X0201733Y0085634D01*
X0195267Y0085634D01*
X0194750Y0085117D01*
X0194233Y0085634D01*
X0187767Y0085634D01*
X0187500Y0085367D01*
X0187233Y0085634D01*
X0180767Y0085634D01*
X0179535Y0084402D01*
X0179535Y0079511D01*
X0180767Y0078280D01*
X0183997Y0078280D01*
X0184631Y0077646D01*
X0177059Y0077646D01*
X0176693Y0078531D01*
X0175932Y0079291D01*
X0175859Y0079321D01*
X0175474Y0079706D01*
X0174518Y0080102D01*
X0174348Y0080102D01*
X0174348Y0087795D01*
X0178127Y0087795D01*
X0179358Y0089027D01*
X0179358Y0095099D01*
X0178457Y0096000D01*
X0179358Y0096901D01*
X0179358Y0100408D01*
X0181785Y0102835D01*
X0212208Y0102835D01*
X0213043Y0102000D01*
X0212142Y0101099D01*
X0212142Y0095027D01*
X0213373Y0093795D01*
X0213898Y0093795D01*
X0213898Y0074683D01*
X0214370Y0073543D01*
X0233474Y0054439D01*
X0233398Y0054254D01*
X0233398Y0051946D01*
X0234281Y0049813D01*
X0235913Y0048181D01*
X0238046Y0047298D01*
X0240354Y0047298D01*
X0242487Y0048181D01*
X0244119Y0049813D01*
X0245002Y0051946D01*
X0245002Y0054254D01*
X0244119Y0056387D01*
X0242487Y0058019D01*
X0240354Y0058902D01*
X0238046Y0058902D01*
X0237861Y0058826D01*
X0220102Y0076585D01*
X0220102Y0093795D01*
X0220627Y0093795D01*
X0221858Y0095027D01*
X0221858Y0101099D01*
X0220957Y0102000D01*
X0221858Y0102901D01*
X0221858Y0108973D01*
X0220627Y0110205D01*
X0220102Y0110205D01*
X0220102Y0115910D01*
X0220283Y0116347D01*
X0220283Y0117653D01*
X0219784Y0118860D01*
X0218860Y0119784D01*
X0217653Y0120283D01*
X0216347Y0120283D01*
X0215140Y0119784D01*
X0214216Y0118860D01*
X0213717Y0117653D01*
X0213717Y0116347D01*
X0213898Y0115910D01*
X0213898Y0110205D01*
X0213373Y0110205D01*
X0212208Y0109039D01*
X0156820Y0109039D01*
X0155680Y0108567D01*
X0154807Y0107694D01*
X0147215Y0100102D01*
X0146340Y0100102D01*
X0145199Y0099630D01*
X0144327Y0098757D01*
X0138790Y0093220D01*
X0136267Y0093220D01*
X0135035Y0091989D01*
X0135035Y0090918D01*
X0134233Y0091720D01*
X0127767Y0091720D01*
X0127000Y0090953D01*
X0126233Y0091720D01*
X0122698Y0091720D01*
X0136515Y0106573D01*
X0136860Y0106716D01*
X0137784Y0107640D01*
X0138283Y0108847D01*
X0138283Y0110153D01*
X0137784Y0111360D01*
X0136860Y0112284D01*
X0136726Y0112339D01*
X0173898Y0149510D01*
X0173898Y0143090D01*
X0173717Y0142653D01*
X0173717Y0141347D01*
X0174216Y0140140D01*
X0175140Y0139216D01*
X0176347Y0138717D01*
X0177653Y0138717D01*
X0178860Y0139216D01*
X0179784Y0140140D01*
X0180283Y0141347D01*
X0180283Y0142653D01*
X0180102Y0143090D01*
X0180102Y0150910D01*
X0180283Y0151347D01*
X0180283Y0152653D01*
X0179784Y0153860D01*
X0179015Y0154628D01*
X0183285Y0158898D01*
X0195715Y0158898D01*
X0198898Y0155715D01*
X0198898Y0152665D01*
X0198183Y0151950D01*
X0197498Y0150296D01*
X0197498Y0143704D01*
X0198183Y0142050D01*
X0199004Y0141229D01*
X0198598Y0140824D01*
X0198598Y0140102D01*
X0198285Y0140102D01*
X0195969Y0142418D01*
X0196502Y0143704D01*
X0196502Y0150296D01*
X0195817Y0151950D01*
X0194550Y0153217D01*
X0192896Y0153902D01*
X0191104Y0153902D01*
X0189450Y0153217D01*
X0188183Y0151950D01*
X0187498Y0150296D01*
X0187498Y0143704D01*
X0188183Y0142050D01*
X0188931Y0141301D01*
X0189370Y0140243D01*
X0190243Y0139370D01*
X0195243Y0134370D01*
X0196383Y0133898D01*
X0198598Y0133898D01*
X0198598Y0133176D01*
X0199830Y0131945D01*
X0206690Y0131945D01*
X0207921Y0133176D01*
X0207921Y0140824D01*
X0206690Y0142055D01*
X0205819Y0142055D01*
X0206502Y0143704D01*
X0206502Y0150296D01*
X0205817Y0151950D01*
X0205102Y0152665D01*
X0205102Y0157617D01*
X0204630Y0158757D01*
X0199630Y0163757D01*
X0198757Y0164630D01*
X0197617Y0165102D01*
X0194490Y0165102D01*
X0194630Y0165243D01*
X0199959Y0170572D01*
X0201104Y0170098D01*
X0202896Y0170098D01*
X0204550Y0170783D01*
X0205817Y0172050D01*
X0206502Y0173704D01*
X0206502Y0180296D01*
X0205817Y0181950D01*
X0204550Y0183217D01*
X0202907Y0183898D01*
X0211093Y0183898D01*
X0209450Y0183217D01*
X0208183Y0181950D01*
X0207498Y0180296D01*
X0207498Y0173704D01*
X0207898Y0172739D01*
X0207898Y0171184D01*
X0208522Y0169676D01*
X0209676Y0168522D01*
X0216711Y0161487D01*
X0217096Y0161102D01*
X0216184Y0161102D01*
X0214676Y0160478D01*
X0213522Y0159324D01*
X0209676Y0155478D01*
X0208522Y0154324D01*
X0207898Y0152816D01*
X0207898Y0151261D01*
X0207498Y0150296D01*
X0207498Y0143704D01*
X0208183Y0142050D01*
X0209450Y0140783D01*
X0211104Y0140098D01*
X0212896Y0140098D01*
X0214550Y0140783D01*
X0215817Y0142050D01*
X0216502Y0143704D01*
X0216502Y0150296D01*
X0216384Y0150582D01*
X0218699Y0152898D01*
X0239130Y0152898D01*
X0238183Y0151950D01*
X0237498Y0150296D01*
X0237498Y0143704D01*
X0238183Y0142050D01*
X0239450Y0140783D01*
X0240826Y0140213D01*
X0240715Y0140102D01*
X0231383Y0140102D01*
X0230243Y0139630D01*
X0220715Y0130102D01*
X0158090Y0130102D01*
X0157653Y0130283D01*
X0156347Y0130283D01*
X0155140Y0129784D01*
X0154216Y0128860D01*
X0153717Y0127653D01*
X0153717Y0126347D01*
X0154216Y0125140D01*
X0155140Y0124216D01*
X0156347Y0123717D01*
X0157653Y0123717D01*
X0158090Y0123898D01*
X0222617Y0123898D01*
X0223757Y0124370D01*
X0224630Y0125243D01*
X0233285Y0133898D01*
X0242617Y0133898D01*
X0243757Y0134370D01*
X0244630Y0135243D01*
X0249959Y0140572D01*
X0251104Y0140098D01*
X0252896Y0140098D01*
X0254550Y0140783D01*
X0255817Y0142050D01*
X0256502Y0143704D01*
X0256502Y0150296D01*
X0255817Y0151950D01*
X0254870Y0152898D01*
X0259130Y0152898D01*
X0258183Y0151950D01*
X0257498Y0150296D01*
X0257498Y0143704D01*
X0258183Y0142050D01*
X0259450Y0140783D01*
X0261104Y0140098D01*
X0262896Y0140098D01*
X0264550Y0140783D01*
X0265817Y0142050D01*
X0266502Y0143704D01*
X0266502Y0149196D01*
X0276885Y0138813D01*
X0277548Y0137214D01*
X0279025Y0135737D01*
X0280955Y0134937D01*
X0283045Y0134937D01*
X0284975Y0135737D01*
X0286452Y0137214D01*
X0287252Y0139144D01*
X0287252Y0141234D01*
X0286452Y0143164D01*
X0285490Y0144126D01*
X0286452Y0145088D01*
X0287252Y0147018D01*
X0287252Y0149108D01*
X0286452Y0151038D01*
X0285490Y0152000D01*
X0286452Y0152962D01*
X0287252Y0154892D01*
X0287252Y0156982D01*
X0286452Y0158912D01*
X0285490Y0159874D01*
X0286452Y0160836D01*
X0287252Y0162766D01*
X0287252Y0164856D01*
X0286481Y0166718D01*
X0287488Y0165710D01*
X0287291Y0165908D02*
X0286816Y0165908D01*
X0287252Y0163909D02*
X0287488Y0163909D01*
X0287488Y0161911D02*
X0286898Y0161911D01*
X0287488Y0159912D02*
X0285529Y0159912D01*
X0286866Y0157914D02*
X0287488Y0157914D01*
X0287488Y0155915D02*
X0287252Y0155915D01*
X0287488Y0153917D02*
X0286848Y0153917D01*
X0287488Y0151918D02*
X0285572Y0151918D01*
X0286916Y0149920D02*
X0287488Y0149920D01*
X0287488Y0147921D02*
X0287252Y0147921D01*
X0287488Y0145923D02*
X0286798Y0145923D01*
X0287488Y0143924D02*
X0285692Y0143924D01*
X0286965Y0141926D02*
X0287488Y0141926D01*
X0287488Y0139927D02*
X0287252Y0139927D01*
X0287488Y0137929D02*
X0286748Y0137929D01*
X0287488Y0135930D02*
X0285168Y0135930D01*
X0287488Y0133932D02*
X0269825Y0133932D01*
X0269719Y0134187D02*
X0268087Y0135819D01*
X0265954Y0136702D01*
X0263646Y0136702D01*
X0261513Y0135819D01*
X0259881Y0134187D01*
X0258998Y0132054D01*
X0258998Y0129746D01*
X0259881Y0127613D01*
X0261513Y0125981D01*
X0263646Y0125098D01*
X0265954Y0125098D01*
X0268087Y0125981D01*
X0269719Y0127613D01*
X0270602Y0129746D01*
X0270602Y0132054D01*
X0269719Y0134187D01*
X0270602Y0131933D02*
X0286131Y0131933D01*
X0284133Y0129934D02*
X0270602Y0129934D01*
X0269853Y0127936D02*
X0282134Y0127936D01*
X0280136Y0125937D02*
X0267982Y0125937D01*
X0261618Y0125937D02*
X0225325Y0125937D01*
X0227323Y0127936D02*
X0259747Y0127936D01*
X0258998Y0129934D02*
X0229322Y0129934D01*
X0231320Y0131933D02*
X0258998Y0131933D01*
X0259775Y0133932D02*
X0242699Y0133932D01*
X0244630Y0135243D02*
X0244630Y0135243D01*
X0245317Y0135930D02*
X0261781Y0135930D01*
X0267819Y0135930D02*
X0278832Y0135930D01*
X0277252Y0137929D02*
X0247316Y0137929D01*
X0249314Y0139927D02*
X0275771Y0139927D01*
X0273773Y0141926D02*
X0265693Y0141926D01*
X0266502Y0143924D02*
X0271774Y0143924D01*
X0269776Y0145923D02*
X0266502Y0145923D01*
X0266502Y0147921D02*
X0267777Y0147921D01*
X0258170Y0151918D02*
X0255830Y0151918D01*
X0256502Y0149920D02*
X0257498Y0149920D01*
X0257498Y0147921D02*
X0256502Y0147921D01*
X0256502Y0145923D02*
X0257498Y0145923D01*
X0257498Y0143924D02*
X0256502Y0143924D01*
X0255693Y0141926D02*
X0258307Y0141926D01*
X0252000Y0147000D02*
X0242000Y0137000D01*
X0232000Y0137000D01*
X0222000Y0127000D01*
X0157000Y0127000D01*
X0155810Y0123939D02*
X0148326Y0123939D01*
X0146328Y0121940D02*
X0276139Y0121940D01*
X0275398Y0119942D02*
X0218478Y0119942D01*
X0220163Y0117943D02*
X0235838Y0117943D01*
X0235913Y0118019D02*
X0234281Y0116387D01*
X0233398Y0114254D01*
X0233398Y0111946D01*
X0234281Y0109813D01*
X0235913Y0108181D01*
X0238046Y0107298D01*
X0240354Y0107298D01*
X0242487Y0108181D01*
X0244119Y0109813D01*
X0245002Y0111946D01*
X0245002Y0114254D01*
X0244119Y0116387D01*
X0242487Y0118019D01*
X0240354Y0118902D01*
X0238046Y0118902D01*
X0235913Y0118019D01*
X0234098Y0115945D02*
X0220117Y0115945D01*
X0220102Y0113946D02*
X0233398Y0113946D01*
X0233398Y0111948D02*
X0220102Y0111948D01*
X0220882Y0109949D02*
X0234225Y0109949D01*
X0236469Y0107951D02*
X0221858Y0107951D01*
X0221858Y0105952D02*
X0261835Y0105952D01*
X0261513Y0105819D02*
X0259881Y0104187D01*
X0258998Y0102054D01*
X0258998Y0099746D01*
X0259881Y0097613D01*
X0261513Y0095981D01*
X0263646Y0095098D01*
X0265954Y0095098D01*
X0268087Y0095981D01*
X0269719Y0097613D01*
X0270602Y0099746D01*
X0270602Y0102054D01*
X0269719Y0104187D01*
X0268087Y0105819D01*
X0265954Y0106702D01*
X0263646Y0106702D01*
X0261513Y0105819D01*
X0262069Y0107951D02*
X0241931Y0107951D01*
X0244175Y0109949D02*
X0259825Y0109949D01*
X0259881Y0109813D02*
X0261513Y0108181D01*
X0263646Y0107298D01*
X0265954Y0107298D01*
X0268087Y0108181D01*
X0269719Y0109813D01*
X0270602Y0111946D01*
X0270602Y0114254D01*
X0269719Y0116387D01*
X0268087Y0118019D01*
X0265954Y0118902D01*
X0263646Y0118902D01*
X0261513Y0118019D01*
X0259881Y0116387D01*
X0258998Y0114254D01*
X0258998Y0111946D01*
X0259881Y0109813D01*
X0258998Y0111948D02*
X0245002Y0111948D01*
X0245002Y0113946D02*
X0258998Y0113946D01*
X0259698Y0115945D02*
X0244302Y0115945D01*
X0242562Y0117943D02*
X0261438Y0117943D01*
X0268162Y0117943D02*
X0275398Y0117943D01*
X0275398Y0115945D02*
X0269902Y0115945D01*
X0270602Y0113946D02*
X0275398Y0113946D01*
X0274270Y0111948D02*
X0270602Y0111948D01*
X0269775Y0109949D02*
X0273854Y0109949D01*
X0273854Y0107951D02*
X0267531Y0107951D01*
X0267765Y0105952D02*
X0273854Y0105952D01*
X0273854Y0103954D02*
X0269815Y0103954D01*
X0270602Y0101955D02*
X0295488Y0101955D01*
X0295488Y0099957D02*
X0285146Y0099957D01*
X0285146Y0100509D02*
X0283914Y0101740D01*
X0275086Y0101740D01*
X0273854Y0100509D01*
X0273854Y0099169D01*
X0273731Y0099118D01*
X0272858Y0098246D01*
X0269743Y0095130D01*
X0268870Y0094257D01*
X0268398Y0093117D01*
X0268398Y0087708D01*
X0268087Y0088019D01*
X0265954Y0088902D01*
X0263646Y0088902D01*
X0261513Y0088019D01*
X0259881Y0086387D01*
X0258998Y0084254D01*
X0258998Y0081946D01*
X0259881Y0079813D01*
X0261513Y0078181D01*
X0263646Y0077298D01*
X0265954Y0077298D01*
X0268087Y0078181D01*
X0269719Y0079813D01*
X0269889Y0080224D01*
X0272243Y0077870D01*
X0273383Y0077398D01*
X0274209Y0077398D01*
X0274209Y0076560D01*
X0274209Y0070881D01*
X0275440Y0069650D01*
X0282694Y0069650D01*
X0283657Y0070613D01*
X0283657Y0065389D01*
X0284519Y0064528D01*
X0283657Y0063666D01*
X0283657Y0054838D01*
X0284889Y0053606D01*
X0294111Y0053606D01*
X0295343Y0054838D01*
X0295343Y0063666D01*
X0294481Y0064528D01*
X0295343Y0065389D01*
X0295343Y0074611D01*
X0294953Y0075000D01*
X0295343Y0075389D01*
X0295343Y0084611D01*
X0294481Y0085472D01*
X0295343Y0086334D01*
X0295343Y0095162D01*
X0294111Y0096394D01*
X0285146Y0096394D01*
X0285146Y0100509D01*
X0285146Y0097958D02*
X0295488Y0097958D01*
X0295488Y0095960D02*
X0294545Y0095960D01*
X0295343Y0093961D02*
X0295488Y0093961D01*
X0295488Y0091963D02*
X0295343Y0091963D01*
X0295343Y0089964D02*
X0295488Y0089964D01*
X0295488Y0087966D02*
X0295343Y0087966D01*
X0295488Y0085967D02*
X0294976Y0085967D01*
X0295343Y0083969D02*
X0295488Y0083969D01*
X0295488Y0081970D02*
X0295343Y0081970D01*
X0295343Y0079972D02*
X0295488Y0079972D01*
X0295488Y0077973D02*
X0295343Y0077973D01*
X0295343Y0075975D02*
X0295488Y0075975D01*
X0295488Y0073976D02*
X0295343Y0073976D01*
X0295343Y0071978D02*
X0295488Y0071978D01*
X0295488Y0069979D02*
X0295343Y0069979D01*
X0295343Y0067981D02*
X0295488Y0067981D01*
X0295488Y0065982D02*
X0295343Y0065982D01*
X0295488Y0063984D02*
X0295025Y0063984D01*
X0295343Y0061985D02*
X0295488Y0061985D01*
X0295488Y0059987D02*
X0295343Y0059987D01*
X0295343Y0057988D02*
X0295488Y0057988D01*
X0295488Y0055990D02*
X0295343Y0055990D01*
X0295488Y0053991D02*
X0294496Y0053991D01*
X0295488Y0051993D02*
X0270602Y0051993D01*
X0270602Y0051946D02*
X0269719Y0049813D01*
X0268087Y0048181D01*
X0265954Y0047298D01*
X0263646Y0047298D01*
X0261513Y0048181D01*
X0259881Y0049813D01*
X0258998Y0051946D01*
X0258998Y0054254D01*
X0259881Y0056387D01*
X0261513Y0058019D01*
X0263646Y0058902D01*
X0265954Y0058902D01*
X0268087Y0058019D01*
X0269719Y0056387D01*
X0270602Y0054254D01*
X0270602Y0051946D01*
X0270602Y0053991D02*
X0284504Y0053991D01*
X0283657Y0055990D02*
X0269884Y0055990D01*
X0268118Y0057988D02*
X0283657Y0057988D01*
X0283657Y0059987D02*
X0236701Y0059987D01*
X0234702Y0061985D02*
X0283657Y0061985D01*
X0283975Y0063984D02*
X0232704Y0063984D01*
X0230705Y0065982D02*
X0261512Y0065982D01*
X0261513Y0065981D02*
X0263646Y0065098D01*
X0265954Y0065098D01*
X0268087Y0065981D01*
X0269719Y0067613D01*
X0270602Y0069746D01*
X0270602Y0072054D01*
X0269719Y0074187D01*
X0268087Y0075819D01*
X0265954Y0076702D01*
X0263646Y0076702D01*
X0261513Y0075819D01*
X0259881Y0074187D01*
X0258998Y0072054D01*
X0258998Y0069746D01*
X0259881Y0067613D01*
X0261513Y0065981D01*
X0259729Y0067981D02*
X0228707Y0067981D01*
X0226708Y0069979D02*
X0258998Y0069979D01*
X0258998Y0071978D02*
X0224710Y0071978D01*
X0222711Y0073976D02*
X0259794Y0073976D01*
X0261889Y0075975D02*
X0220713Y0075975D01*
X0220102Y0077973D02*
X0236415Y0077973D01*
X0235913Y0078181D02*
X0238046Y0077298D01*
X0240354Y0077298D01*
X0242487Y0078181D01*
X0244119Y0079813D01*
X0245002Y0081946D01*
X0245002Y0084254D01*
X0244119Y0086387D01*
X0242487Y0088019D01*
X0240354Y0088902D01*
X0238046Y0088902D01*
X0235913Y0088019D01*
X0234281Y0086387D01*
X0233398Y0084254D01*
X0233398Y0081946D01*
X0234281Y0079813D01*
X0235913Y0078181D01*
X0234215Y0079972D02*
X0220102Y0079972D01*
X0220102Y0081970D02*
X0233398Y0081970D01*
X0233398Y0083969D02*
X0220102Y0083969D01*
X0220102Y0085967D02*
X0234107Y0085967D01*
X0235860Y0087966D02*
X0220102Y0087966D01*
X0220102Y0089964D02*
X0268398Y0089964D01*
X0268398Y0087966D02*
X0268140Y0087966D01*
X0268398Y0091963D02*
X0220102Y0091963D01*
X0220793Y0093961D02*
X0268747Y0093961D01*
X0268036Y0095960D02*
X0270572Y0095960D01*
X0269862Y0097958D02*
X0272571Y0097958D01*
X0273854Y0099957D02*
X0270602Y0099957D01*
X0275488Y0096488D02*
X0271500Y0092500D01*
X0271500Y0083000D01*
X0274000Y0080500D01*
X0278685Y0080500D01*
X0279067Y0080118D01*
X0274209Y0075975D02*
X0267711Y0075975D01*
X0267585Y0077973D02*
X0272139Y0077973D01*
X0270141Y0079972D02*
X0269785Y0079972D01*
X0269806Y0073976D02*
X0274209Y0073976D01*
X0274209Y0071978D02*
X0270602Y0071978D01*
X0270602Y0069979D02*
X0275111Y0069979D01*
X0269871Y0067981D02*
X0283657Y0067981D01*
X0283657Y0069979D02*
X0283023Y0069979D01*
X0283657Y0065982D02*
X0268088Y0065982D01*
X0261482Y0057988D02*
X0242518Y0057988D01*
X0244284Y0055990D02*
X0259716Y0055990D01*
X0258998Y0053991D02*
X0245002Y0053991D01*
X0245002Y0051993D02*
X0258998Y0051993D01*
X0259806Y0049994D02*
X0244194Y0049994D01*
X0242039Y0047996D02*
X0261961Y0047996D01*
X0267639Y0047996D02*
X0295488Y0047996D01*
X0295488Y0049994D02*
X0269794Y0049994D01*
X0295488Y0045997D02*
X0114777Y0045997D01*
X0114777Y0047996D02*
X0236361Y0047996D01*
X0234206Y0049994D02*
X0114777Y0049994D01*
X0114777Y0051993D02*
X0128959Y0051993D01*
X0128867Y0052030D02*
X0129929Y0051591D01*
X0131079Y0051591D01*
X0132141Y0052030D01*
X0132954Y0052843D01*
X0133394Y0053905D01*
X0133394Y0055055D01*
X0132954Y0056117D01*
X0132141Y0056930D01*
X0131079Y0057370D01*
X0129929Y0057370D01*
X0128867Y0056930D01*
X0128054Y0056117D01*
X0127614Y0055055D01*
X0127614Y0053905D01*
X0128054Y0052843D01*
X0128867Y0052030D01*
X0127614Y0053991D02*
X0114777Y0053991D01*
X0114777Y0055990D02*
X0128001Y0055990D01*
X0133007Y0055990D02*
X0190993Y0055990D01*
X0191046Y0056117D02*
X0190606Y0055055D01*
X0190606Y0053905D01*
X0191046Y0052843D01*
X0191859Y0052030D01*
X0192921Y0051591D01*
X0194071Y0051591D01*
X0195133Y0052030D01*
X0195946Y0052843D01*
X0196386Y0053905D01*
X0196386Y0055055D01*
X0195946Y0056117D01*
X0195133Y0056930D01*
X0194071Y0057370D01*
X0192921Y0057370D01*
X0191859Y0056930D01*
X0191046Y0056117D01*
X0190606Y0053991D02*
X0133394Y0053991D01*
X0132049Y0051993D02*
X0191951Y0051993D01*
X0195041Y0051993D02*
X0233398Y0051993D01*
X0233398Y0053991D02*
X0196386Y0053991D01*
X0195999Y0055990D02*
X0231923Y0055990D01*
X0229924Y0057988D02*
X0114777Y0057988D01*
X0114777Y0059987D02*
X0227926Y0059987D01*
X0225927Y0061985D02*
X0114777Y0061985D01*
X0114777Y0063984D02*
X0223929Y0063984D01*
X0221930Y0065982D02*
X0199211Y0065982D01*
X0199240Y0067981D02*
X0219932Y0067981D01*
X0217933Y0069979D02*
X0199240Y0069979D01*
X0199240Y0071978D02*
X0215935Y0071978D01*
X0214190Y0073976D02*
X0199240Y0073976D01*
X0199240Y0075975D02*
X0213898Y0075975D01*
X0213898Y0077973D02*
X0199051Y0077973D01*
X0202965Y0079972D02*
X0213898Y0079972D01*
X0213898Y0081970D02*
X0202965Y0081970D01*
X0202965Y0083969D02*
X0213898Y0083969D01*
X0213898Y0085967D02*
X0174348Y0085967D01*
X0174348Y0083969D02*
X0179535Y0083969D01*
X0179535Y0081970D02*
X0174348Y0081970D01*
X0174833Y0079972D02*
X0179535Y0079972D01*
X0176923Y0077973D02*
X0184303Y0077973D01*
X0178297Y0087966D02*
X0213898Y0087966D01*
X0213898Y0089964D02*
X0179358Y0089964D01*
X0179358Y0091963D02*
X0213898Y0091963D01*
X0213207Y0093961D02*
X0179358Y0093961D01*
X0178498Y0095960D02*
X0212142Y0095960D01*
X0212142Y0097958D02*
X0179358Y0097958D01*
X0179358Y0099957D02*
X0212142Y0099957D01*
X0212998Y0101955D02*
X0180906Y0101955D01*
X0180500Y0105937D02*
X0174500Y0099937D01*
X0163000Y0099937D01*
X0162000Y0096172D02*
X0159581Y0096172D01*
X0158753Y0097000D01*
X0157000Y0097000D01*
X0153877Y0095960D02*
X0151847Y0095960D01*
X0151602Y0095715D02*
X0153841Y0097954D01*
X0153717Y0097653D01*
X0153717Y0096347D01*
X0154216Y0095140D01*
X0154856Y0094500D01*
X0154216Y0093860D01*
X0153717Y0092653D01*
X0153717Y0091347D01*
X0154216Y0090140D01*
X0155140Y0089216D01*
X0156347Y0088717D01*
X0157653Y0088717D01*
X0158218Y0088951D01*
X0159373Y0087795D01*
X0163446Y0087795D01*
X0166187Y0085054D01*
X0166187Y0077646D01*
X0153550Y0077646D01*
X0152354Y0076450D01*
X0152201Y0076603D01*
X0152201Y0076985D01*
X0153436Y0078220D01*
X0154168Y0078952D01*
X0154565Y0079909D01*
X0154565Y0086599D01*
X0154168Y0087555D01*
X0152965Y0088759D01*
X0152965Y0091989D01*
X0151733Y0093220D01*
X0151602Y0093220D01*
X0151602Y0095715D01*
X0151602Y0093961D02*
X0154318Y0093961D01*
X0153717Y0091963D02*
X0152965Y0091963D01*
X0152965Y0089964D02*
X0154392Y0089964D01*
X0153758Y0087966D02*
X0159203Y0087966D01*
X0157000Y0092000D02*
X0157063Y0092063D01*
X0163000Y0092063D01*
X0162343Y0095828D02*
X0166419Y0095828D01*
X0170184Y0092063D01*
X0174500Y0092063D01*
X0165274Y0085967D02*
X0154565Y0085967D01*
X0154565Y0083969D02*
X0166187Y0083969D01*
X0166187Y0081970D02*
X0154565Y0081970D01*
X0154565Y0079972D02*
X0166187Y0079972D01*
X0166187Y0077973D02*
X0153189Y0077973D01*
X0149360Y0081504D02*
X0147392Y0079537D01*
X0146996Y0078580D01*
X0146996Y0076603D01*
X0146843Y0076450D01*
X0146689Y0076603D01*
X0146689Y0084052D01*
X0148500Y0085863D01*
X0149360Y0085003D01*
X0149360Y0081504D01*
X0149360Y0081970D02*
X0146689Y0081970D01*
X0146689Y0079972D02*
X0147827Y0079972D01*
X0146996Y0077973D02*
X0146689Y0077973D01*
X0141484Y0077973D02*
X0138452Y0077973D01*
X0138452Y0077834D02*
X0138452Y0084815D01*
X0139503Y0085866D01*
X0141575Y0085866D01*
X0141484Y0085648D01*
X0141484Y0076603D01*
X0141331Y0076450D01*
X0140135Y0077646D01*
X0138421Y0077646D01*
X0138421Y0077760D01*
X0138452Y0077834D01*
X0138452Y0079972D02*
X0141484Y0079972D01*
X0141484Y0081970D02*
X0138452Y0081970D01*
X0138452Y0083969D02*
X0141484Y0083969D01*
X0139500Y0089543D02*
X0146957Y0097000D01*
X0148500Y0097000D01*
X0157437Y0105937D01*
X0180500Y0105937D01*
X0217000Y0105937D01*
X0217000Y0117000D01*
X0213883Y0115945D02*
X0140332Y0115945D01*
X0138334Y0113946D02*
X0213898Y0113946D01*
X0213898Y0111948D02*
X0137196Y0111948D01*
X0138283Y0109949D02*
X0213118Y0109949D01*
X0213837Y0117943D02*
X0142331Y0117943D01*
X0144329Y0119942D02*
X0215522Y0119942D01*
X0222717Y0123939D02*
X0278137Y0123939D01*
X0283745Y0117943D02*
X0295488Y0117943D01*
X0295488Y0115945D02*
X0283602Y0115945D01*
X0283602Y0113946D02*
X0295488Y0113946D01*
X0295488Y0111948D02*
X0284730Y0111948D01*
X0285146Y0109949D02*
X0295488Y0109949D01*
X0295488Y0107951D02*
X0285146Y0107951D01*
X0285146Y0105952D02*
X0295488Y0105952D01*
X0295488Y0103954D02*
X0285146Y0103954D01*
X0279500Y0096488D02*
X0275488Y0096488D01*
X0261564Y0095960D02*
X0221858Y0095960D01*
X0221858Y0097958D02*
X0259738Y0097958D01*
X0258998Y0099957D02*
X0221858Y0099957D01*
X0221002Y0101955D02*
X0258998Y0101955D01*
X0259785Y0103954D02*
X0221858Y0103954D01*
X0217000Y0098063D02*
X0217000Y0075300D01*
X0239200Y0053100D01*
X0241985Y0077973D02*
X0262015Y0077973D01*
X0259815Y0079972D02*
X0244185Y0079972D01*
X0245002Y0081970D02*
X0258998Y0081970D01*
X0258998Y0083969D02*
X0245002Y0083969D01*
X0244293Y0085967D02*
X0259707Y0085967D01*
X0261460Y0087966D02*
X0242540Y0087966D01*
X0285744Y0119942D02*
X0295488Y0119942D01*
X0295488Y0121940D02*
X0287742Y0121940D01*
X0289741Y0123939D02*
X0295488Y0123939D01*
X0295488Y0125937D02*
X0291739Y0125937D01*
X0293738Y0127936D02*
X0295488Y0127936D01*
X0295488Y0129934D02*
X0295345Y0129934D01*
X0283294Y0169905D02*
X0219897Y0169905D01*
X0217898Y0171903D02*
X0238329Y0171903D01*
X0237498Y0173902D02*
X0216502Y0173902D01*
X0216502Y0175900D02*
X0237498Y0175900D01*
X0237498Y0177899D02*
X0216502Y0177899D01*
X0216502Y0179897D02*
X0237498Y0179897D01*
X0238160Y0181896D02*
X0215840Y0181896D01*
X0212915Y0183894D02*
X0240718Y0183894D01*
X0241245Y0190299D02*
X0236354Y0190299D01*
X0235122Y0191531D01*
X0235122Y0202131D01*
X0236354Y0203362D01*
X0241245Y0203362D01*
X0242476Y0202131D01*
X0242476Y0191531D01*
X0241245Y0190299D01*
X0242476Y0191888D02*
X0243783Y0191888D01*
X0243783Y0193887D02*
X0242476Y0193887D01*
X0242476Y0195885D02*
X0243783Y0195885D01*
X0243783Y0197884D02*
X0242476Y0197884D01*
X0242476Y0199882D02*
X0243783Y0199882D01*
X0243783Y0201881D02*
X0242476Y0201881D01*
X0235122Y0201881D02*
X0233815Y0201881D01*
X0233815Y0199882D02*
X0235122Y0199882D01*
X0235122Y0197884D02*
X0233815Y0197884D01*
X0233815Y0195885D02*
X0235122Y0195885D01*
X0235122Y0193887D02*
X0233815Y0193887D01*
X0233815Y0191888D02*
X0235122Y0191888D01*
X0246502Y0177899D02*
X0246714Y0177899D01*
X0246502Y0175900D02*
X0247498Y0175900D01*
X0247498Y0173902D02*
X0246502Y0173902D01*
X0245671Y0171903D02*
X0248329Y0171903D01*
X0255671Y0171903D02*
X0258329Y0171903D01*
X0257498Y0173902D02*
X0256502Y0173902D01*
X0256502Y0175900D02*
X0257498Y0175900D01*
X0265671Y0171903D02*
X0281295Y0171903D01*
X0238170Y0151918D02*
X0217720Y0151918D01*
X0216502Y0149920D02*
X0237498Y0149920D01*
X0237498Y0147921D02*
X0216502Y0147921D01*
X0216502Y0145923D02*
X0237498Y0145923D01*
X0237498Y0143924D02*
X0216502Y0143924D01*
X0215693Y0141926D02*
X0238307Y0141926D01*
X0230960Y0139927D02*
X0207921Y0139927D01*
X0207921Y0137929D02*
X0228541Y0137929D01*
X0226543Y0135930D02*
X0207921Y0135930D01*
X0207921Y0133932D02*
X0224544Y0133932D01*
X0222546Y0131933D02*
X0156320Y0131933D01*
X0155504Y0129934D02*
X0154322Y0129934D01*
X0153834Y0127936D02*
X0152323Y0127936D01*
X0153886Y0125937D02*
X0150325Y0125937D01*
X0143063Y0133063D02*
X0187000Y0177000D01*
X0192000Y0177000D01*
X0202000Y0177000D02*
X0192000Y0167000D01*
X0182000Y0167000D01*
X0177000Y0162000D01*
X0182000Y0162000D02*
X0112000Y0092000D01*
X0103929Y0092000D01*
X0103890Y0092039D01*
X0104224Y0084500D02*
X0103724Y0084000D01*
X0104224Y0084500D02*
X0111500Y0084500D01*
X0115000Y0088000D01*
X0135000Y0109500D01*
X0137912Y0107951D02*
X0155063Y0107951D01*
X0153065Y0105952D02*
X0135937Y0105952D01*
X0134078Y0103954D02*
X0151066Y0103954D01*
X0149068Y0101955D02*
X0132219Y0101955D01*
X0130360Y0099957D02*
X0145988Y0099957D01*
X0143528Y0097958D02*
X0128501Y0097958D01*
X0126642Y0095960D02*
X0141529Y0095960D01*
X0139531Y0093961D02*
X0124782Y0093961D01*
X0122923Y0091963D02*
X0135035Y0091963D01*
X0148500Y0089543D02*
X0148500Y0097000D01*
X0149360Y0083969D02*
X0146689Y0083969D01*
X0162000Y0096172D02*
X0162343Y0095828D01*
X0138535Y0123535D02*
X0167000Y0152000D01*
X0172308Y0147921D02*
X0173898Y0147921D01*
X0173898Y0145923D02*
X0170310Y0145923D01*
X0168311Y0143924D02*
X0173898Y0143924D01*
X0173717Y0141926D02*
X0166313Y0141926D01*
X0164314Y0139927D02*
X0174429Y0139927D01*
X0177000Y0142000D02*
X0177000Y0152000D01*
X0180283Y0151918D02*
X0188170Y0151918D01*
X0187498Y0149920D02*
X0180102Y0149920D01*
X0180102Y0147921D02*
X0187498Y0147921D01*
X0187498Y0145923D02*
X0180102Y0145923D01*
X0180102Y0143924D02*
X0187498Y0143924D01*
X0188307Y0141926D02*
X0180283Y0141926D01*
X0179571Y0139927D02*
X0189686Y0139927D01*
X0191684Y0137929D02*
X0162316Y0137929D01*
X0160317Y0135930D02*
X0193683Y0135930D01*
X0196301Y0133932D02*
X0158319Y0133932D01*
X0143063Y0133063D02*
X0122000Y0133063D01*
X0120346Y0131409D01*
X0103890Y0131409D01*
X0103890Y0123535D02*
X0138535Y0123535D01*
X0137250Y0126638D02*
X0140573Y0129961D01*
X0126792Y0129961D01*
X0125627Y0128795D01*
X0122120Y0128795D01*
X0122104Y0128779D01*
X0120964Y0128307D01*
X0111898Y0128307D01*
X0111898Y0128176D01*
X0111194Y0127472D01*
X0111898Y0126768D01*
X0111898Y0126638D01*
X0137250Y0126638D01*
X0138549Y0127936D02*
X0111657Y0127936D01*
X0117142Y0135930D02*
X0072817Y0135930D01*
X0070819Y0133932D02*
X0089288Y0133932D01*
X0088717Y0131933D02*
X0068820Y0131933D01*
X0066822Y0129934D02*
X0088898Y0129934D01*
X0088898Y0127936D02*
X0066102Y0127936D01*
X0066102Y0125937D02*
X0088898Y0125937D01*
X0088898Y0123939D02*
X0066102Y0123939D01*
X0066102Y0121940D02*
X0088898Y0121940D01*
X0088898Y0119942D02*
X0066102Y0119942D01*
X0066102Y0117943D02*
X0088898Y0117943D01*
X0089079Y0115945D02*
X0066102Y0115945D01*
X0066102Y0113946D02*
X0090666Y0113946D01*
X0090243Y0114370D02*
X0090243Y0114370D01*
X0092000Y0117000D02*
X0093500Y0115500D01*
X0104051Y0115500D01*
X0103890Y0115661D01*
X0104051Y0115500D02*
X0117500Y0115500D01*
X0116213Y0107787D02*
X0103890Y0107787D01*
X0103890Y0099913D02*
X0114413Y0099913D01*
X0114500Y0100000D01*
X0117000Y0107000D02*
X0116213Y0107787D01*
X0096482Y0103954D02*
X0066102Y0103954D01*
X0066102Y0105952D02*
X0095882Y0105952D01*
X0095882Y0107951D02*
X0066102Y0107951D01*
X0066102Y0109949D02*
X0095882Y0109949D01*
X0096362Y0111948D02*
X0066102Y0111948D01*
X0066102Y0101955D02*
X0095882Y0101955D01*
X0095882Y0099957D02*
X0066102Y0099957D01*
X0066102Y0097958D02*
X0095882Y0097958D01*
X0096569Y0095960D02*
X0066102Y0095960D01*
X0066102Y0093961D02*
X0090957Y0093961D01*
X0090315Y0091963D02*
X0065350Y0091963D01*
X0063352Y0089964D02*
X0088135Y0089964D01*
X0087115Y0087966D02*
X0061353Y0087966D01*
X0059355Y0085967D02*
X0087539Y0085967D01*
X0063000Y0094000D02*
X0053500Y0084500D01*
X0039657Y0084500D01*
X0039323Y0084165D01*
X0039362Y0092000D02*
X0039323Y0092039D01*
X0039362Y0092000D02*
X0052000Y0092000D01*
X0055413Y0099913D02*
X0059500Y0104000D01*
X0059500Y0132500D01*
X0063000Y0130500D02*
X0080063Y0147563D01*
X0080063Y0157000D01*
X0080957Y0157894D01*
X0080957Y0166000D01*
X0095500Y0180543D01*
X0095500Y0182000D01*
X0095500Y0191331D01*
X0091760Y0194197D02*
X0095063Y0197500D01*
X0091760Y0194197D02*
X0091760Y0183063D01*
X0088323Y0186500D01*
X0082110Y0186500D01*
X0082110Y0191500D02*
X0086500Y0191500D01*
X0087000Y0192000D01*
X0087000Y0194500D01*
X0090000Y0197500D01*
X0090000Y0201000D01*
X0099000Y0209563D02*
X0099000Y0183303D01*
X0099240Y0183063D01*
X0102917Y0183894D02*
X0108461Y0183894D01*
X0108461Y0181896D02*
X0102917Y0181896D01*
X0102394Y0179897D02*
X0108461Y0179897D01*
X0108461Y0177899D02*
X0097286Y0177899D01*
X0095244Y0175900D02*
X0108461Y0175900D01*
X0108461Y0173902D02*
X0093246Y0173902D01*
X0091247Y0171903D02*
X0108461Y0171903D01*
X0108461Y0169905D02*
X0089249Y0169905D01*
X0087250Y0167906D02*
X0108461Y0167906D01*
X0108461Y0165908D02*
X0085252Y0165908D01*
X0084634Y0163909D02*
X0108461Y0163909D01*
X0108461Y0161911D02*
X0084059Y0161911D01*
X0087937Y0157000D02*
X0087937Y0153063D01*
X0089500Y0151500D01*
X0092399Y0149920D02*
X0108461Y0149920D01*
X0108461Y0151918D02*
X0092783Y0151918D01*
X0092205Y0153917D02*
X0108461Y0153917D01*
X0108461Y0155915D02*
X0092205Y0155915D01*
X0092205Y0157914D02*
X0108461Y0157914D01*
X0108461Y0159912D02*
X0092205Y0159912D01*
X0085053Y0151918D02*
X0083165Y0151918D01*
X0083165Y0149920D02*
X0086601Y0149920D01*
X0086180Y0150433D02*
X0086180Y0150433D01*
X0083165Y0147921D02*
X0108461Y0147921D01*
X0108832Y0145923D02*
X0082741Y0145923D01*
X0080811Y0143924D02*
X0110689Y0143924D01*
X0109806Y0144807D02*
X0109806Y0144807D01*
X0112431Y0141926D02*
X0078813Y0141926D01*
X0076814Y0139927D02*
X0139429Y0139927D01*
X0143541Y0137929D02*
X0074816Y0137929D01*
X0063000Y0130500D02*
X0063000Y0094000D01*
X0055413Y0099913D02*
X0039323Y0099913D01*
X0039484Y0115500D02*
X0052500Y0115500D01*
X0054500Y0122500D02*
X0054000Y0123000D01*
X0039484Y0115500D02*
X0039323Y0115661D01*
X0092000Y0117000D02*
X0092000Y0132000D01*
X0095283Y0131933D02*
X0095882Y0131933D01*
X0095882Y0129934D02*
X0095102Y0129934D01*
X0095102Y0127936D02*
X0096122Y0127936D01*
X0095882Y0125937D02*
X0095102Y0125937D01*
X0095102Y0123939D02*
X0095882Y0123939D01*
X0095882Y0121940D02*
X0095102Y0121940D01*
X0095102Y0119942D02*
X0096242Y0119942D01*
X0095882Y0133932D02*
X0094712Y0133932D01*
X0126766Y0129934D02*
X0140547Y0129934D01*
X0131705Y0153917D02*
X0149529Y0153917D01*
X0151528Y0155915D02*
X0132102Y0155915D01*
X0132102Y0157914D02*
X0153526Y0157914D01*
X0155525Y0159912D02*
X0132102Y0159912D01*
X0132102Y0161911D02*
X0157523Y0161911D01*
X0159522Y0163909D02*
X0132102Y0163909D01*
X0132102Y0165908D02*
X0161520Y0165908D01*
X0163519Y0167906D02*
X0133708Y0167906D01*
X0135706Y0169905D02*
X0165517Y0169905D01*
X0167516Y0171903D02*
X0137705Y0171903D01*
X0139703Y0173902D02*
X0169514Y0173902D01*
X0171513Y0175900D02*
X0141702Y0175900D01*
X0143700Y0177899D02*
X0173511Y0177899D01*
X0175510Y0179897D02*
X0145699Y0179897D01*
X0147697Y0181896D02*
X0177508Y0181896D01*
X0189688Y0193887D02*
X0213862Y0193887D01*
X0213814Y0195885D02*
X0190979Y0195885D01*
X0191074Y0197884D02*
X0211816Y0197884D01*
X0209817Y0199882D02*
X0189919Y0199882D01*
X0187673Y0201749D02*
X0187673Y0201749D01*
X0187356Y0201881D02*
X0194288Y0201881D01*
X0193142Y0203879D02*
X0181711Y0203879D01*
X0184358Y0207941D02*
X0184236Y0208063D01*
X0178000Y0208063D01*
X0176937Y0207000D01*
X0172000Y0207000D01*
X0169063Y0204063D01*
X0169063Y0199500D01*
X0164500Y0199500D01*
X0157000Y0192000D01*
X0153717Y0191888D02*
X0148059Y0191888D01*
X0148059Y0193887D02*
X0154243Y0193887D01*
X0156498Y0195885D02*
X0147823Y0195885D01*
X0147483Y0197884D02*
X0158496Y0197884D01*
X0160495Y0199882D02*
X0141107Y0199882D01*
X0154743Y0207876D02*
X0168489Y0207876D01*
X0169370Y0208757D02*
X0169370Y0208757D01*
X0170834Y0209875D02*
X0155633Y0209875D01*
X0157632Y0211873D02*
X0173916Y0211873D01*
X0182084Y0211873D02*
X0188161Y0211873D01*
X0188161Y0209875D02*
X0187839Y0209875D01*
X0187839Y0207876D02*
X0188536Y0207876D01*
X0187839Y0205878D02*
X0191594Y0205878D01*
X0184500Y0199500D02*
X0176937Y0199500D01*
X0184500Y0199500D02*
X0184598Y0199498D01*
X0184696Y0199492D01*
X0184794Y0199483D01*
X0184891Y0199469D01*
X0184988Y0199452D01*
X0185084Y0199431D01*
X0185179Y0199406D01*
X0185273Y0199378D01*
X0185365Y0199345D01*
X0185457Y0199310D01*
X0185547Y0199270D01*
X0185635Y0199228D01*
X0185722Y0199181D01*
X0185806Y0199132D01*
X0185889Y0199079D01*
X0185969Y0199023D01*
X0186048Y0198963D01*
X0186124Y0198901D01*
X0186197Y0198836D01*
X0186268Y0198768D01*
X0186336Y0198697D01*
X0186401Y0198624D01*
X0186463Y0198548D01*
X0186523Y0198469D01*
X0186579Y0198389D01*
X0186632Y0198306D01*
X0186681Y0198222D01*
X0186728Y0198135D01*
X0186770Y0198047D01*
X0186810Y0197957D01*
X0186845Y0197865D01*
X0186878Y0197773D01*
X0186906Y0197679D01*
X0186931Y0197584D01*
X0186952Y0197488D01*
X0186969Y0197391D01*
X0186983Y0197294D01*
X0186992Y0197196D01*
X0186998Y0197098D01*
X0187000Y0197000D01*
X0201712Y0201881D02*
X0207819Y0201881D01*
X0211085Y0183894D02*
X0202915Y0183894D01*
X0205840Y0181896D02*
X0208160Y0181896D01*
X0207498Y0179897D02*
X0206502Y0179897D01*
X0206502Y0177899D02*
X0207498Y0177899D01*
X0207498Y0175900D02*
X0206502Y0175900D01*
X0206502Y0173902D02*
X0207498Y0173902D01*
X0207898Y0171903D02*
X0205671Y0171903D01*
X0208428Y0169905D02*
X0199292Y0169905D01*
X0197294Y0167906D02*
X0210292Y0167906D01*
X0212291Y0165908D02*
X0195295Y0165908D01*
X0197000Y0162000D02*
X0182000Y0162000D01*
X0182301Y0157914D02*
X0196699Y0157914D01*
X0198697Y0155915D02*
X0180303Y0155915D01*
X0179727Y0153917D02*
X0198898Y0153917D01*
X0198170Y0151918D02*
X0195830Y0151918D01*
X0196502Y0149920D02*
X0197498Y0149920D01*
X0197498Y0147921D02*
X0196502Y0147921D01*
X0196502Y0145923D02*
X0197498Y0145923D01*
X0197498Y0143924D02*
X0196502Y0143924D01*
X0196462Y0141926D02*
X0198307Y0141926D01*
X0197000Y0137000D02*
X0192000Y0142000D01*
X0192000Y0147000D01*
X0202000Y0147000D02*
X0202000Y0157000D01*
X0197000Y0162000D01*
X0199478Y0163909D02*
X0214289Y0163909D01*
X0216288Y0161911D02*
X0201477Y0161911D01*
X0203475Y0159912D02*
X0214111Y0159912D01*
X0212112Y0157914D02*
X0204980Y0157914D01*
X0205102Y0155915D02*
X0210114Y0155915D01*
X0208354Y0153917D02*
X0205102Y0153917D01*
X0205830Y0151918D02*
X0207898Y0151918D01*
X0207498Y0149920D02*
X0206502Y0149920D01*
X0206502Y0147921D02*
X0207498Y0147921D01*
X0207498Y0145923D02*
X0206502Y0145923D01*
X0206502Y0143924D02*
X0207498Y0143924D01*
X0206819Y0141926D02*
X0208307Y0141926D01*
X0203260Y0137000D02*
X0197000Y0137000D01*
X0162494Y0201881D02*
X0117433Y0201881D01*
X0117433Y0203879D02*
X0165548Y0203879D01*
X0166491Y0205878D02*
X0118028Y0205878D01*
X0117433Y0199882D02*
X0122893Y0199882D01*
X0114331Y0197268D02*
X0111563Y0194500D01*
X0107224Y0191888D02*
X0102102Y0191888D01*
X0102102Y0189890D02*
X0108279Y0189890D01*
X0108461Y0187891D02*
X0102102Y0187891D01*
X0102730Y0185893D02*
X0108461Y0185893D01*
X0102937Y0197500D02*
X0102937Y0201634D01*
X0106063Y0204760D01*
X0095500Y0182000D02*
X0095500Y0180500D01*
X0082110Y0176500D02*
X0079610Y0172067D01*
X0072000Y0164457D01*
X0068539Y0167906D02*
X0068461Y0167906D01*
X0075059Y0171903D02*
X0059102Y0171903D01*
X0055787Y0181896D02*
X0050146Y0181896D01*
X0049784Y0183894D02*
X0056061Y0183894D01*
X0055787Y0185893D02*
X0047402Y0185893D01*
X0047402Y0187891D02*
X0049242Y0187891D01*
X0049035Y0189890D02*
X0047402Y0189890D01*
X0053500Y0190543D02*
X0054457Y0191500D01*
X0060890Y0191500D01*
X0052201Y0201881D02*
X0050183Y0201881D01*
X0048531Y0203879D02*
X0056046Y0203879D01*
X0055787Y0205878D02*
X0039843Y0205878D01*
X0039843Y0207876D02*
X0055787Y0207876D01*
X0055787Y0209875D02*
X0039384Y0209875D01*
X0039843Y0211873D02*
X0055787Y0211873D01*
X0056039Y0213872D02*
X0039843Y0213872D01*
X0039843Y0215870D02*
X0047940Y0215870D01*
X0047374Y0217869D02*
X0039843Y0217869D01*
X0039137Y0219868D02*
X0047374Y0219868D01*
X0047374Y0221866D02*
X0024102Y0221866D01*
X0024102Y0219868D02*
X0028863Y0219868D01*
X0028157Y0217869D02*
X0024102Y0217869D01*
X0024102Y0215870D02*
X0028157Y0215870D01*
X0028157Y0213872D02*
X0024102Y0213872D01*
X0024102Y0211873D02*
X0028157Y0211873D01*
X0028616Y0209875D02*
X0024102Y0209875D01*
X0024102Y0207876D02*
X0028157Y0207876D01*
X0028157Y0205878D02*
X0024102Y0205878D01*
X0024102Y0203879D02*
X0028157Y0203879D01*
X0028157Y0201881D02*
X0024102Y0201881D01*
X0024102Y0199882D02*
X0028157Y0199882D01*
X0028157Y0197884D02*
X0024102Y0197884D01*
X0024102Y0195885D02*
X0028157Y0195885D01*
X0028157Y0193887D02*
X0024102Y0193887D01*
X0024102Y0191888D02*
X0028157Y0191888D01*
X0028157Y0189890D02*
X0024102Y0189890D01*
X0024102Y0187891D02*
X0028383Y0187891D01*
X0028157Y0185893D02*
X0024102Y0185893D01*
X0024102Y0183894D02*
X0028157Y0183894D01*
X0028157Y0181896D02*
X0024102Y0181896D01*
X0024102Y0179897D02*
X0028157Y0179897D01*
X0029097Y0177899D02*
X0024102Y0177899D01*
X0039843Y0203879D02*
X0040335Y0203879D01*
X0073626Y0227862D02*
X0181858Y0227862D01*
X0182698Y0229860D02*
X0073626Y0229860D01*
X0073331Y0231859D02*
X0206057Y0231859D01*
X0185958Y0213872D02*
X0159674Y0213872D01*
X0160972Y0215870D02*
X0183959Y0215870D01*
X0181961Y0217869D02*
X0161080Y0217869D01*
X0159934Y0219868D02*
X0181198Y0219868D01*
X0181198Y0221866D02*
X0146110Y0221866D01*
X0147977Y0219868D02*
X0154023Y0219868D01*
X0152024Y0217869D02*
X0149976Y0217869D01*
X0233815Y0217869D02*
X0234898Y0217869D01*
X0234898Y0219868D02*
X0233815Y0219868D01*
X0233815Y0221866D02*
X0234898Y0221866D01*
X0234697Y0223865D02*
X0233815Y0223865D01*
X0233815Y0225863D02*
X0235122Y0225863D01*
X0235122Y0227862D02*
X0233815Y0227862D01*
X0295488Y0235856D02*
X0024102Y0235856D01*
X0117355Y0085967D02*
X0118535Y0085967D01*
X0119102Y0083969D02*
X0115356Y0083969D01*
X0114777Y0081970D02*
X0118535Y0081970D01*
X0118535Y0079972D02*
X0114777Y0079972D01*
X0114777Y0077973D02*
X0119073Y0077973D01*
X0122004Y0075975D02*
X0114777Y0075975D01*
X0114777Y0073976D02*
X0122004Y0073976D01*
X0122004Y0071978D02*
X0114777Y0071978D01*
X0114777Y0069979D02*
X0122004Y0069979D01*
X0122004Y0067981D02*
X0114777Y0067981D01*
X0114777Y0065982D02*
X0122033Y0065982D01*
D38*
X0141000Y0078500D03*
X0147000Y0078500D03*
X0154000Y0078500D03*
X0053581Y0195919D03*
X0049000Y0199030D03*
D39*
X0053000Y0205500D03*
X0053000Y0209500D03*
X0049500Y0213000D03*
X0071500Y0206500D03*
X0086000Y0217500D03*
X0093000Y0233000D03*
X0117000Y0226000D03*
X0121000Y0226000D03*
X0125500Y0226000D03*
X0138000Y0233000D03*
X0157000Y0217000D03*
X0165750Y0216000D03*
X0163450Y0203275D03*
X0156275Y0196575D03*
X0157000Y0192000D03*
X0150000Y0182000D03*
X0176500Y0182000D03*
X0187000Y0197000D03*
X0192000Y0193000D03*
X0182850Y0203600D03*
X0210000Y0228500D03*
X0183000Y0233000D03*
X0223750Y0194575D03*
X0255350Y0192200D03*
X0271700Y0182775D03*
X0273300Y0171300D03*
X0293650Y0173900D03*
X0293000Y0193000D03*
X0293000Y0233000D03*
X0243000Y0233000D03*
X0177000Y0162000D03*
X0177000Y0152000D03*
X0167000Y0152000D03*
X0170500Y0142500D03*
X0177000Y0142000D03*
X0186000Y0141500D03*
X0196000Y0156500D03*
X0223500Y0137500D03*
X0217000Y0117000D03*
X0208000Y0118000D03*
X0224000Y0101500D03*
X0210500Y0091500D03*
X0210000Y0081500D03*
X0184000Y0098500D03*
X0157000Y0097000D03*
X0157000Y0092000D03*
X0136475Y0104100D03*
X0135000Y0109500D03*
X0117000Y0107000D03*
X0114500Y0100000D03*
X0125875Y0093175D03*
X0115375Y0082875D03*
X0091250Y0098600D03*
X0090950Y0111975D03*
X0092000Y0132000D03*
X0085500Y0132500D03*
X0070075Y0131400D03*
X0055500Y0134500D03*
X0051500Y0139000D03*
X0049500Y0123500D03*
X0054500Y0122500D03*
X0052500Y0115500D03*
X0067375Y0114500D03*
X0052000Y0092000D03*
X0062650Y0087425D03*
X0069275Y0085925D03*
X0077375Y0086125D03*
X0086075Y0085775D03*
X0117500Y0115500D03*
X0137000Y0128500D03*
X0135500Y0142500D03*
X0142000Y0142000D03*
X0137000Y0152500D03*
X0116000Y0151000D03*
X0115000Y0144000D03*
X0108950Y0143450D03*
X0089500Y0151500D03*
X0070500Y0151500D03*
X0055000Y0172000D03*
X0052500Y0177500D03*
X0029000Y0172500D03*
X0028000Y0138000D03*
X0027400Y0087525D03*
X0116375Y0045675D03*
X0158000Y0048000D03*
X0223000Y0048000D03*
X0273000Y0060000D03*
X0273000Y0064000D03*
X0273000Y0068000D03*
X0293000Y0048000D03*
X0293000Y0103000D03*
X0293000Y0123000D03*
X0157000Y0127000D03*
X0156225Y0116600D03*
X0105500Y0173500D03*
X0101000Y0173500D03*
X0095500Y0173500D03*
X0122500Y0210000D03*
X0126500Y0210000D03*
X0130500Y0210000D03*
X0032500Y0231000D03*
D40*
X0045500Y0227543D02*
X0050732Y0227543D01*
X0053217Y0228528D01*
X0052189Y0229000D01*
X0054000Y0229000D01*
X0058390Y0224610D01*
X0067268Y0220457D02*
X0067783Y0219472D01*
X0067268Y0220457D02*
X0075500Y0220457D01*
X0061500Y0206500D02*
X0060890Y0206500D01*
X0060890Y0201500D02*
X0057890Y0201000D01*
X0055000Y0201000D01*
X0050441Y0196441D01*
X0044433Y0196441D01*
X0044433Y0199000D02*
X0049500Y0199000D01*
X0049470Y0199030D01*
X0049000Y0199030D01*
X0053581Y0195919D02*
X0054161Y0196500D01*
X0060890Y0196500D01*
X0139500Y0089543D02*
X0135850Y0085893D01*
X0135850Y0078352D01*
X0135819Y0078321D01*
X0135819Y0071213D01*
X0141331Y0071213D02*
X0141500Y0071043D01*
X0141500Y0064000D01*
X0143000Y0062500D01*
X0146500Y0062500D01*
X0151500Y0062500D01*
X0152500Y0063500D01*
X0152500Y0071067D01*
X0152354Y0071213D01*
X0149598Y0071213D02*
X0149598Y0078062D01*
X0151962Y0080426D01*
X0151962Y0086081D01*
X0148500Y0089543D01*
X0144087Y0085130D01*
X0144087Y0071213D01*
X0146843Y0071213D02*
X0146843Y0062843D01*
X0146500Y0062500D01*
X0171646Y0071213D02*
X0171646Y0077146D01*
X0172000Y0077500D01*
X0174000Y0077500D02*
X0174402Y0077098D01*
X0174402Y0077000D01*
X0174402Y0071213D01*
X0184000Y0081957D02*
X0188957Y0077000D01*
X0190500Y0077000D01*
X0190937Y0076563D01*
X0190937Y0071213D01*
X0193693Y0071213D02*
X0193693Y0079264D01*
X0191000Y0081957D01*
X0196449Y0079906D02*
X0198500Y0081957D01*
X0196449Y0079906D02*
X0196449Y0071213D01*
D41*
X0279500Y0107512D02*
X0279500Y0119500D01*
X0291591Y0131591D01*
X0291591Y0167409D01*
X0282000Y0177000D01*
X0262000Y0177000D01*
X0282000Y0163811D02*
X0220189Y0163811D01*
X0212000Y0172000D01*
X0212000Y0177000D01*
X0217000Y0157000D02*
X0264500Y0157000D01*
X0281311Y0140189D01*
X0282000Y0140189D01*
X0217000Y0157000D02*
X0212000Y0152000D01*
X0212000Y0147000D01*
X0177000Y0187000D02*
X0147000Y0187000D01*
X0124980Y0164980D01*
X0124980Y0160500D01*
X0116000Y0151520D01*
X0116000Y0151000D01*
X0147000Y0187000D02*
X0143957Y0190043D01*
X0143957Y0194500D01*
X0143858Y0194598D01*
X0132000Y0194598D01*
X0151000Y0211043D02*
X0142642Y0219402D01*
X0141055Y0219402D01*
X0151000Y0211043D02*
X0156957Y0217000D01*
X0157000Y0217000D01*
X0187000Y0197000D02*
X0177000Y0187000D01*
X0204528Y0224528D02*
X0208500Y0228500D01*
X0210000Y0228500D01*
X0238799Y0223169D02*
X0239000Y0222969D01*
X0239000Y0218500D01*
X0243000Y0214500D01*
X0252000Y0214500D01*
X0254783Y0217283D01*
X0269657Y0217283D01*
X0260500Y0226000D02*
X0281000Y0226000D01*
X0285000Y0222000D01*
X0285000Y0216326D01*
X0287862Y0213464D01*
X0287862Y0211087D01*
X0288776Y0210173D01*
X0260500Y0226000D02*
X0257669Y0223169D01*
X0247461Y0223169D01*
X0055000Y0172000D02*
X0048012Y0172000D01*
X0044500Y0168488D01*
X0039323Y0139283D02*
X0051217Y0139283D01*
X0051500Y0139000D01*
D42*
X0184500Y0220000D02*
X0184500Y0222587D01*
X0186913Y0225000D01*
X0184500Y0220000D02*
X0189500Y0215000D01*
X0196937Y0215000D01*
X0198000Y0213937D01*
X0191642Y0210500D02*
X0196079Y0206063D01*
X0198000Y0206063D01*
X0198591Y0205472D01*
X0207000Y0205472D01*
X0208898Y0205472D01*
X0217539Y0196831D01*
X0208898Y0214528D02*
X0207000Y0214528D01*
X0207000Y0219087D01*
X0201087Y0225000D01*
X0208898Y0214528D02*
X0217539Y0223169D01*
D43*
X0131000Y0088043D02*
X0134356Y0084687D01*
X0134356Y0078970D01*
X0133063Y0077677D01*
X0133063Y0071213D01*
X0130307Y0071213D02*
X0130307Y0080264D01*
X0131000Y0080957D01*
X0127000Y0084043D02*
X0127000Y0077000D01*
X0127551Y0076449D01*
X0127551Y0071213D01*
X0124795Y0071213D02*
X0124795Y0079161D01*
X0123000Y0080957D01*
X0127000Y0084043D02*
X0123000Y0088043D01*
D44*
X0163000Y0092063D02*
X0168890Y0086173D01*
X0168890Y0071213D01*
X0171791Y0077000D02*
X0171646Y0077146D01*
X0171646Y0089209D01*
X0174500Y0092063D01*
X0174402Y0077000D02*
X0171791Y0077000D01*
X0048000Y0194000D02*
X0044551Y0194000D01*
X0044433Y0193882D01*
X0060890Y0206500D02*
X0063000Y0206500D01*
X0067000Y0210500D01*
X0067000Y0218689D01*
X0067783Y0219472D01*
X0060890Y0222110D02*
X0060890Y0211500D01*
X0060890Y0222110D02*
X0058390Y0224610D01*
D45*
X0067000Y0186500D03*
X0067000Y0181500D03*
X0052500Y0159000D03*
X0052500Y0152500D03*
X0035500Y0152500D03*
X0035500Y0159000D03*
X0093500Y0092000D03*
X0090300Y0087625D03*
D46*
X0093925Y0084000D01*
X0103724Y0084000D01*
X0103890Y0084165D01*
X0103850Y0092000D02*
X0093500Y0092000D01*
X0103850Y0092000D02*
X0103890Y0092039D01*
X0052500Y0152500D02*
X0047346Y0152500D01*
X0040654Y0152500D02*
X0035500Y0152500D01*
X0035500Y0159000D02*
X0040654Y0159000D01*
X0047346Y0159000D02*
X0052500Y0159000D01*
X0044500Y0179512D02*
X0044500Y0193500D01*
X0048000Y0194000D01*
X0060890Y0186500D02*
X0067000Y0186500D01*
X0067000Y0181500D02*
X0060890Y0181500D01*
M02*
