G75*
%MOIN*%
%OFA0B0*%
%FSLAX25Y25*%
%IPPOS*%
%LPD*%
%AMOC8*
5,1,8,0,0,1.08239X$1,22.5*
%
%ADD10C,0.07400*%
%ADD11C,0.06299*%
%ADD12C,0.01575*%
%ADD13C,0.09055*%
%ADD14C,0.04800*%
%ADD15C,0.07600*%
%ADD16C,0.04724*%
D10*
X0239200Y0053100D03*
X0239200Y0070900D03*
X0239200Y0083100D03*
X0239200Y0100900D03*
X0239200Y0113100D03*
X0239200Y0130900D03*
X0264800Y0130900D03*
X0264800Y0113100D03*
X0264800Y0100900D03*
X0264800Y0083100D03*
X0264800Y0070900D03*
X0264800Y0053100D03*
D11*
X0282000Y0140189D03*
X0282000Y0148063D03*
X0282000Y0155937D03*
X0282000Y0163811D03*
D12*
X0130504Y0054480D03*
X0193496Y0054480D03*
D13*
X0194000Y0225000D03*
D14*
X0192000Y0179400D02*
X0192000Y0174600D01*
X0202000Y0174600D02*
X0202000Y0179400D01*
X0212000Y0179400D02*
X0212000Y0174600D01*
X0222000Y0174600D02*
X0222000Y0179400D01*
X0232000Y0179400D02*
X0232000Y0174600D01*
X0242000Y0174600D02*
X0242000Y0179400D01*
X0252000Y0179400D02*
X0252000Y0174600D01*
X0262000Y0174600D02*
X0262000Y0179400D01*
X0262000Y0149400D02*
X0262000Y0144600D01*
X0252000Y0144600D02*
X0252000Y0149400D01*
X0242000Y0149400D02*
X0242000Y0144600D01*
X0232000Y0144600D02*
X0232000Y0149400D01*
X0222000Y0149400D02*
X0222000Y0144600D01*
X0212000Y0144600D02*
X0212000Y0149400D01*
X0202000Y0149400D02*
X0202000Y0144600D01*
X0192000Y0144600D02*
X0192000Y0149400D01*
D15*
X0269657Y0202717D03*
X0261783Y0210000D03*
X0269657Y0217283D03*
X0288949Y0210000D03*
D16*
X0279500Y0210000D03*
M02*
